<svg width="145" height="63" viewBox="0 0 145 63" fill="none" xmlns="http://www.w3.org/2000/svg">
<rect width="145" height="63" rx="10" fill="white"/>
<path d="M32.1 37H34.98L28.7 23H25.82L19.54 37H22.4L23.6 34.36H30.92L32.1 37ZM29.86 31.9H24.66L27.26 25.94L29.86 31.9ZM35.7805 23.02V37H38.2005V23.02H35.7805ZM40.3313 23.02V37H42.7513V23.02H40.3313ZM55.745 34.14C55.145 34.74 54.365 34.96 53.585 34.96C52.065 34.96 50.785 33.96 50.785 32.08C50.785 30.36 51.985 29.16 53.625 29.16C54.305 29.16 55.025 29.42 55.605 29.94L57.145 28.32C56.065 27.26 54.985 26.86 53.585 26.86C50.725 26.86 48.345 28.58 48.345 32.08C48.345 35.58 50.725 37.3 53.585 37.3C55.045 37.3 56.245 36.86 57.385 35.74L55.745 34.14ZM63.2916 26.94C60.1516 26.94 58.1916 29.26 58.1916 32.08C58.1916 34.92 60.1116 37.22 63.3116 37.22C66.5116 37.22 68.4516 34.92 68.4516 32.08C68.4516 29.26 66.4316 26.94 63.2916 26.94ZM63.3116 29.16C64.9516 29.16 65.9916 30.6 65.9916 32.08C65.9916 33.58 65.0916 34.98 63.3116 34.98C61.5316 34.98 60.6316 33.58 60.6316 32.08C60.6316 30.6 61.5516 29.16 63.3116 29.16ZM70.1959 27.14V32.32C70.1959 35.38 71.9159 37.16 74.2759 37.16C75.6559 37.16 76.5959 36.68 77.6159 35.68L77.7759 37.02H79.9559V27.14H77.5359V32.18C77.5359 33.68 76.5159 34.94 75.0159 34.94C73.4559 34.94 72.6359 33.8 72.6359 32.3V27.14H70.1959ZM82.1086 27.14V37H84.5486V31.8C84.5486 29.98 85.7286 29.3 87.0086 29.3C87.8086 29.3 88.2686 29.52 88.7686 29.94L89.8686 27.82C89.3286 27.28 88.3486 26.88 87.3286 26.88C86.3286 26.88 85.3086 27.06 84.5486 28.28L84.3686 27.14H82.1086ZM98.5805 28.16C97.4405 27.16 96.2805 26.86 94.7405 26.86C92.9405 26.86 90.5805 27.66 90.5805 29.94C90.5805 32.18 92.8005 32.86 94.6605 33C96.0605 33.08 96.6205 33.36 96.6205 34.04C96.6205 34.76 95.7605 35.24 94.8405 35.22C93.7405 35.2 92.1405 34.62 91.4405 33.84L90.2405 35.58C91.6805 37.08 93.2405 37.34 94.8005 37.34C97.6205 37.34 99.0405 35.84 99.0405 34.1C99.0405 31.48 96.6805 31.06 94.8205 30.94C93.5605 30.86 92.9805 30.5 92.9805 29.86C92.9805 29.24 93.6205 28.88 94.7805 28.88C95.7205 28.88 96.5205 29.1 97.2205 29.76L98.5805 28.16ZM110.385 32.94C110.765 28.88 108.705 26.84 105.405 26.84C102.205 26.84 100.165 29 100.165 32C100.165 35.16 102.185 37.26 105.585 37.26C107.085 37.26 108.785 36.74 109.825 35.66L108.265 34.12C107.705 34.7 106.525 35.04 105.625 35.04C103.905 35.04 102.845 34.16 102.685 32.94H110.385ZM102.725 30.92C103.085 29.64 104.165 29 105.485 29C106.885 29 107.885 29.64 108.045 30.92H102.725ZM120.065 28.16C118.925 27.16 117.765 26.86 116.225 26.86C114.425 26.86 112.065 27.66 112.065 29.94C112.065 32.18 114.285 32.86 116.145 33C117.545 33.08 118.105 33.36 118.105 34.04C118.105 34.76 117.245 35.24 116.325 35.22C115.225 35.2 113.625 34.62 112.925 33.84L111.725 35.58C113.165 37.08 114.725 37.34 116.285 37.34C119.105 37.34 120.525 35.84 120.525 34.1C120.525 31.48 118.165 31.06 116.305 30.94C115.045 30.86 114.465 30.5 114.465 29.86C114.465 29.24 115.105 28.88 116.265 28.88C117.205 28.88 118.005 29.1 118.705 29.76L120.065 28.16Z" fill="url(#paint0_linear_624_467)"/>
<defs>
<linearGradient id="paint0_linear_624_467" x1="20" y1="31.5" x2="125" y2="31.5" gradientUnits="userSpaceOnUse">
<stop stop-color="#5848EA"/>
<stop offset="1" stop-color="#9549EB"/>
</linearGradient>
</defs>
</svg>
