<svg width="500" height="100" viewBox="0 0 500 100" fill="none" xmlns="http://www.w3.org/2000/svg">
<rect width="500" height="100" fill="#160F0D"/>
<path d="M52.8305 32.5665C52.8305 33.0722 52.7086 33.5464 52.4648 33.989C52.2299 34.4315 51.8551 34.7883 51.3403 35.0592C50.8345 35.3302 50.1933 35.4657 49.4165 35.4657H47.8315V39.0964H45.9348V29.6402H49.4165C50.1481 29.6402 50.7713 29.7666 51.2861 30.0195C51.8009 30.2724 52.1848 30.6201 52.4377 31.0627C52.6996 31.5052 52.8305 32.0065 52.8305 32.5665ZM49.3352 33.9348C49.8591 33.9348 50.2475 33.8174 50.5003 33.5825C50.7532 33.3387 50.8797 33 50.8797 32.5665C50.8797 31.6452 50.3649 31.1846 49.3352 31.1846H47.8315V33.9348H49.3352ZM56.0738 32.7561C56.3177 32.3587 56.6338 32.0471 57.0222 31.8213C57.4196 31.5956 57.8711 31.4827 58.3769 31.4827V33.4742H57.8757C57.2796 33.4742 56.828 33.6142 56.5209 33.8941C56.2228 34.1741 56.0738 34.6618 56.0738 35.3573V39.0964H54.1772V31.591H56.0738V32.7561ZM66.6315 35.1812C66.6315 35.4521 66.6134 35.696 66.5773 35.9127H61.0905C61.1356 36.4546 61.3253 36.8791 61.6595 37.1862C61.9937 37.4933 62.4046 37.6468 62.8923 37.6468C63.5968 37.6468 64.0981 37.3443 64.3961 36.7391H66.4418C66.225 37.4617 65.8096 38.0578 65.1954 38.5274C64.5813 38.9881 63.8271 39.2184 62.933 39.2184C62.2104 39.2184 61.5601 39.0603 60.9821 38.7442C60.4131 38.4191 59.966 37.9629 59.6409 37.3759C59.3248 36.7888 59.1667 36.1114 59.1667 35.3437C59.1667 34.567 59.3248 33.8851 59.6409 33.298C59.957 32.711 60.3995 32.2594 60.9685 31.9433C61.5375 31.6272 62.1924 31.4691 62.933 31.4691C63.6465 31.4691 64.2832 31.6227 64.8432 31.9297C65.4122 32.2368 65.8502 32.6749 66.1573 33.2439C66.4734 33.8038 66.6315 34.4496 66.6315 35.1812ZM64.6671 34.6393C64.658 34.1515 64.4819 33.7632 64.1387 33.4742C63.7955 33.1761 63.3755 33.0271 62.8788 33.0271C62.4091 33.0271 62.0117 33.1716 61.6866 33.4606C61.3705 33.7406 61.1763 34.1335 61.104 34.6393H64.6671ZM69.9125 32.6749C70.1564 32.3316 70.4906 32.0471 70.9151 31.8213C71.3486 31.5865 71.8408 31.4691 72.3918 31.4691C73.033 31.4691 73.611 31.6272 74.1259 31.9433C74.6497 32.2594 75.0606 32.711 75.3587 33.298C75.6658 33.8761 75.8193 34.5489 75.8193 35.3166C75.8193 36.0843 75.6658 36.7662 75.3587 37.3623C75.0606 37.9494 74.6497 38.4055 74.1259 38.7306C73.611 39.0558 73.033 39.2184 72.3918 39.2184C71.8408 39.2184 71.3531 39.1055 70.9286 38.8797C70.5131 38.6539 70.1745 38.3694 69.9125 38.0262V42.673H68.0159V31.591H69.9125V32.6749ZM73.882 35.3166C73.882 34.8651 73.7872 34.4767 73.5975 34.1515C73.4169 33.8174 73.173 33.5645 72.8659 33.3929C72.5679 33.2213 72.2427 33.1355 71.8905 33.1355C71.5473 33.1355 71.2221 33.2258 70.9151 33.4064C70.617 33.578 70.3732 33.8309 70.1835 34.1651C70.0029 34.4993 69.9125 34.8921 69.9125 35.3437C69.9125 35.7953 70.0029 36.1882 70.1835 36.5224C70.3732 36.8566 70.617 37.114 70.9151 37.2946C71.2221 37.4662 71.5473 37.552 71.8905 37.552C72.2427 37.552 72.5679 37.4617 72.8659 37.2811C73.173 37.1004 73.4169 36.843 73.5975 36.5088C73.7872 36.1747 73.882 35.7773 73.882 35.3166ZM76.7099 35.3166C76.7099 34.558 76.8589 33.8851 77.1569 33.298C77.464 32.711 77.875 32.2594 78.3898 31.9433C78.9136 31.6272 79.4962 31.4691 80.1374 31.4691C80.6974 31.4691 81.1851 31.582 81.6006 31.8078C82.025 32.0336 82.3637 32.3181 82.6166 32.6613V31.591H84.5268V39.0964H82.6166V37.9991C82.3728 38.3513 82.0341 38.6448 81.6006 38.8797C81.1761 39.1055 80.6838 39.2184 80.1239 39.2184C79.4916 39.2184 78.9136 39.0558 78.3898 38.7306C77.875 38.4055 77.464 37.9494 77.1569 37.3623C76.8589 36.7662 76.7099 36.0843 76.7099 35.3166ZM82.6166 35.3437C82.6166 34.8831 82.5263 34.4902 82.3457 34.1651C82.165 33.8309 81.9212 33.578 81.6141 33.4064C81.307 33.2258 80.9774 33.1355 80.6251 33.1355C80.2729 33.1355 79.9477 33.2213 79.6497 33.3929C79.3516 33.5645 79.1078 33.8174 78.9181 34.1515C78.7375 34.4767 78.6472 34.8651 78.6472 35.3166C78.6472 35.7682 78.7375 36.1656 78.9181 36.5088C79.1078 36.843 79.3516 37.1004 79.6497 37.2811C79.9568 37.4617 80.2819 37.552 80.6251 37.552C80.9774 37.552 81.307 37.4662 81.6141 37.2946C81.9212 37.114 82.165 36.8611 82.3457 36.5359C82.5263 36.2018 82.6166 35.8044 82.6166 35.3437ZM88.2759 32.7561C88.5198 32.3587 88.8359 32.0471 89.2243 31.8213C89.6217 31.5956 90.0733 31.4827 90.579 31.4827V33.4742H90.0778C89.4817 33.4742 89.0301 33.6142 88.723 33.8941C88.425 34.1741 88.2759 34.6618 88.2759 35.3573V39.0964H86.3793V31.591H88.2759V32.7561ZM98.8336 35.1812C98.8336 35.4521 98.8155 35.696 98.7794 35.9127H93.2926C93.3378 36.4546 93.5274 36.8791 93.8616 37.1862C94.1958 37.4933 94.6067 37.6468 95.0944 37.6468C95.7989 37.6468 96.3002 37.3443 96.5982 36.7391H98.6439C98.4272 37.4617 98.0117 38.0578 97.3975 38.5274C96.7834 38.9881 96.0292 39.2184 95.1351 39.2184C94.4125 39.2184 93.7622 39.0603 93.1842 38.7442C92.6152 38.4191 92.1681 37.9629 91.843 37.3759C91.5269 36.7888 91.3688 36.1114 91.3688 35.3437C91.3688 34.567 91.5269 33.8851 91.843 33.298C92.1591 32.711 92.6017 32.2594 93.1707 31.9433C93.7397 31.6272 94.3945 31.4691 95.1351 31.4691C95.8486 31.4691 96.4853 31.6227 97.0453 31.9297C97.6143 32.2368 98.0523 32.6749 98.3594 33.2439C98.6755 33.8038 98.8336 34.4496 98.8336 35.1812ZM96.8692 34.6393C96.8601 34.1515 96.684 33.7632 96.3408 33.4742C95.9976 33.1761 95.5776 33.0271 95.0809 33.0271C94.6112 33.0271 94.2138 33.1716 93.8887 33.4606C93.5726 33.7406 93.3784 34.1335 93.3061 34.6393H96.8692ZM106.887 33.149H105.573V39.0964H103.649V33.149H102.796V31.591H103.649V31.2117C103.649 30.2905 103.911 29.6131 104.435 29.1796C104.959 28.746 105.749 28.5428 106.806 28.5699V30.1685C106.345 30.1595 106.025 30.2363 105.844 30.3988C105.663 30.5614 105.573 30.855 105.573 31.2794V31.591H106.887V33.149ZM111.449 39.2184C110.727 39.2184 110.076 39.0603 109.498 38.7442C108.92 38.4191 108.464 37.9629 108.13 37.3759C107.805 36.7888 107.642 36.1114 107.642 35.3437C107.642 34.576 107.809 33.8987 108.143 33.3116C108.487 32.7245 108.952 32.2729 109.539 31.9568C110.126 31.6317 110.781 31.4691 111.503 31.4691C112.226 31.4691 112.881 31.6317 113.468 31.9568C114.055 32.2729 114.515 32.7245 114.85 33.3116C115.193 33.8987 115.364 34.576 115.364 35.3437C115.364 36.1114 115.188 36.7888 114.836 37.3759C114.493 37.9629 114.023 38.4191 113.427 38.7442C112.84 39.0603 112.181 39.2184 111.449 39.2184ZM111.449 37.5656C111.792 37.5656 112.113 37.4843 112.411 37.3217C112.718 37.1501 112.962 36.8972 113.143 36.563C113.323 36.2289 113.413 35.8224 113.413 35.3437C113.413 34.6302 113.224 34.0838 112.844 33.7045C112.474 33.3161 112.018 33.1219 111.476 33.1219C110.934 33.1219 110.478 33.3161 110.108 33.7045C109.747 34.0838 109.566 34.6302 109.566 35.3437C109.566 36.0572 109.742 36.6082 110.094 36.9966C110.456 37.3759 110.907 37.5656 111.449 37.5656ZM118.652 32.7561C118.896 32.3587 119.212 32.0471 119.601 31.8213C119.998 31.5956 120.45 31.4827 120.955 31.4827V33.4742H120.454C119.858 33.4742 119.406 33.6142 119.099 33.8941C118.801 34.1741 118.652 34.6618 118.652 35.3573V39.0964H116.756V31.591H118.652V32.7561ZM132.641 31.591L127.994 42.6459H125.976L127.602 38.9068L124.594 31.591H126.721L128.658 36.834L130.623 31.591H132.641ZM136.996 39.2184C136.274 39.2184 135.624 39.0603 135.046 38.7442C134.468 38.4191 134.011 37.9629 133.677 37.3759C133.352 36.7888 133.19 36.1114 133.19 35.3437C133.19 34.576 133.357 33.8987 133.691 33.3116C134.034 32.7245 134.499 32.2729 135.086 31.9568C135.673 31.6317 136.328 31.4691 137.051 31.4691C137.773 31.4691 138.428 31.6317 139.015 31.9568C139.602 32.2729 140.063 32.7245 140.397 33.3116C140.74 33.8987 140.912 34.576 140.912 35.3437C140.912 36.1114 140.736 36.7888 140.383 37.3759C140.04 37.9629 139.571 38.4191 138.974 38.7442C138.387 39.0603 137.728 39.2184 136.996 39.2184ZM136.996 37.5656C137.34 37.5656 137.66 37.4843 137.958 37.3217C138.265 37.1501 138.509 36.8972 138.69 36.563C138.871 36.2289 138.961 35.8224 138.961 35.3437C138.961 34.6302 138.771 34.0838 138.392 33.7045C138.022 33.3161 137.565 33.1219 137.024 33.1219C136.482 33.1219 136.026 33.3161 135.655 33.7045C135.294 34.0838 135.113 34.6302 135.113 35.3437C135.113 36.0572 135.289 36.6082 135.642 36.9966C136.003 37.3759 136.455 37.5656 136.996 37.5656ZM149.388 31.591V39.0964H147.478V38.1481C147.234 38.4732 146.914 38.7306 146.516 38.9203C146.128 39.101 145.703 39.1913 145.243 39.1913C144.656 39.1913 144.136 39.0693 143.685 38.8255C143.233 38.5726 142.877 38.2068 142.615 37.7281C142.362 37.2404 142.235 36.6624 142.235 35.994V31.591H144.132V35.7231C144.132 36.3192 144.281 36.7798 144.579 37.1049C144.877 37.421 145.283 37.5791 145.798 37.5791C146.322 37.5791 146.733 37.421 147.031 37.1049C147.329 36.7798 147.478 36.3192 147.478 35.7231V31.591H149.388ZM153.156 32.7561C153.4 32.3587 153.716 32.0471 154.105 31.8213C154.502 31.5956 154.954 31.4827 155.46 31.4827V33.4742H154.958C154.362 33.4742 153.911 33.6142 153.604 33.8941C153.305 34.1741 153.156 34.6618 153.156 35.3573V39.0964H151.26V31.591H153.156V32.7561ZM159.477 35.3166C159.477 34.558 159.627 33.8851 159.925 33.298C160.232 32.711 160.647 32.2594 161.171 31.9433C161.695 31.6272 162.277 31.4691 162.919 31.4691C163.406 31.4691 163.871 31.5775 164.314 31.7943C164.757 32.002 165.109 32.282 165.371 32.6342V29.0712H167.294V39.0964H165.371V37.9855C165.136 38.3558 164.806 38.6539 164.382 38.8797C163.957 39.1055 163.465 39.2184 162.905 39.2184C162.273 39.2184 161.695 39.0558 161.171 38.7306C160.647 38.4055 160.232 37.9494 159.925 37.3623C159.627 36.7662 159.477 36.0843 159.477 35.3166ZM165.384 35.3437C165.384 34.8831 165.294 34.4902 165.113 34.1651C164.933 33.8309 164.689 33.578 164.382 33.4064C164.075 33.2258 163.745 33.1355 163.393 33.1355C163.041 33.1355 162.715 33.2213 162.417 33.3929C162.119 33.5645 161.875 33.8174 161.686 34.1515C161.505 34.4767 161.415 34.8651 161.415 35.3166C161.415 35.7682 161.505 36.1656 161.686 36.5088C161.875 36.843 162.119 37.1004 162.417 37.2811C162.724 37.4617 163.05 37.552 163.393 37.552C163.745 37.552 164.075 37.4662 164.382 37.2946C164.689 37.114 164.933 36.8611 165.113 36.5359C165.294 36.2018 165.384 35.8044 165.384 35.3437ZM171.044 32.7561C171.287 32.3587 171.604 32.0471 171.992 31.8213C172.389 31.5956 172.841 31.4827 173.347 31.4827V33.4742H172.845C172.249 33.4742 171.798 33.6142 171.491 33.8941C171.193 34.1741 171.044 34.6618 171.044 35.3573V39.0964H169.147V31.591H171.044V32.7561ZM181.601 35.1812C181.601 35.4521 181.583 35.696 181.547 35.9127H176.06C176.105 36.4546 176.295 36.8791 176.629 37.1862C176.963 37.4933 177.374 37.6468 177.862 37.6468C178.567 37.6468 179.068 37.3443 179.366 36.7391H181.412C181.195 37.4617 180.779 38.0578 180.165 38.5274C179.551 38.9881 178.797 39.2184 177.903 39.2184C177.18 39.2184 176.53 39.0603 175.952 38.7442C175.383 38.4191 174.936 37.9629 174.611 37.3759C174.295 36.7888 174.136 36.1114 174.136 35.3437C174.136 34.567 174.295 33.8851 174.611 33.298C174.927 32.711 175.369 32.2594 175.938 31.9433C176.507 31.6272 177.162 31.4691 177.903 31.4691C178.616 31.4691 179.253 31.6227 179.813 31.9297C180.382 32.2368 180.82 32.6749 181.127 33.2439C181.443 33.8038 181.601 34.4496 181.601 35.1812ZM179.637 34.6393C179.628 34.1515 179.452 33.7632 179.108 33.4742C178.765 33.1761 178.345 33.0271 177.849 33.0271C177.379 33.0271 176.981 33.1716 176.656 33.4606C176.34 33.7406 176.146 34.1335 176.074 34.6393H179.637ZM182.498 35.3166C182.498 34.558 182.647 33.8851 182.945 33.298C183.252 32.711 183.663 32.2594 184.178 31.9433C184.702 31.6272 185.284 31.4691 185.925 31.4691C186.485 31.4691 186.973 31.582 187.389 31.8078C187.813 32.0336 188.152 32.3181 188.405 32.6613V31.591H190.315V39.0964H188.405V37.9991C188.161 38.3513 187.822 38.6448 187.389 38.8797C186.964 39.1055 186.472 39.2184 185.912 39.2184C185.28 39.2184 184.702 39.0558 184.178 38.7306C183.663 38.4055 183.252 37.9494 182.945 37.3623C182.647 36.7662 182.498 36.0843 182.498 35.3166ZM188.405 35.3437C188.405 34.8831 188.314 34.4902 188.134 34.1651C187.953 33.8309 187.709 33.578 187.402 33.4064C187.095 33.2258 186.765 33.1355 186.413 33.1355C186.061 33.1355 185.736 33.2213 185.438 33.3929C185.14 33.5645 184.896 33.8174 184.706 34.1515C184.526 34.4767 184.435 34.8651 184.435 35.3166C184.435 35.7682 184.526 36.1656 184.706 36.5088C184.896 36.843 185.14 37.1004 185.438 37.2811C185.745 37.4617 186.07 37.552 186.413 37.552C186.765 37.552 187.095 37.4662 187.402 37.2946C187.709 37.114 187.953 36.8611 188.134 36.5359C188.314 36.2018 188.405 35.8044 188.405 35.3437ZM201.488 31.4827C202.409 31.4827 203.15 31.7672 203.71 32.3362C204.279 32.8961 204.563 33.6819 204.563 34.6935V39.0964H202.667V34.9509C202.667 34.3638 202.518 33.9167 202.22 33.6096C201.922 33.2935 201.515 33.1355 201 33.1355C200.486 33.1355 200.075 33.2935 199.768 33.6096C199.47 33.9167 199.32 34.3638 199.32 34.9509V39.0964H197.424V34.9509C197.424 34.3638 197.275 33.9167 196.977 33.6096C196.679 33.2935 196.272 33.1355 195.757 33.1355C195.234 33.1355 194.818 33.2935 194.511 33.6096C194.213 33.9167 194.064 34.3638 194.064 34.9509V39.0964H192.167V31.591H194.064V32.4987C194.308 32.1826 194.619 31.9342 194.999 31.7536C195.387 31.573 195.812 31.4827 196.272 31.4827C196.859 31.4827 197.383 31.6091 197.844 31.862C198.304 32.1058 198.661 32.4581 198.914 32.9187C199.158 32.4852 199.51 32.1375 199.971 31.8755C200.44 31.6136 200.946 31.4827 201.488 31.4827ZM209.104 35.3437C209.104 34.567 209.262 33.8896 209.578 33.3116C209.894 32.7245 210.332 32.2729 210.892 31.9568C211.452 31.6317 212.093 31.4691 212.816 31.4691C213.746 31.4691 214.514 31.7039 215.119 32.1736C215.733 32.6342 216.144 33.2845 216.352 34.1244H214.306C214.198 33.7993 214.012 33.5464 213.751 33.3658C213.498 33.1761 213.182 33.0813 212.802 33.0813C212.26 33.0813 211.831 33.28 211.515 33.6774C211.199 34.0657 211.041 34.6212 211.041 35.3437C211.041 36.0572 211.199 36.6127 211.515 37.0101C211.831 37.3985 212.26 37.5926 212.802 37.5926C213.57 37.5926 214.071 37.2494 214.306 36.563H216.352C216.144 37.3759 215.733 38.0217 215.119 38.5003C214.505 38.979 213.737 39.2184 212.816 39.2184C212.093 39.2184 211.452 39.0603 210.892 38.7442C210.332 38.4191 209.894 37.9675 209.578 37.3894C209.262 36.8024 209.104 36.1205 209.104 35.3437ZM221.074 39.2184C220.351 39.2184 219.701 39.0603 219.123 38.7442C218.545 38.4191 218.089 37.9629 217.755 37.3759C217.43 36.7888 217.267 36.1114 217.267 35.3437C217.267 34.576 217.434 33.8987 217.768 33.3116C218.111 32.7245 218.577 32.2729 219.164 31.9568C219.751 31.6317 220.406 31.4691 221.128 31.4691C221.851 31.4691 222.505 31.6317 223.092 31.9568C223.68 32.2729 224.14 32.7245 224.474 33.3116C224.818 33.8987 224.989 34.576 224.989 35.3437C224.989 36.1114 224.813 36.7888 224.461 37.3759C224.118 37.9629 223.648 38.4191 223.052 38.7442C222.465 39.0603 221.805 39.2184 221.074 39.2184ZM221.074 37.5656C221.417 37.5656 221.738 37.4843 222.036 37.3217C222.343 37.1501 222.587 36.8972 222.767 36.563C222.948 36.2289 223.038 35.8224 223.038 35.3437C223.038 34.6302 222.849 34.0838 222.469 33.7045C222.099 33.3161 221.643 33.1219 221.101 33.1219C220.559 33.1219 220.103 33.3161 219.733 33.7045C219.371 34.0838 219.191 34.6302 219.191 35.3437C219.191 36.0572 219.367 36.6082 219.719 36.9966C220.08 37.3759 220.532 37.5656 221.074 37.5656ZM235.701 31.4827C236.622 31.4827 237.363 31.7672 237.923 32.3362C238.492 32.8961 238.777 33.6819 238.777 34.6935V39.0964H236.88V34.9509C236.88 34.3638 236.731 33.9167 236.433 33.6096C236.135 33.2935 235.728 33.1355 235.214 33.1355C234.699 33.1355 234.288 33.2935 233.981 33.6096C233.683 33.9167 233.534 34.3638 233.534 34.9509V39.0964H231.637V34.9509C231.637 34.3638 231.488 33.9167 231.19 33.6096C230.892 33.2935 230.485 33.1355 229.971 33.1355C229.447 33.1355 229.031 33.2935 228.724 33.6096C228.426 33.9167 228.277 34.3638 228.277 34.9509V39.0964H226.38V31.591H228.277V32.4987C228.521 32.1826 228.833 31.9342 229.212 31.7536C229.6 31.573 230.025 31.4827 230.485 31.4827C231.072 31.4827 231.596 31.6091 232.057 31.862C232.518 32.1058 232.874 32.4581 233.127 32.9187C233.371 32.4852 233.723 32.1375 234.184 31.8755C234.654 31.6136 235.159 31.4827 235.701 31.4827ZM242.473 32.6749C242.717 32.3316 243.051 32.0471 243.476 31.8213C243.909 31.5865 244.401 31.4691 244.952 31.4691C245.594 31.4691 246.172 31.6272 246.686 31.9433C247.21 32.2594 247.621 32.711 247.919 33.298C248.226 33.8761 248.38 34.5489 248.38 35.3166C248.38 36.0843 248.226 36.7662 247.919 37.3623C247.621 37.9494 247.21 38.4055 246.686 38.7306C246.172 39.0558 245.594 39.2184 244.952 39.2184C244.401 39.2184 243.914 39.1055 243.489 38.8797C243.074 38.6539 242.735 38.3694 242.473 38.0262V42.673H240.576V31.591H242.473V32.6749ZM246.442 35.3166C246.442 34.8651 246.348 34.4767 246.158 34.1515C245.977 33.8174 245.733 33.5645 245.426 33.3929C245.128 33.2213 244.803 33.1355 244.451 33.1355C244.108 33.1355 243.783 33.2258 243.476 33.4064C243.178 33.578 242.934 33.8309 242.744 34.1651C242.563 34.4993 242.473 34.8921 242.473 35.3437C242.473 35.7953 242.563 36.1882 242.744 36.5224C242.934 36.8566 243.178 37.114 243.476 37.2946C243.783 37.4662 244.108 37.552 244.451 37.552C244.803 37.552 245.128 37.4617 245.426 37.2811C245.733 37.1004 245.977 36.843 246.158 36.5088C246.348 36.1747 246.442 35.7773 246.442 35.3166ZM249.27 35.3166C249.27 34.558 249.419 33.8851 249.717 33.298C250.024 32.711 250.435 32.2594 250.95 31.9433C251.474 31.6272 252.057 31.4691 252.698 31.4691C253.258 31.4691 253.746 31.582 254.161 31.8078C254.586 32.0336 254.924 32.3181 255.177 32.6613V31.591H257.087V39.0964H255.177V37.9991C254.933 38.3513 254.595 38.6448 254.161 38.8797C253.737 39.1055 253.244 39.2184 252.684 39.2184C252.052 39.2184 251.474 39.0558 250.95 38.7306C250.435 38.4055 250.024 37.9494 249.717 37.3623C249.419 36.7662 249.27 36.0843 249.27 35.3166ZM255.177 35.3437C255.177 34.8831 255.087 34.4902 254.906 34.1651C254.726 33.8309 254.482 33.578 254.175 33.4064C253.868 33.2258 253.538 33.1355 253.186 33.1355C252.833 33.1355 252.508 33.2213 252.21 33.3929C251.912 33.5645 251.668 33.8174 251.479 34.1515C251.298 34.4767 251.208 34.8651 251.208 35.3166C251.208 35.7682 251.298 36.1656 251.479 36.5088C251.668 36.843 251.912 37.1004 252.21 37.2811C252.517 37.4617 252.842 37.552 253.186 37.552C253.538 37.552 253.868 37.4662 254.175 37.2946C254.482 37.114 254.726 36.8611 254.906 36.5359C255.087 36.2018 255.177 35.8044 255.177 35.3437ZM263.099 31.4827C263.993 31.4827 264.716 31.7672 265.267 32.3362C265.817 32.8961 266.093 33.6819 266.093 34.6935V39.0964H264.196V34.9509C264.196 34.3548 264.047 33.8987 263.749 33.5825C263.451 33.2574 263.045 33.0948 262.53 33.0948C262.006 33.0948 261.591 33.2574 261.284 33.5825C260.985 33.8987 260.836 34.3548 260.836 34.9509V39.0964H258.94V31.591H260.836V32.5258C261.089 32.2007 261.41 31.9478 261.798 31.7672C262.196 31.5775 262.629 31.4827 263.099 31.4827ZM268.858 30.6969C268.524 30.6969 268.244 30.593 268.018 30.3853C267.802 30.1685 267.693 29.9021 267.693 29.586C267.693 29.2699 267.802 29.008 268.018 28.8002C268.244 28.5835 268.524 28.4751 268.858 28.4751C269.193 28.4751 269.468 28.5835 269.685 28.8002C269.911 29.008 270.024 29.2699 270.024 29.586C270.024 29.9021 269.911 30.1685 269.685 30.3853C269.468 30.593 269.193 30.6969 268.858 30.6969ZM269.793 31.591V39.0964H267.897V31.591H269.793ZM278.644 35.1812C278.644 35.4521 278.626 35.696 278.59 35.9127H273.103C273.148 36.4546 273.338 36.8791 273.672 37.1862C274.006 37.4933 274.417 37.6468 274.905 37.6468C275.61 37.6468 276.111 37.3443 276.409 36.7391H278.455C278.238 37.4617 277.822 38.0578 277.208 38.5274C276.594 38.9881 275.84 39.2184 274.946 39.2184C274.223 39.2184 273.573 39.0603 272.995 38.7442C272.426 38.4191 271.979 37.9629 271.654 37.3759C271.337 36.7888 271.179 36.1114 271.179 35.3437C271.179 34.567 271.337 33.8851 271.654 33.298C271.97 32.711 272.412 32.2594 272.981 31.9433C273.55 31.6272 274.205 31.4691 274.946 31.4691C275.659 31.4691 276.296 31.6227 276.856 31.9297C277.425 32.2368 277.863 32.6749 278.17 33.2439C278.486 33.8038 278.644 34.4496 278.644 35.1812ZM276.68 34.6393C276.671 34.1515 276.495 33.7632 276.151 33.4742C275.808 33.1761 275.388 33.0271 274.891 33.0271C274.422 33.0271 274.024 33.1716 273.699 33.4606C273.383 33.7406 273.189 34.1335 273.117 34.6393H276.68ZM282.901 39.2184C282.287 39.2184 281.736 39.11 281.248 38.8932C280.76 38.6674 280.372 38.3649 280.083 37.9855C279.803 37.6062 279.649 37.1862 279.622 36.7256H281.532C281.568 37.0146 281.708 37.254 281.952 37.4436C282.205 37.6333 282.517 37.7281 282.887 37.7281C283.248 37.7281 283.528 37.6559 283.727 37.5114C283.935 37.3669 284.039 37.1817 284.039 36.9559C284.039 36.712 283.912 36.5314 283.659 36.414C283.415 36.2876 283.023 36.1521 282.481 36.0076C281.921 35.8721 281.46 35.7321 281.099 35.5876C280.747 35.4431 280.44 35.2218 280.178 34.9238C279.925 34.6257 279.798 34.2238 279.798 33.718C279.798 33.3026 279.916 32.9232 280.151 32.58C280.394 32.2368 280.738 31.9659 281.18 31.7672C281.632 31.5685 282.16 31.4691 282.765 31.4691C283.659 31.4691 284.373 31.6949 284.906 32.1465C285.439 32.589 285.732 33.1897 285.786 33.9483H283.971C283.944 33.6503 283.817 33.4155 283.592 33.2439C283.375 33.0632 283.081 32.9729 282.711 32.9729C282.368 32.9729 282.101 33.0361 281.912 33.1626C281.731 33.289 281.641 33.4651 281.641 33.6909C281.641 33.9438 281.767 34.138 282.02 34.2735C282.273 34.3999 282.666 34.5309 283.199 34.6664C283.741 34.8018 284.188 34.9418 284.54 35.0863C284.892 35.2308 285.195 35.4566 285.448 35.7637C285.71 36.0618 285.845 36.4592 285.854 36.9559C285.854 37.3894 285.732 37.7778 285.488 38.121C285.253 38.4642 284.91 38.7352 284.459 38.9339C284.016 39.1235 283.497 39.2184 282.901 39.2184ZM290.151 35.3166C290.151 34.558 290.3 33.8851 290.598 33.298C290.906 32.711 291.317 32.2594 291.831 31.9433C292.355 31.6272 292.938 31.4691 293.579 31.4691C294.139 31.4691 294.627 31.582 295.042 31.8078C295.467 32.0336 295.805 32.3181 296.058 32.6613V31.591H297.968V39.0964H296.058V37.9991C295.814 38.3513 295.476 38.6448 295.042 38.8797C294.618 39.1055 294.125 39.2184 293.565 39.2184C292.933 39.2184 292.355 39.0558 291.831 38.7306C291.317 38.4055 290.906 37.9494 290.598 37.3623C290.3 36.7662 290.151 36.0843 290.151 35.3166ZM296.058 35.3437C296.058 34.8831 295.968 34.4902 295.787 34.1651C295.607 33.8309 295.363 33.578 295.056 33.4064C294.749 33.2258 294.419 33.1355 294.067 33.1355C293.714 33.1355 293.389 33.2213 293.091 33.3929C292.793 33.5645 292.549 33.8174 292.36 34.1515C292.179 34.4767 292.089 34.8651 292.089 35.3166C292.089 35.7682 292.179 36.1656 292.36 36.5088C292.549 36.843 292.793 37.1004 293.091 37.2811C293.398 37.4617 293.723 37.552 294.067 37.552C294.419 37.552 294.749 37.4662 295.056 37.2946C295.363 37.114 295.607 36.8611 295.787 36.5359C295.968 36.2018 296.058 35.8044 296.058 35.3437ZM302.029 33.149V36.7798C302.029 37.0327 302.088 37.2178 302.205 37.3352C302.332 37.4436 302.539 37.4978 302.828 37.4978H303.709V39.0964H302.517C300.918 39.0964 300.119 38.3197 300.119 36.7662V33.149H299.225V31.591H300.119V29.735H302.029V31.591H303.709V33.149H302.029ZM307.814 35.3166C307.814 34.558 307.963 33.8851 308.261 33.298C308.568 32.711 308.979 32.2594 309.494 31.9433C310.017 31.6272 310.6 31.4691 311.241 31.4691C311.801 31.4691 312.289 31.582 312.704 31.8078C313.129 32.0336 313.468 32.3181 313.72 32.6613V31.591H315.631V39.0964H313.72V37.9991C313.477 38.3513 313.138 38.6448 312.704 38.8797C312.28 39.1055 311.788 39.2184 311.228 39.2184C310.595 39.2184 310.017 39.0558 309.494 38.7306C308.979 38.4055 308.568 37.9494 308.261 37.3623C307.963 36.7662 307.814 36.0843 307.814 35.3166ZM313.72 35.3437C313.72 34.8831 313.63 34.4902 313.449 34.1651C313.269 33.8309 313.025 33.578 312.718 33.4064C312.411 33.2258 312.081 33.1355 311.729 33.1355C311.377 33.1355 311.052 33.2213 310.753 33.3929C310.455 33.5645 310.212 33.8174 310.022 34.1515C309.841 34.4767 309.751 34.8651 309.751 35.3166C309.751 35.7682 309.841 36.1656 310.022 36.5088C310.212 36.843 310.455 37.1004 310.753 37.2811C311.061 37.4617 311.386 37.552 311.729 37.552C312.081 37.552 312.411 37.4662 312.718 37.2946C313.025 37.114 313.269 36.8611 313.449 36.5359C313.63 36.2018 313.72 35.8044 313.72 35.3437ZM331.021 29.6402V39.0964H329.124V32.9458L326.591 39.0964H325.155L322.608 32.9458V39.0964H320.711V29.6402H322.865L325.873 36.6714L328.88 29.6402H331.021ZM338.695 37.2946H334.928L334.305 39.0964H332.314L335.714 29.6266H337.922L341.323 39.0964H339.318L338.695 37.2946ZM338.18 35.7773L336.811 31.8213L335.443 35.7773H338.18ZM345.859 39.1913C345.2 39.1913 344.603 39.0784 344.071 38.8526C343.547 38.6268 343.131 38.3016 342.824 37.8771C342.517 37.4527 342.359 36.9514 342.35 36.3734H344.382C344.409 36.7617 344.545 37.0688 344.789 37.2946C345.041 37.5204 345.385 37.6333 345.818 37.6333C346.261 37.6333 346.608 37.5294 346.861 37.3217C347.114 37.1049 347.241 36.8249 347.241 36.4817C347.241 36.2018 347.155 35.9714 346.983 35.7908C346.812 35.6102 346.595 35.4702 346.333 35.3708C346.08 35.2625 345.728 35.145 345.276 35.0186C344.662 34.838 344.161 34.6618 343.772 34.4902C343.393 34.3096 343.063 34.0432 342.784 33.6909C342.513 33.3297 342.377 32.851 342.377 32.2549C342.377 31.6949 342.517 31.2072 342.797 30.7917C343.077 30.3763 343.47 30.0602 343.976 29.8434C344.481 29.6176 345.06 29.5047 345.71 29.5047C346.685 29.5047 347.476 29.744 348.081 30.2227C348.695 30.6924 349.033 31.3517 349.097 32.2007H347.01C346.992 31.8755 346.852 31.6091 346.59 31.4014C346.338 31.1846 345.999 31.0762 345.574 31.0762C345.204 31.0762 344.906 31.1711 344.68 31.3607C344.463 31.5504 344.355 31.8259 344.355 32.1871C344.355 32.44 344.436 32.6523 344.599 32.8239C344.771 32.9864 344.978 33.1219 345.222 33.2303C345.475 33.3297 345.827 33.4471 346.279 33.5825C346.893 33.7632 347.394 33.9438 347.783 34.1244C348.171 34.3051 348.505 34.576 348.785 34.9373C349.065 35.2986 349.205 35.7727 349.205 36.3598C349.205 36.8656 349.074 37.3352 348.812 37.7688C348.55 38.2023 348.166 38.55 347.661 38.8119C347.155 39.0648 346.554 39.1913 345.859 39.1913ZM354.114 39.1913C353.455 39.1913 352.859 39.0784 352.326 38.8526C351.802 38.6268 351.387 38.3016 351.08 37.8771C350.773 37.4527 350.615 36.9514 350.606 36.3734H352.638C352.665 36.7617 352.8 37.0688 353.044 37.2946C353.297 37.5204 353.64 37.6333 354.074 37.6333C354.516 37.6333 354.864 37.5294 355.117 37.3217C355.37 37.1049 355.496 36.8249 355.496 36.4817C355.496 36.2018 355.41 35.9714 355.239 35.7908C355.067 35.6102 354.851 35.4702 354.589 35.3708C354.336 35.2625 353.983 35.145 353.532 35.0186C352.918 34.838 352.416 34.6618 352.028 34.4902C351.649 34.3096 351.319 34.0432 351.039 33.6909C350.768 33.3297 350.633 32.851 350.633 32.2549C350.633 31.6949 350.773 31.2072 351.053 30.7917C351.333 30.3763 351.726 30.0602 352.231 29.8434C352.737 29.6176 353.315 29.5047 353.965 29.5047C354.941 29.5047 355.731 29.744 356.336 30.2227C356.95 30.6924 357.289 31.3517 357.352 32.2007H355.266C355.248 31.8755 355.108 31.6091 354.846 31.4014C354.593 31.1846 354.254 31.0762 353.83 31.0762C353.46 31.0762 353.162 31.1711 352.936 31.3607C352.719 31.5504 352.611 31.8259 352.611 32.1871C352.611 32.44 352.692 32.6523 352.854 32.8239C353.026 32.9864 353.234 33.1219 353.478 33.2303C353.731 33.3297 354.083 33.4471 354.534 33.5825C355.149 33.7632 355.65 33.9438 356.038 34.1244C356.427 34.3051 356.761 34.576 357.041 34.9373C357.321 35.2986 357.461 35.7727 357.461 36.3598C357.461 36.8656 357.33 37.3352 357.068 37.7688C356.806 38.2023 356.422 38.55 355.916 38.8119C355.41 39.0648 354.81 39.1913 354.114 39.1913ZM361.002 29.6402V39.0964H359.105V29.6402H361.002ZM371.37 29.6402L367.902 39.0964H365.599L362.13 29.6402H364.163L366.764 37.1591L369.351 29.6402H371.37ZM374.404 31.1711V33.5419H377.588V35.0457H374.404V37.552H377.994V39.0964H372.507V29.6266H377.994V31.1711H374.404Z" fill="#FFDCD0"/>
<rect x="388" y="23" width="67" height="21.91" rx="2.8165" fill="url(#paint0_linear_382_39)"/>
<path d="M396.267 35.8139C396.402 36.5259 396.816 36.8819 397.51 36.8819C397.988 36.8819 398.326 36.6701 398.524 36.2465C398.723 35.8229 398.822 35.1335 398.822 34.1781C398.623 34.4575 398.353 34.6738 398.011 34.827C397.668 34.9802 397.285 35.0569 396.861 35.0569C396.285 35.0569 395.771 34.9397 395.32 34.7054C394.87 34.462 394.514 34.106 394.252 33.6373C394 33.1597 393.874 32.5828 393.874 31.9069C393.874 31.2399 394.009 30.6586 394.279 30.1629C394.559 29.6672 394.951 29.2842 395.455 29.0138C395.969 28.7434 396.573 28.6082 397.267 28.6082C398.601 28.6082 399.534 29.0228 400.066 29.852C400.597 30.6811 400.863 31.9024 400.863 33.5157C400.863 34.6873 400.755 35.6562 400.539 36.4223C400.331 37.1794 399.975 37.7562 399.471 38.1527C398.975 38.5493 398.294 38.7476 397.429 38.7476C396.744 38.7476 396.158 38.6124 395.672 38.342C395.194 38.0716 394.825 37.7156 394.563 37.274C394.311 36.8324 394.167 36.3457 394.131 35.8139H396.267ZM397.389 33.2318C397.767 33.2318 398.069 33.1191 398.294 32.8938C398.52 32.6594 398.632 32.344 398.632 31.9474C398.632 31.5148 398.515 31.1814 398.281 30.947C398.047 30.7127 397.731 30.5955 397.335 30.5955C396.938 30.5955 396.623 30.7172 396.388 30.9605C396.163 31.1949 396.05 31.5193 396.05 31.9339C396.05 32.3215 396.163 32.6369 396.388 32.8803C396.623 33.1146 396.956 33.2318 397.389 33.2318ZM401.826 33.6373C401.826 32.0871 402.124 30.8659 402.718 29.9736C403.322 29.0814 404.291 28.6352 405.625 28.6352C406.959 28.6352 407.923 29.0814 408.518 29.9736C409.122 30.8659 409.424 32.0871 409.424 33.6373C409.424 35.2056 409.122 36.4358 408.518 37.3281C407.923 38.2203 406.959 38.6665 405.625 38.6665C404.291 38.6665 403.322 38.2203 402.718 37.3281C402.124 36.4358 401.826 35.2056 401.826 33.6373ZM407.153 33.6373C407.153 32.727 407.054 32.0286 406.855 31.5419C406.657 31.0462 406.247 30.7983 405.625 30.7983C405.003 30.7983 404.593 31.0462 404.395 31.5419C404.197 32.0286 404.097 32.727 404.097 33.6373C404.097 34.2502 404.133 34.7594 404.206 35.165C404.278 35.5616 404.422 35.886 404.638 36.1384C404.863 36.3817 405.192 36.5034 405.625 36.5034C406.058 36.5034 406.382 36.3817 406.598 36.1384C406.824 35.886 406.972 35.5616 407.045 35.165C407.117 34.7594 407.153 34.2502 407.153 33.6373ZM410.186 31.3256C410.186 30.5955 410.393 30.0322 410.808 29.6357C411.231 29.2391 411.776 29.0408 412.443 29.0408C413.11 29.0408 413.651 29.2391 414.066 29.6357C414.48 30.0322 414.688 30.5955 414.688 31.3256C414.688 32.0556 414.48 32.6189 414.066 33.0155C413.651 33.412 413.11 33.6103 412.443 33.6103C411.776 33.6103 411.231 33.412 410.808 33.0155C410.393 32.6189 410.186 32.0556 410.186 31.3256ZM419.365 29.1895L414.16 38.707H411.93L417.135 29.1895H419.365ZM412.43 30.3927C411.997 30.3927 411.781 30.7037 411.781 31.3256C411.781 31.9384 411.997 32.2449 412.43 32.2449C412.637 32.2449 412.799 32.1683 412.917 32.015C413.034 31.8618 413.092 31.632 413.092 31.3256C413.092 30.7037 412.871 30.3927 412.43 30.3927ZM416.621 36.571C416.621 35.841 416.828 35.2777 417.243 34.8811C417.657 34.4845 418.198 34.2863 418.865 34.2863C419.532 34.2863 420.073 34.4845 420.487 34.8811C420.902 35.2777 421.109 35.841 421.109 36.571C421.109 37.301 420.902 37.8643 420.487 38.2609C420.073 38.6575 419.532 38.8557 418.865 38.8557C418.198 38.8557 417.657 38.6575 417.243 38.2609C416.828 37.8643 416.621 37.301 416.621 36.571ZM418.851 35.6382C418.644 35.6382 418.482 35.7148 418.365 35.868C418.257 36.0212 418.203 36.2556 418.203 36.571C418.203 37.1839 418.419 37.4903 418.851 37.4903C419.059 37.4903 419.221 37.4137 419.338 37.2605C419.455 37.1073 419.514 36.8774 419.514 36.571C419.514 36.2646 419.455 36.0347 419.338 35.8815C419.221 35.7193 419.059 35.6382 418.851 35.6382ZM429.181 38.8017C428.288 38.8017 427.468 38.5944 426.72 38.1798C425.981 37.7652 425.391 37.1884 424.949 36.4493C424.516 35.7013 424.3 34.8631 424.3 33.9348C424.3 33.0064 424.516 32.1728 424.949 31.4337C425.391 30.6947 425.981 30.1178 426.72 29.7033C427.468 29.2887 428.288 29.0814 429.181 29.0814C430.073 29.0814 430.888 29.2887 431.628 29.7033C432.376 30.1178 432.961 30.6947 433.385 31.4337C433.818 32.1728 434.034 33.0064 434.034 33.9348C434.034 34.8631 433.818 35.7013 433.385 36.4493C432.952 37.1884 432.367 37.7652 431.628 38.1798C430.888 38.5944 430.073 38.8017 429.181 38.8017ZM429.181 36.6927C429.938 36.6927 430.541 36.4403 430.992 35.9356C431.452 35.4309 431.682 34.7639 431.682 33.9348C431.682 33.0966 431.452 32.4296 430.992 31.9339C430.541 31.4292 429.938 31.1768 429.181 31.1768C428.414 31.1768 427.802 31.4247 427.342 31.9204C426.891 32.4161 426.666 33.0876 426.666 33.9348C426.666 34.7729 426.891 35.4444 427.342 35.9491C427.802 36.4448 428.414 36.6927 429.181 36.6927ZM441.228 29.2166V31.0687H437.361V33.0695H440.255V34.8676H437.361V38.707H435.05V29.2166H441.228ZM448.351 29.2166V31.0687H444.484V33.0695H447.377V34.8676H444.484V38.707H442.173V29.2166H448.351Z" fill="white"/>
<path d="M103.733 70.1982H99.9669L99.3437 72H97.3522L100.753 62.5302H102.961L106.361 72H104.356L103.733 70.1982ZM103.218 68.6808L101.85 64.7249L100.482 68.6808H103.218ZM109.529 61.9747V72H107.632V61.9747H109.529ZM113.3 61.9747V72H111.403V61.9747H113.3ZM117.914 68.2473C117.914 67.4706 118.072 66.7932 118.388 66.2152C118.704 65.6281 119.142 65.1765 119.702 64.8604C120.262 64.5352 120.904 64.3727 121.626 64.3727C122.556 64.3727 123.324 64.6075 123.929 65.0772C124.543 65.5378 124.954 66.1881 125.162 67.028H123.116C123.008 66.7029 122.823 66.45 122.561 66.2693C122.308 66.0797 121.992 65.9848 121.613 65.9848C121.071 65.9848 120.642 66.1835 120.326 66.5809C120.009 66.9693 119.851 67.5248 119.851 68.2473C119.851 68.9608 120.009 69.5163 120.326 69.9137C120.642 70.302 121.071 70.4962 121.613 70.4962C122.38 70.4962 122.882 70.153 123.116 69.4666H125.162C124.954 70.2794 124.543 70.9252 123.929 71.4039C123.315 71.8826 122.547 72.1219 121.626 72.1219C120.904 72.1219 120.262 71.9639 119.702 71.6478C119.142 71.3226 118.704 70.871 118.388 70.293C118.072 69.7059 117.914 69.024 117.914 68.2473ZM129.884 72.1219C129.162 72.1219 128.511 71.9639 127.933 71.6478C127.355 71.3226 126.899 70.8665 126.565 70.2794C126.24 69.6924 126.077 69.015 126.077 68.2473C126.077 67.4796 126.244 66.8022 126.579 66.2152C126.922 65.6281 127.387 65.1765 127.974 64.8604C128.561 64.5352 129.216 64.3727 129.938 64.3727C130.661 64.3727 131.316 64.5352 131.903 64.8604C132.49 65.1765 132.951 65.6281 133.285 66.2152C133.628 66.8022 133.8 67.4796 133.8 68.2473C133.8 69.015 133.623 69.6924 133.271 70.2794C132.928 70.8665 132.458 71.3226 131.862 71.6478C131.275 71.9639 130.616 72.1219 129.884 72.1219ZM129.884 70.4691C130.227 70.4691 130.548 70.3878 130.846 70.2253C131.153 70.0537 131.397 69.8008 131.578 69.4666C131.758 69.1324 131.849 68.726 131.849 68.2473C131.849 67.5338 131.659 66.9874 131.28 66.608C130.909 66.2197 130.453 66.0255 129.911 66.0255C129.369 66.0255 128.913 66.2197 128.543 66.608C128.182 66.9874 128.001 67.5338 128.001 68.2473C128.001 68.9608 128.177 69.5117 128.529 69.9001C128.891 70.2794 129.342 70.4691 129.884 70.4691ZM142.276 64.4946V72H140.366V71.0517C140.122 71.3768 139.802 71.6342 139.404 71.8239C139.016 72.0045 138.591 72.0948 138.131 72.0948C137.544 72.0948 137.024 71.9729 136.573 71.729C136.121 71.4762 135.764 71.1104 135.502 70.6317C135.25 70.144 135.123 69.5659 135.123 68.8976V64.4946H137.02V68.6266C137.02 69.2227 137.169 69.6834 137.467 70.0085C137.765 70.3246 138.171 70.4827 138.686 70.4827C139.21 70.4827 139.621 70.3246 139.919 70.0085C140.217 69.6834 140.366 69.2227 140.366 68.6266V64.4946H142.276ZM146.044 65.6597C146.288 65.2623 146.604 64.9507 146.993 64.7249C147.39 64.4991 147.842 64.3862 148.347 64.3862V66.3777H147.846C147.25 66.3777 146.798 66.5177 146.491 66.7977C146.193 67.0777 146.044 67.5654 146.044 68.2608V72H144.148V64.4946H146.044V65.6597ZM152.497 72.1219C151.883 72.1219 151.332 72.0135 150.844 71.7968C150.356 71.571 149.968 71.2684 149.679 70.8891C149.399 70.5098 149.246 70.0898 149.218 69.6292H151.129C151.165 69.9182 151.305 70.1575 151.549 70.3472C151.802 70.5369 152.113 70.6317 152.483 70.6317C152.845 70.6317 153.125 70.5594 153.323 70.4149C153.531 70.2704 153.635 70.0853 153.635 69.8595C153.635 69.6156 153.509 69.435 153.256 69.3176C153.012 69.1911 152.619 69.0556 152.077 68.9111C151.517 68.7757 151.056 68.6357 150.695 68.4912C150.343 68.3467 150.036 68.1254 149.774 67.8273C149.521 67.5293 149.395 67.1274 149.395 66.6216C149.395 66.2061 149.512 65.8268 149.747 65.4836C149.991 65.1404 150.334 64.8694 150.776 64.6707C151.228 64.472 151.756 64.3727 152.361 64.3727C153.256 64.3727 153.969 64.5985 154.502 65.0501C155.035 65.4926 155.328 66.0932 155.383 66.8519H153.567C153.54 66.5538 153.414 66.319 153.188 66.1474C152.971 65.9668 152.678 65.8765 152.307 65.8765C151.964 65.8765 151.698 65.9397 151.508 66.0661C151.327 66.1926 151.237 66.3687 151.237 66.5945C151.237 66.8474 151.363 67.0416 151.616 67.177C151.869 67.3035 152.262 67.4344 152.795 67.5699C153.337 67.7054 153.784 67.8454 154.136 67.9899C154.488 68.1344 154.791 68.3602 155.044 68.6673C155.306 68.9653 155.441 69.3627 155.45 69.8595C155.45 70.293 155.328 70.6814 155.085 71.0246C154.85 71.3678 154.507 71.6387 154.055 71.8374C153.612 72.0271 153.093 72.1219 152.497 72.1219ZM163.984 68.0847C163.984 68.3557 163.966 68.5995 163.93 68.8163H158.443C158.488 69.3582 158.678 69.7827 159.012 70.0898C159.347 70.3969 159.757 70.5504 160.245 70.5504C160.95 70.5504 161.451 70.2478 161.749 69.6427H163.795C163.578 70.3653 163.162 70.9613 162.548 71.431C161.934 71.8916 161.18 72.1219 160.286 72.1219C159.563 72.1219 158.913 71.9639 158.335 71.6478C157.766 71.3226 157.319 70.8665 156.994 70.2794C156.678 69.6924 156.52 69.015 156.52 68.2473C156.52 67.4706 156.678 66.7887 156.994 66.2016C157.31 65.6145 157.752 65.163 158.321 64.8468C158.89 64.5307 159.545 64.3727 160.286 64.3727C160.999 64.3727 161.636 64.5262 162.196 64.8333C162.765 65.1404 163.203 65.5784 163.51 66.1474C163.826 66.7074 163.984 67.3532 163.984 68.0847ZM162.02 67.5428C162.011 67.0551 161.835 66.6667 161.492 66.3777C161.148 66.0797 160.728 65.9307 160.232 65.9307C159.762 65.9307 159.365 66.0752 159.039 66.3642C158.723 66.6442 158.529 67.037 158.457 67.5428H162.02ZM168.241 72.1219C167.627 72.1219 167.076 72.0135 166.588 71.7968C166.1 71.571 165.712 71.2684 165.423 70.8891C165.143 70.5098 164.989 70.0898 164.962 69.6292H166.873C166.909 69.9182 167.049 70.1575 167.292 70.3472C167.545 70.5369 167.857 70.6317 168.227 70.6317C168.589 70.6317 168.869 70.5594 169.067 70.4149C169.275 70.2704 169.379 70.0853 169.379 69.8595C169.379 69.6156 169.252 69.435 168.999 69.3176C168.756 69.1911 168.363 69.0556 167.821 68.9111C167.261 68.7757 166.8 68.6357 166.439 68.4912C166.087 68.3467 165.78 68.1254 165.518 67.8273C165.265 67.5293 165.138 67.1274 165.138 66.6216C165.138 66.2061 165.256 65.8268 165.491 65.4836C165.735 65.1404 166.078 64.8694 166.52 64.6707C166.972 64.472 167.5 64.3727 168.105 64.3727C168.999 64.3727 169.713 64.5985 170.246 65.0501C170.779 65.4926 171.072 66.0932 171.126 66.8519H169.311C169.284 66.5538 169.158 66.319 168.932 66.1474C168.715 65.9668 168.421 65.8765 168.051 65.8765C167.708 65.8765 167.442 65.9397 167.252 66.0661C167.071 66.1926 166.981 66.3687 166.981 66.5945C166.981 66.8474 167.107 67.0416 167.36 67.177C167.613 67.3035 168.006 67.4344 168.539 67.5699C169.081 67.7054 169.528 67.8454 169.88 67.9899C170.232 68.1344 170.535 68.3602 170.788 68.6673C171.05 68.9653 171.185 69.3627 171.194 69.8595C171.194 70.293 171.072 70.6814 170.828 71.0246C170.594 71.3678 170.25 71.6387 169.799 71.8374C169.356 72.0271 168.837 72.1219 168.241 72.1219ZM175.492 68.2202C175.492 67.4615 175.641 66.7887 175.939 66.2016C176.246 65.6145 176.657 65.163 177.171 64.8468C177.695 64.5307 178.278 64.3727 178.919 64.3727C179.479 64.3727 179.967 64.4856 180.382 64.7114C180.807 64.9372 181.145 65.2217 181.398 65.5649V64.4946H183.309V72H181.398V70.9026C181.154 71.2549 180.816 71.5484 180.382 71.7832C179.958 72.009 179.466 72.1219 178.906 72.1219C178.273 72.1219 177.695 71.9594 177.171 71.6342C176.657 71.3091 176.246 70.853 175.939 70.2659C175.641 69.6698 175.492 68.9879 175.492 68.2202ZM181.398 68.2473C181.398 67.7867 181.308 67.3938 181.127 67.0687C180.947 66.7345 180.703 66.4816 180.396 66.31C180.089 66.1294 179.759 66.039 179.407 66.039C179.055 66.039 178.729 66.1248 178.431 66.2964C178.133 66.468 177.89 66.7209 177.7 67.0551C177.519 67.3803 177.429 67.7686 177.429 68.2202C177.429 68.6718 177.519 69.0692 177.7 69.4124C177.89 69.7466 178.133 70.004 178.431 70.1846C178.738 70.3653 179.064 70.4556 179.407 70.4556C179.759 70.4556 180.089 70.3698 180.396 70.1982C180.703 70.0175 180.947 69.7646 181.127 69.4395C181.308 69.1053 181.398 68.7079 181.398 68.2473ZM187.369 66.0526V69.6834C187.369 69.9362 187.428 70.1214 187.545 70.2388C187.672 70.3472 187.88 70.4014 188.169 70.4014H189.049V72H187.857C186.258 72 185.459 71.2233 185.459 69.6698V66.0526H184.565V64.4946H185.459V62.6386H187.369V64.4946H189.049V66.0526H187.369ZM258.834 68.0034H256.273V70.6317H254.485V68.0034H251.924V66.3506H254.485V63.7224H256.273V66.3506H258.834V68.0034ZM266.313 66.0526V69.6834C266.313 69.9362 266.372 70.1214 266.49 70.2388C266.616 70.3472 266.824 70.4014 267.113 70.4014H267.993V72H266.801C265.202 72 264.403 71.2233 264.403 69.6698V66.0526H263.509V64.4946H264.403V62.6386H266.313V64.4946H267.993V66.0526H266.313ZM268.87 68.2202C268.87 67.4615 269.019 66.7887 269.317 66.2016C269.624 65.6145 270.035 65.163 270.55 64.8468C271.074 64.5307 271.656 64.3727 272.297 64.3727C272.857 64.3727 273.345 64.4856 273.76 64.7114C274.185 64.9372 274.524 65.2217 274.777 65.5649V64.4946H276.687V72H274.777V70.9026C274.533 71.2549 274.194 71.5484 273.76 71.7832C273.336 72.009 272.844 72.1219 272.284 72.1219C271.652 72.1219 271.074 71.9594 270.55 71.6342C270.035 71.3091 269.624 70.853 269.317 70.2659C269.019 69.6698 268.87 68.9879 268.87 68.2202ZM274.777 68.2473C274.777 67.7867 274.686 67.3938 274.506 67.0687C274.325 66.7345 274.081 66.4816 273.774 66.31C273.467 66.1294 273.137 66.039 272.785 66.039C272.433 66.039 272.108 66.1248 271.81 66.2964C271.512 66.468 271.268 66.7209 271.078 67.0551C270.897 67.3803 270.807 67.7686 270.807 68.2202C270.807 68.6718 270.897 69.0692 271.078 69.4124C271.268 69.7466 271.512 70.004 271.81 70.1846C272.117 70.3653 272.442 70.4556 272.785 70.4556C273.137 70.4556 273.467 70.3698 273.774 70.1982C274.081 70.0175 274.325 69.7646 274.506 69.4395C274.686 69.1053 274.777 68.7079 274.777 68.2473ZM282.685 72L281.14 69.6698L279.772 72H277.74L280.192 68.2338L277.713 64.4946H279.853L281.384 66.8113L282.766 64.4946H284.798L282.333 68.2338L284.825 72H282.685ZM292.832 68.0847C292.832 68.3557 292.814 68.5995 292.778 68.8163H287.291C287.337 69.3582 287.526 69.7827 287.86 70.0898C288.195 70.3969 288.606 70.5504 289.093 70.5504C289.798 70.5504 290.299 70.2478 290.597 69.6427H292.643C292.426 70.3653 292.011 70.9613 291.396 71.431C290.782 71.8916 290.028 72.1219 289.134 72.1219C288.411 72.1219 287.761 71.9639 287.183 71.6478C286.614 71.3226 286.167 70.8665 285.842 70.2794C285.526 69.6924 285.368 69.015 285.368 68.2473C285.368 67.4706 285.526 66.7887 285.842 66.2016C286.158 65.6145 286.601 65.163 287.17 64.8468C287.739 64.5307 288.393 64.3727 289.134 64.3727C289.847 64.3727 290.484 64.5262 291.044 64.8333C291.613 65.1404 292.051 65.5784 292.358 66.1474C292.674 66.7074 292.832 67.3532 292.832 68.0847ZM290.868 67.5428C290.859 67.0551 290.683 66.6667 290.34 66.3777C289.997 66.0797 289.577 65.9307 289.08 65.9307C288.61 65.9307 288.213 66.0752 287.888 66.3642C287.571 66.6442 287.377 67.037 287.305 67.5428H290.868ZM297.089 72.1219C296.475 72.1219 295.924 72.0135 295.436 71.7968C294.948 71.571 294.56 71.2684 294.271 70.8891C293.991 70.5098 293.838 70.0898 293.81 69.6292H295.721C295.757 69.9182 295.897 70.1575 296.141 70.3472C296.394 70.5369 296.705 70.6317 297.075 70.6317C297.437 70.6317 297.717 70.5594 297.915 70.4149C298.123 70.2704 298.227 70.0853 298.227 69.8595C298.227 69.6156 298.101 69.435 297.848 69.3176C297.604 69.1911 297.211 69.0556 296.669 68.9111C296.109 68.7757 295.648 68.6357 295.287 68.4912C294.935 68.3467 294.628 68.1254 294.366 67.8273C294.113 67.5293 293.987 67.1274 293.987 66.6216C293.987 66.2061 294.104 65.8268 294.339 65.4836C294.583 65.1404 294.926 64.8694 295.368 64.6707C295.82 64.472 296.348 64.3727 296.954 64.3727C297.848 64.3727 298.561 64.5985 299.094 65.0501C299.627 65.4926 299.92 66.0932 299.975 66.8519H298.159C298.132 66.5538 298.006 66.319 297.78 66.1474C297.563 65.9668 297.27 65.8765 296.899 65.8765C296.556 65.8765 296.29 65.9397 296.1 66.0661C295.919 66.1926 295.829 66.3687 295.829 66.5945C295.829 66.8474 295.956 67.0416 296.208 67.177C296.461 67.3035 296.854 67.4344 297.387 67.5699C297.929 67.7054 298.376 67.8454 298.728 67.9899C299.08 68.1344 299.383 68.3602 299.636 68.6673C299.898 68.9653 300.033 69.3627 300.042 69.8595C300.042 70.293 299.92 70.6814 299.677 71.0246C299.442 71.3678 299.099 71.6387 298.647 71.8374C298.204 72.0271 297.685 72.1219 297.089 72.1219ZM311.804 68.0847C311.804 68.3557 311.786 68.5995 311.75 68.8163H306.263C306.309 69.3582 306.498 69.7827 306.832 70.0898C307.167 70.3969 307.578 70.5504 308.065 70.5504C308.77 70.5504 309.271 70.2478 309.569 69.6427H311.615C311.398 70.3653 310.983 70.9613 310.368 71.431C309.754 71.8916 309 72.1219 308.106 72.1219C307.383 72.1219 306.733 71.9639 306.155 71.6478C305.586 71.3226 305.139 70.8665 304.814 70.2794C304.498 69.6924 304.34 69.015 304.34 68.2473C304.34 67.4706 304.498 66.7887 304.814 66.2016C305.13 65.6145 305.573 65.163 306.142 64.8468C306.711 64.5307 307.365 64.3727 308.106 64.3727C308.819 64.3727 309.456 64.5262 310.016 64.8333C310.585 65.1404 311.023 65.5784 311.33 66.1474C311.646 66.7074 311.804 67.3532 311.804 68.0847ZM309.84 67.5428C309.831 67.0551 309.655 66.6667 309.312 66.3777C308.969 66.0797 308.549 65.9307 308.052 65.9307C307.582 65.9307 307.185 66.0752 306.86 66.3642C306.543 66.6442 306.349 67.037 306.277 67.5428H309.84ZM317.334 72L315.79 69.6698L314.422 72H312.39L314.842 68.2338L312.362 64.4946H314.503L316.034 66.8113L317.416 64.4946H319.448L316.982 68.2338L319.475 72H317.334ZM322.402 65.5784C322.646 65.2352 322.98 64.9507 323.404 64.7249C323.838 64.4901 324.33 64.3727 324.881 64.3727C325.522 64.3727 326.1 64.5307 326.615 64.8468C327.139 65.163 327.55 65.6145 327.848 66.2016C328.155 66.7796 328.309 67.4525 328.309 68.2202C328.309 68.9879 328.155 69.6698 327.848 70.2659C327.55 70.853 327.139 71.3091 326.615 71.6342C326.1 71.9594 325.522 72.1219 324.881 72.1219C324.33 72.1219 323.842 72.009 323.418 71.7832C323.002 71.5574 322.664 71.2729 322.402 70.9297V75.5766H320.505V64.4946H322.402V65.5784ZM326.371 68.2202C326.371 67.7686 326.276 67.3803 326.087 67.0551C325.906 66.7209 325.662 66.468 325.355 66.2964C325.057 66.1248 324.732 66.039 324.38 66.039C324.037 66.039 323.711 66.1294 323.404 66.31C323.106 66.4816 322.862 66.7345 322.673 67.0687C322.492 67.4028 322.402 67.7957 322.402 68.2473C322.402 68.6989 322.492 69.0918 322.673 69.4259C322.862 69.7601 323.106 70.0175 323.404 70.1982C323.711 70.3698 324.037 70.4556 324.38 70.4556C324.732 70.4556 325.057 70.3653 325.355 70.1846C325.662 70.004 325.906 69.7466 326.087 69.4124C326.276 69.0782 326.371 68.6808 326.371 68.2202ZM330.649 63.6005C330.315 63.6005 330.035 63.4966 329.809 63.2889C329.592 63.0721 329.484 62.8057 329.484 62.4896C329.484 62.1734 329.592 61.9115 329.809 61.7038C330.035 61.487 330.315 61.3786 330.649 61.3786C330.983 61.3786 331.258 61.487 331.475 61.7038C331.701 61.9115 331.814 62.1734 331.814 62.4896C331.814 62.8057 331.701 63.0721 331.475 63.2889C331.258 63.4966 330.983 63.6005 330.649 63.6005ZM331.584 64.4946V72H329.687V64.4946H331.584ZM335.354 65.6597C335.598 65.2623 335.914 64.9507 336.302 64.7249C336.7 64.4991 337.151 64.3862 337.657 64.3862V66.3777H337.156C336.56 66.3777 336.108 66.5177 335.801 66.7977C335.503 67.0777 335.354 67.5654 335.354 68.2608V72H333.457V64.4946H335.354V65.6597ZM339.897 63.6005C339.562 63.6005 339.282 63.4966 339.057 63.2889C338.84 63.0721 338.731 62.8057 338.731 62.4896C338.731 62.1734 338.84 61.9115 339.057 61.7038C339.282 61.487 339.562 61.3786 339.897 61.3786C340.231 61.3786 340.506 61.487 340.723 61.7038C340.949 61.9115 341.062 62.1734 341.062 62.4896C341.062 62.8057 340.949 63.0721 340.723 63.2889C340.506 63.4966 340.231 63.6005 339.897 63.6005ZM340.831 64.4946V72H338.935V64.4946H340.831ZM346.864 64.3862C347.759 64.3862 348.481 64.6707 349.032 65.2397C349.583 65.7997 349.858 66.5855 349.858 67.597V72H347.962V67.8544C347.962 67.2583 347.813 66.8022 347.515 66.4861C347.217 66.161 346.81 65.9984 346.295 65.9984C345.772 65.9984 345.356 66.161 345.049 66.4861C344.751 66.8022 344.602 67.2583 344.602 67.8544V72H342.705V64.4946H344.602V65.4294C344.855 65.1042 345.175 64.8514 345.564 64.6707C345.961 64.4811 346.395 64.3862 346.864 64.3862ZM354.602 64.3727C355.162 64.3727 355.654 64.4856 356.079 64.7114C356.503 64.9281 356.837 65.2126 357.081 65.5649V64.4946H358.991V72.0542C358.991 72.7496 358.851 73.3683 358.571 73.9102C358.291 74.4612 357.871 74.8947 357.311 75.2108C356.751 75.5359 356.074 75.6985 355.279 75.6985C354.214 75.6985 353.337 75.4501 352.651 74.9534C351.974 74.4566 351.59 73.7793 351.5 72.9212H353.383C353.482 73.2644 353.694 73.5354 354.019 73.7341C354.354 73.9418 354.755 74.0457 355.225 74.0457C355.776 74.0457 356.223 73.8786 356.566 73.5444C356.91 73.2193 357.081 72.7225 357.081 72.0542V70.8891C356.837 71.2413 356.499 71.5349 356.065 71.7697C355.641 72.0045 355.153 72.1219 354.602 72.1219C353.97 72.1219 353.392 71.9594 352.868 71.6342C352.344 71.3091 351.929 70.853 351.621 70.2659C351.323 69.6698 351.174 68.9879 351.174 68.2202C351.174 67.4615 351.323 66.7887 351.621 66.2016C351.929 65.6145 352.339 65.163 352.854 64.8468C353.378 64.5307 353.961 64.3727 354.602 64.3727ZM357.081 68.2473C357.081 67.7867 356.991 67.3938 356.81 67.0687C356.63 66.7345 356.386 66.4816 356.079 66.31C355.772 66.1294 355.442 66.039 355.09 66.039C354.737 66.039 354.412 66.1248 354.114 66.2964C353.816 66.468 353.572 66.7209 353.383 67.0551C353.202 67.3803 353.112 67.7686 353.112 68.2202C353.112 68.6718 353.202 69.0692 353.383 69.4124C353.572 69.7466 353.816 70.004 354.114 70.1846C354.421 70.3653 354.746 70.4556 355.09 70.4556C355.442 70.4556 355.772 70.3698 356.079 70.1982C356.386 70.0175 356.63 69.7646 356.81 69.4395C356.991 69.1053 357.081 68.7079 357.081 68.2473ZM366.944 72.1219C366.33 72.1219 365.779 72.0135 365.291 71.7968C364.804 71.571 364.415 71.2684 364.126 70.8891C363.846 70.5098 363.693 70.0898 363.666 69.6292H365.576C365.612 69.9182 365.752 70.1575 365.996 70.3472C366.249 70.5369 366.56 70.6317 366.93 70.6317C367.292 70.6317 367.572 70.5594 367.77 70.4149C367.978 70.2704 368.082 70.0853 368.082 69.8595C368.082 69.6156 367.956 69.435 367.703 69.3176C367.459 69.1911 367.066 69.0556 366.524 68.9111C365.964 68.7757 365.503 68.6357 365.142 68.4912C364.79 68.3467 364.483 68.1254 364.221 67.8273C363.968 67.5293 363.842 67.1274 363.842 66.6216C363.842 66.2061 363.959 65.8268 364.194 65.4836C364.438 65.1404 364.781 64.8694 365.223 64.6707C365.675 64.472 366.203 64.3727 366.809 64.3727C367.703 64.3727 368.416 64.5985 368.949 65.0501C369.482 65.4926 369.775 66.0932 369.83 66.8519H368.014C367.987 66.5538 367.861 66.319 367.635 66.1474C367.418 65.9668 367.125 65.8765 366.754 65.8765C366.411 65.8765 366.145 65.9397 365.955 66.0661C365.774 66.1926 365.684 66.3687 365.684 66.5945C365.684 66.8474 365.811 67.0416 366.063 67.177C366.316 67.3035 366.709 67.4344 367.242 67.5699C367.784 67.7054 368.231 67.8454 368.583 67.9899C368.936 68.1344 369.238 68.3602 369.491 68.6673C369.753 68.9653 369.888 69.3627 369.897 69.8595C369.897 70.293 369.775 70.6814 369.532 71.0246C369.297 71.3678 368.954 71.6387 368.502 71.8374C368.059 72.0271 367.54 72.1219 366.944 72.1219ZM374.787 72.1219C374.065 72.1219 373.414 71.9639 372.836 71.6478C372.258 71.3226 371.802 70.8665 371.468 70.2794C371.143 69.6924 370.98 69.015 370.98 68.2473C370.98 67.4796 371.147 66.8022 371.481 66.2152C371.825 65.6281 372.29 65.1765 372.877 64.8604C373.464 64.5352 374.119 64.3727 374.841 64.3727C375.564 64.3727 376.219 64.5352 376.806 64.8604C377.393 65.1765 377.853 65.6281 378.188 66.2152C378.531 66.8022 378.702 67.4796 378.702 68.2473C378.702 69.015 378.526 69.6924 378.174 70.2794C377.831 70.8665 377.361 71.3226 376.765 71.6478C376.178 71.9639 375.519 72.1219 374.787 72.1219ZM374.787 70.4691C375.13 70.4691 375.451 70.3878 375.749 70.2253C376.056 70.0537 376.3 69.8008 376.481 69.4666C376.661 69.1324 376.751 68.726 376.751 68.2473C376.751 67.5338 376.562 66.9874 376.182 66.608C375.812 66.2197 375.356 66.0255 374.814 66.0255C374.272 66.0255 373.816 66.2197 373.446 66.608C373.085 66.9874 372.904 67.5338 372.904 68.2473C372.904 68.9608 373.08 69.5117 373.432 69.9001C373.794 70.2794 374.245 70.4691 374.787 70.4691ZM383.426 72.1219C382.704 72.1219 382.053 71.9639 381.475 71.6478C380.897 71.3226 380.441 70.8665 380.107 70.2794C379.782 69.6924 379.619 69.015 379.619 68.2473C379.619 67.4796 379.787 66.8022 380.121 66.2152C380.464 65.6281 380.929 65.1765 381.516 64.8604C382.103 64.5352 382.758 64.3727 383.481 64.3727C384.203 64.3727 384.858 64.5352 385.445 64.8604C386.032 65.1765 386.493 65.6281 386.827 66.2152C387.17 66.8022 387.342 67.4796 387.342 68.2473C387.342 69.015 387.165 69.6924 386.813 70.2794C386.47 70.8665 386 71.3226 385.404 71.6478C384.817 71.9639 384.158 72.1219 383.426 72.1219ZM383.426 70.4691C383.77 70.4691 384.09 70.3878 384.388 70.2253C384.695 70.0537 384.939 69.8008 385.12 69.4666C385.3 69.1324 385.391 68.726 385.391 68.2473C385.391 67.5338 385.201 66.9874 384.822 66.608C384.451 66.2197 383.995 66.0255 383.453 66.0255C382.912 66.0255 382.455 66.2197 382.085 66.608C381.724 66.9874 381.543 67.5338 381.543 68.2473C381.543 68.9608 381.719 69.5117 382.072 69.9001C382.433 70.2794 382.884 70.4691 383.426 70.4691ZM392.892 64.3862C393.786 64.3862 394.509 64.6707 395.06 65.2397C395.611 65.7997 395.886 66.5855 395.886 67.597V72H393.989V67.8544C393.989 67.2583 393.84 66.8022 393.542 66.4861C393.244 66.161 392.838 65.9984 392.323 65.9984C391.799 65.9984 391.384 66.161 391.077 66.4861C390.779 66.8022 390.63 67.2583 390.63 67.8544V72H388.733V64.4946H390.63V65.4294C390.882 65.1042 391.203 64.8514 391.591 64.6707C391.989 64.4811 392.422 64.3862 392.892 64.3862ZM400.142 62.3812L399.925 68.9247H398.326L398.096 62.3812H400.142ZM399.166 72.0948C398.823 72.0948 398.539 71.991 398.313 71.7832C398.096 71.5665 397.988 71.3 397.988 70.9839C397.988 70.6678 398.096 70.4059 398.313 70.1982C398.539 69.9814 398.823 69.873 399.166 69.873C399.501 69.873 399.776 69.9814 399.993 70.1982C400.21 70.4059 400.318 70.6678 400.318 70.9839C400.318 71.3 400.21 71.5665 399.993 71.7832C399.776 71.991 399.501 72.0948 399.166 72.0948Z" fill="#FFDCD0"/>
<path d="M204.448 62.2761V63.5766H206.29V65.831H204.318C204.087 67.1171 203.523 68.0997 202.627 68.7789C201.731 69.4437 200.423 69.776 198.704 69.776V70.6431C198.704 71.2067 198.812 71.6474 199.029 71.9653C199.246 72.2688 199.621 72.4205 200.156 72.4205C200.662 72.4205 201.023 72.2688 201.24 71.9653C201.457 71.6619 201.565 71.2067 201.565 70.5997H204.99C204.932 72.0593 204.499 73.1936 203.689 74.0029C202.894 74.8121 201.746 75.2168 200.243 75.2168C198.624 75.2168 197.381 74.7977 196.514 73.9595C195.662 73.1069 195.236 71.8353 195.236 70.1445V67.3483C196.738 67.3483 197.844 67.3194 198.552 67.2616C199.275 67.1893 199.809 67.052 200.156 66.8497C200.517 66.633 200.756 66.2934 200.871 65.831H194.824V63.5766H200.98V62.2761H194.824V59.7833H206.29V62.2761H204.448ZM208.06 63.6417C208.118 62.0954 208.624 60.9032 209.578 60.0651C210.532 59.2269 211.825 58.8079 213.458 58.8079C214.542 58.8079 215.466 58.9957 216.232 59.3714C217.013 59.7472 217.598 60.2602 217.988 60.9104C218.393 61.5607 218.595 62.2905 218.595 63.0997C218.595 64.0535 218.357 64.8338 217.88 65.4408C217.403 66.0333 216.847 66.4379 216.211 66.6546V66.7414C217.034 67.0159 217.685 67.4711 218.162 68.107C218.638 68.7428 218.877 69.5593 218.877 70.5564C218.877 71.4523 218.667 72.2471 218.248 72.9408C217.844 73.6199 217.244 74.1546 216.449 74.5448C215.669 74.935 214.737 75.1301 213.653 75.1301C211.919 75.1301 210.532 74.7038 209.491 73.8512C208.465 72.9986 207.923 71.7124 207.865 69.9928H211.464C211.478 70.6286 211.659 71.1344 212.005 71.5101C212.352 71.8714 212.858 72.052 213.523 72.052C214.086 72.052 214.52 71.8931 214.823 71.5752C215.141 71.2428 215.3 70.8093 215.3 70.2746C215.3 69.5809 215.076 69.0824 214.628 68.7789C214.195 68.461 213.494 68.302 212.526 68.302H211.832V65.289H212.526C213.263 65.289 213.855 65.1662 214.303 64.9206C214.766 64.6604 214.997 64.2052 214.997 63.5549C214.997 63.0347 214.852 62.6301 214.563 62.3411C214.274 62.0521 213.877 61.9076 213.371 61.9076C212.822 61.9076 212.41 62.0737 212.136 62.4061C211.875 62.7385 211.724 63.1503 211.68 63.6417H208.06ZM228.88 63.4466C228.764 62.9119 228.562 62.5145 228.273 62.2544C227.984 61.9798 227.572 61.8425 227.037 61.8425C226.214 61.8425 225.621 62.2038 225.26 62.9263C224.899 63.6344 224.711 64.7616 224.696 66.3078C225.014 65.8021 225.469 65.4047 226.062 65.1156C226.669 64.8266 227.334 64.6821 228.056 64.6821C229.472 64.6821 230.607 65.1301 231.459 66.026C232.326 66.922 232.76 68.172 232.76 69.776C232.76 70.8309 232.543 71.7558 232.11 72.5506C231.69 73.3454 231.069 73.9668 230.245 74.4147C229.436 74.8627 228.475 75.0867 227.362 75.0867C225.137 75.0867 223.591 74.3931 222.724 73.0058C221.857 71.6041 221.423 69.5954 221.423 66.9798C221.423 64.2341 221.878 62.1966 222.789 60.8671C223.714 59.5232 225.188 58.8512 227.211 58.8512C228.295 58.8512 229.205 59.068 229.942 59.5015C230.693 59.9206 231.257 60.4769 231.633 61.1706C232.023 61.8642 232.254 62.6229 232.326 63.4466H228.88ZM227.167 67.6084C226.546 67.6084 226.026 67.7963 225.607 68.172C225.202 68.5333 225 69.0535 225 69.7327C225 70.4263 225.188 70.9682 225.563 71.3584C225.953 71.7486 226.503 71.9437 227.211 71.9437C227.847 71.9437 228.345 71.7558 228.706 71.3801C229.082 70.9899 229.27 70.4624 229.27 69.7977C229.27 69.1185 229.089 68.5838 228.728 68.1937C228.367 67.8035 227.847 67.6084 227.167 67.6084ZM234.856 66.8714C234.856 64.3859 235.333 62.4278 236.287 60.9972C237.255 59.5665 238.809 58.8512 240.947 58.8512C243.086 58.8512 244.632 59.5665 245.586 60.9972C246.554 62.4278 247.038 64.3859 247.038 66.8714C247.038 69.3859 246.554 71.3584 245.586 72.789C244.632 74.2197 243.086 74.935 240.947 74.935C238.809 74.935 237.255 74.2197 236.287 72.789C235.333 71.3584 234.856 69.3859 234.856 66.8714ZM243.397 66.8714C243.397 65.4119 243.238 64.2919 242.92 63.5116C242.602 62.7168 241.944 62.3194 240.947 62.3194C239.95 62.3194 239.293 62.7168 238.975 63.5116C238.657 64.2919 238.498 65.4119 238.498 66.8714C238.498 67.8541 238.556 68.6705 238.671 69.3208C238.787 69.9567 239.018 70.4769 239.365 70.8815C239.726 71.2717 240.254 71.4668 240.947 71.4668C241.641 71.4668 242.161 71.2717 242.508 70.8815C242.869 70.4769 243.108 69.9567 243.223 69.3208C243.339 68.6705 243.397 67.8541 243.397 66.8714Z" fill="url(#paint1_linear_382_39)"/>
<defs>
<linearGradient id="paint0_linear_382_39" x1="421.498" y1="33.9429" x2="421.766" y2="48.1427" gradientUnits="userSpaceOnUse">
<stop stop-color="#F55A47"/>
<stop offset="1" stop-color="#F77B26"/>
</linearGradient>
<linearGradient id="paint1_linear_382_39" x1="221.499" y1="66.989" x2="221.77" y2="79.9498" gradientUnits="userSpaceOnUse">
<stop stop-color="#F55A47"/>
<stop offset="1" stop-color="#F77B26"/>
</linearGradient>
</defs>
</svg>
