<svg width="1400" height="73" viewBox="0 0 1400 73" fill="none" xmlns="http://www.w3.org/2000/svg">
<rect width="1400" height="73" fill="#160F0D"/>
<path d="M130.689 43.1188C129.569 43.1188 128.539 42.8585 127.599 42.3379C126.671 41.8172 125.93 41.0928 125.375 40.1647C124.832 39.2253 124.56 38.1727 124.56 37.0068C124.56 35.841 124.832 34.7941 125.375 33.866C125.93 32.9378 126.671 32.2135 127.599 31.6928C128.539 31.1721 129.569 30.9118 130.689 30.9118C131.81 30.9118 132.834 31.1721 133.762 31.6928C134.702 32.2135 135.437 32.9378 135.969 33.866C136.513 34.7941 136.784 35.841 136.784 37.0068C136.784 38.1727 136.513 39.2253 135.969 40.1647C135.426 41.0928 134.69 41.8172 133.762 42.3379C132.834 42.8585 131.81 43.1188 130.689 43.1188ZM130.689 40.4703C131.64 40.4703 132.398 40.1534 132.964 39.5196C133.542 38.8857 133.83 38.0481 133.83 37.0068C133.83 35.9542 133.542 35.1167 132.964 34.4941C132.398 33.8603 131.64 33.5434 130.689 33.5434C129.727 33.5434 128.958 33.8546 128.38 34.4772C127.814 35.0997 127.531 35.9429 127.531 37.0068C127.531 38.0595 127.814 38.9027 128.38 39.5365C128.958 40.1591 129.727 40.4703 130.689 40.4703ZM144.172 33.4245C145.281 33.4245 146.164 33.7867 146.82 34.5111C147.488 35.2242 147.822 36.2089 147.822 37.4652V43H144.936V37.8557C144.936 37.2219 144.772 36.7295 144.443 36.3787C144.115 36.0278 143.674 35.8524 143.119 35.8524C142.565 35.8524 142.123 36.0278 141.795 36.3787C141.467 36.7295 141.303 37.2219 141.303 37.8557V43H138.399V33.5264H141.303V34.7828C141.597 34.364 141.993 34.0357 142.491 33.798C142.989 33.549 143.549 33.4245 144.172 33.4245ZM158.77 38.1104C158.77 38.382 158.753 38.665 158.719 38.9593H152.148C152.194 39.5479 152.381 40.0006 152.709 40.3175C153.048 40.6231 153.461 40.7759 153.948 40.7759C154.673 40.7759 155.176 40.4703 155.459 39.8591H158.549C158.391 40.4816 158.102 41.0419 157.683 41.5399C157.276 42.0379 156.761 42.4284 156.138 42.7114C155.516 42.9943 154.82 43.1358 154.05 43.1358C153.122 43.1358 152.296 42.9377 151.571 42.5416C150.847 42.1455 150.281 41.5795 149.873 40.8438C149.466 40.1081 149.262 39.2479 149.262 38.2632C149.262 37.2785 149.46 36.4183 149.856 35.6826C150.264 34.9469 150.83 34.3809 151.554 33.9848C152.279 33.5887 153.111 33.3906 154.05 33.3906C154.967 33.3906 155.782 33.583 156.495 33.9678C157.208 34.3527 157.762 34.9016 158.159 35.6147C158.566 36.3277 158.77 37.1596 158.77 38.1104ZM155.799 37.3464C155.799 36.8484 155.629 36.4522 155.289 36.158C154.95 35.8637 154.525 35.7165 154.016 35.7165C153.529 35.7165 153.116 35.858 152.777 36.141C152.448 36.4239 152.245 36.8257 152.165 37.3464H155.799ZM163.322 38.2462C163.322 37.2728 163.503 36.4183 163.865 35.6826C164.239 34.9469 164.742 34.3809 165.376 33.9848C166.01 33.5887 166.718 33.3906 167.499 33.3906C168.121 33.3906 168.687 33.5207 169.196 33.7811C169.717 34.0414 170.124 34.3923 170.419 34.8337V30.4364H173.322V43H170.419V41.6418C170.147 42.0945 169.757 42.4567 169.247 42.7284C168.749 43 168.166 43.1358 167.499 43.1358C166.718 43.1358 166.01 42.9377 165.376 42.5416C164.742 42.1341 164.239 41.5625 163.865 40.8268C163.503 40.0798 163.322 39.2196 163.322 38.2462ZM170.419 38.2632C170.419 37.5388 170.215 36.9672 169.808 36.5484C169.411 36.1297 168.925 35.9203 168.347 35.9203C167.77 35.9203 167.278 36.1297 166.87 36.5484C166.474 36.9559 166.276 37.5218 166.276 38.2462C166.276 38.9706 166.474 39.5479 166.87 39.978C167.278 40.3967 167.77 40.6061 168.347 40.6061C168.925 40.6061 169.411 40.3967 169.808 39.978C170.215 39.5592 170.419 38.9876 170.419 38.2632ZM174.845 38.2462C174.845 37.2728 175.026 36.4183 175.388 35.6826C175.762 34.9469 176.265 34.3809 176.899 33.9848C177.533 33.5887 178.241 33.3906 179.022 33.3906C179.689 33.3906 180.272 33.5264 180.77 33.798C181.28 34.0697 181.67 34.4262 181.942 34.8676V33.5264H184.845V43H181.942V41.6588C181.659 42.1002 181.263 42.4567 180.753 42.7284C180.255 43 179.672 43.1358 179.005 43.1358C178.235 43.1358 177.533 42.9377 176.899 42.5416C176.265 42.1341 175.762 41.5625 175.388 40.8268C175.026 40.0798 174.845 39.2196 174.845 38.2462ZM181.942 38.2632C181.942 37.5388 181.738 36.9672 181.331 36.5484C180.934 36.1297 180.448 35.9203 179.87 35.9203C179.293 35.9203 178.801 36.1297 178.393 36.5484C177.997 36.9559 177.799 37.5218 177.799 38.2462C177.799 38.9706 177.997 39.5479 178.393 39.978C178.801 40.3967 179.293 40.6061 179.87 40.6061C180.448 40.6061 180.934 40.3967 181.331 39.978C181.738 39.5592 181.942 38.9876 181.942 38.2632ZM196.623 33.5264L190.68 47.4991H187.556L189.73 42.6774L185.876 33.5264H189.118L191.309 39.4516L193.482 33.5264H196.623ZM205.583 43.1358C204.654 43.1358 203.817 42.9377 203.07 42.5416C202.334 42.1455 201.751 41.5795 201.321 40.8438C200.902 40.1081 200.693 39.2479 200.693 38.2632C200.693 37.2898 200.908 36.4353 201.338 35.6996C201.768 34.9525 202.357 34.3809 203.104 33.9848C203.851 33.5887 204.688 33.3906 205.617 33.3906C206.545 33.3906 207.382 33.5887 208.129 33.9848C208.876 34.3809 209.465 34.9525 209.895 35.6996C210.325 36.4353 210.54 37.2898 210.54 38.2632C210.54 39.2366 210.319 40.0968 209.878 40.8438C209.448 41.5795 208.854 42.1455 208.095 42.5416C207.348 42.9377 206.511 43.1358 205.583 43.1358ZM205.583 40.6231C206.137 40.6231 206.607 40.4194 206.992 40.0119C207.388 39.6044 207.586 39.0215 207.586 38.2632C207.586 37.5049 207.394 36.922 207.009 36.5145C206.635 36.107 206.171 35.9033 205.617 35.9033C205.051 35.9033 204.581 36.107 204.207 36.5145C203.834 36.9106 203.647 37.4935 203.647 38.2632C203.647 39.0215 203.828 39.6044 204.19 40.0119C204.564 40.4194 205.028 40.6231 205.583 40.6231ZM214.984 35.1053C215.323 34.5847 215.748 34.1772 216.257 33.8829C216.766 33.5773 217.332 33.4245 217.955 33.4245V36.4975H217.157C216.432 36.4975 215.889 36.656 215.527 36.9729C215.165 37.2785 214.984 37.8218 214.984 38.6028V43H212.08V33.5264H214.984V35.1053ZM315.138 43.1188C314.345 43.1188 313.632 42.983 312.998 42.7114C312.365 42.4284 311.866 42.0323 311.504 41.5229C311.142 41.0136 310.961 40.4194 310.961 39.7403H313.032C313.078 40.2496 313.276 40.6684 313.627 40.9966C313.989 41.3249 314.492 41.489 315.138 41.489C315.805 41.489 316.326 41.3305 316.7 41.0136C317.073 40.6854 317.26 40.2666 317.26 39.7572C317.26 39.3611 317.141 39.0385 316.903 38.7895C316.677 38.5405 316.388 38.3481 316.037 38.2123C315.698 38.0764 315.222 37.9293 314.611 37.7708C313.842 37.5671 313.213 37.3634 312.727 37.1596C312.251 36.9446 311.844 36.6164 311.504 36.1749C311.165 35.7335 310.995 35.1449 310.995 34.4092C310.995 33.7301 311.165 33.1359 311.504 32.6266C311.844 32.1172 312.319 31.7268 312.93 31.4551C313.542 31.1835 314.249 31.0476 315.053 31.0476C316.196 31.0476 317.13 31.3363 317.854 31.9135C318.59 32.4794 318.997 33.2604 319.076 34.2564H316.937C316.903 33.8263 316.7 33.4585 316.326 33.1529C315.952 32.8473 315.46 32.6945 314.849 32.6945C314.294 32.6945 313.842 32.836 313.491 33.1189C313.14 33.4019 312.964 33.8094 312.964 34.3413C312.964 34.7035 313.072 35.0035 313.287 35.2412C313.513 35.4675 313.796 35.6486 314.136 35.7844C314.475 35.9203 314.939 36.0674 315.528 36.2259C316.309 36.4409 316.943 36.656 317.43 36.871C317.928 37.0861 318.346 37.42 318.686 37.8727C319.037 38.3141 319.212 38.9084 319.212 39.6554C319.212 40.2553 319.048 40.8212 318.72 41.3532C318.403 41.8851 317.933 42.3152 317.311 42.6435C316.7 42.9604 315.975 43.1188 315.138 43.1188ZM323.754 35.2242V40.4024C323.754 40.7533 323.833 41.0079 323.992 41.1664C324.162 41.3135 324.444 41.3871 324.841 41.3871H326.029V43H324.501C323.63 43 322.962 42.7963 322.498 42.3888C322.034 41.9813 321.802 41.3192 321.802 40.4024V35.2242H320.698V33.6452H321.802V31.3193H323.754V33.6452H326.029V35.2242H323.754ZM327.168 38.2802C327.168 37.3407 327.36 36.5088 327.745 35.7844C328.141 35.0601 328.673 34.4998 329.341 34.1036C330.02 33.6962 330.767 33.4924 331.582 33.4924C332.318 33.4924 332.957 33.6396 333.5 33.9339C334.055 34.2168 334.497 34.5734 334.825 35.0035V33.6452H336.777V43H334.825V41.6078C334.497 42.0492 334.049 42.4171 333.483 42.7114C332.918 43.0057 332.272 43.1528 331.548 43.1528C330.744 43.1528 330.009 42.9491 329.341 42.5416C328.673 42.1228 328.141 41.5456 327.745 40.8099C327.36 40.0628 327.168 39.2196 327.168 38.2802ZM334.825 38.3141C334.825 37.669 334.689 37.1087 334.417 36.6333C334.157 36.158 333.812 35.7958 333.382 35.5468C332.952 35.2977 332.487 35.1732 331.989 35.1732C331.491 35.1732 331.027 35.2977 330.597 35.5468C330.167 35.7844 329.816 36.141 329.545 36.6164C329.284 37.0804 329.154 37.635 329.154 38.2802C329.154 38.9253 329.284 39.4913 329.545 39.978C329.816 40.4647 330.167 40.8382 330.597 41.0985C331.039 41.3475 331.503 41.472 331.989 41.472C332.487 41.472 332.952 41.3475 333.382 41.0985C333.812 40.8495 334.157 40.4873 334.417 40.0119C334.689 39.5252 334.825 38.9593 334.825 38.3141ZM341.255 35.0035C341.538 34.5281 341.911 34.1602 342.375 33.8999C342.851 33.6283 343.411 33.4924 344.056 33.4924V35.4958H343.564C342.805 35.4958 342.228 35.6882 341.832 36.0731C341.447 36.4579 341.255 37.1257 341.255 38.0764V43H339.319V33.6452H341.255V35.0035ZM348.093 35.2242V40.4024C348.093 40.7533 348.172 41.0079 348.331 41.1664C348.501 41.3135 348.784 41.3871 349.18 41.3871H350.368V43H348.84C347.969 43 347.301 42.7963 346.837 42.3888C346.373 41.9813 346.141 41.3192 346.141 40.4024V35.2242H345.037V33.6452H346.141V31.3193H348.093V33.6452H350.368V35.2242H348.093ZM358.498 35.0204C358.826 34.5903 359.273 34.2281 359.839 33.9339C360.405 33.6396 361.045 33.4924 361.758 33.4924C362.573 33.4924 363.314 33.6962 363.982 34.1036C364.661 34.4998 365.193 35.0601 365.578 35.7844C365.962 36.5088 366.155 37.3407 366.155 38.2802C366.155 39.2196 365.962 40.0628 365.578 40.8099C365.193 41.5456 364.661 42.1228 363.982 42.5416C363.314 42.9491 362.573 43.1528 361.758 43.1528C361.045 43.1528 360.411 43.0113 359.856 42.7284C359.301 42.4341 358.849 42.0719 358.498 41.6418V47.4482H356.562V33.6452H358.498V35.0204ZM364.185 38.2802C364.185 37.635 364.05 37.0804 363.778 36.6164C363.518 36.141 363.167 35.7844 362.725 35.5468C362.295 35.2977 361.831 35.1732 361.333 35.1732C360.846 35.1732 360.382 35.2977 359.941 35.5468C359.511 35.7958 359.16 36.158 358.888 36.6333C358.628 37.1087 358.498 37.669 358.498 38.3141C358.498 38.9593 358.628 39.5252 358.888 40.0119C359.16 40.4873 359.511 40.8495 359.941 41.0985C360.382 41.3475 360.846 41.472 361.333 41.472C361.831 41.472 362.295 41.3475 362.725 41.0985C363.167 40.8382 363.518 40.4647 363.778 39.978C364.05 39.4913 364.185 38.9253 364.185 38.2802ZM370.004 35.0035C370.287 34.5281 370.661 34.1602 371.125 33.8999C371.6 33.6283 372.16 33.4924 372.806 33.4924V35.4958H372.313C371.555 35.4958 370.978 35.6882 370.582 36.0731C370.197 36.4579 370.004 37.1257 370.004 38.0764V43H368.069V33.6452H370.004V35.0035ZM383.158 38.0934C383.158 38.4443 383.136 38.7612 383.091 39.0442H375.943C376 39.7912 376.277 40.3911 376.775 40.8438C377.273 41.2966 377.884 41.5229 378.608 41.5229C379.65 41.5229 380.385 41.0872 380.816 40.2156H382.904C382.621 41.0759 382.106 41.7833 381.359 42.3379C380.623 42.8812 379.706 43.1528 378.608 43.1528C377.714 43.1528 376.911 42.9547 376.198 42.5586C375.496 42.1511 374.941 41.5852 374.534 40.8608C374.138 40.1251 373.94 39.2762 373.94 38.3141C373.94 37.3521 374.132 36.5088 374.517 35.7844C374.913 35.0487 375.462 34.4828 376.164 34.0867C376.877 33.6905 377.692 33.4924 378.608 33.4924C379.491 33.4924 380.278 33.6849 380.968 34.0697C381.659 34.4545 382.196 34.9978 382.581 35.6996C382.966 36.39 383.158 37.1879 383.158 38.0934ZM381.138 37.4822C381.127 36.7692 380.872 36.1976 380.374 35.7675C379.876 35.3374 379.259 35.1223 378.524 35.1223C377.856 35.1223 377.284 35.3374 376.809 35.7675C376.333 36.1863 376.05 36.7578 375.96 37.4822H381.138ZM386.999 35.0204C387.327 34.5903 387.774 34.2281 388.34 33.9339C388.906 33.6396 389.545 33.4924 390.258 33.4924C391.073 33.4924 391.815 33.6962 392.482 34.1036C393.162 34.4998 393.694 35.0601 394.078 35.7844C394.463 36.5088 394.656 37.3407 394.656 38.2802C394.656 39.2196 394.463 40.0628 394.078 40.8099C393.694 41.5456 393.162 42.1228 392.482 42.5416C391.815 42.9491 391.073 43.1528 390.258 43.1528C389.545 43.1528 388.911 43.0113 388.357 42.7284C387.802 42.4341 387.349 42.0719 386.999 41.6418V47.4482H385.063V33.6452H386.999V35.0204ZM392.686 38.2802C392.686 37.635 392.55 37.0804 392.279 36.6164C392.018 36.141 391.668 35.7844 391.226 35.5468C390.796 35.2977 390.332 35.1732 389.834 35.1732C389.347 35.1732 388.883 35.2977 388.442 35.5468C388.012 35.7958 387.661 36.158 387.389 36.6333C387.129 37.1087 386.999 37.669 386.999 38.3141C386.999 38.9593 387.129 39.5252 387.389 40.0119C387.661 40.4873 388.012 40.8495 388.442 41.0985C388.883 41.3475 389.347 41.472 389.834 41.472C390.332 41.472 390.796 41.3475 391.226 41.0985C391.668 40.8382 392.018 40.4647 392.279 39.978C392.55 39.4913 392.686 38.9253 392.686 38.2802ZM395.924 38.2802C395.924 37.3407 396.117 36.5088 396.502 35.7844C396.898 35.0601 397.43 34.4998 398.098 34.1036C398.777 33.6962 399.524 33.4924 400.339 33.4924C401.074 33.4924 401.714 33.6396 402.257 33.9339C402.812 34.2168 403.253 34.5734 403.581 35.0035V33.6452H405.534V43H403.581V41.6078C403.253 42.0492 402.806 42.4171 402.24 42.7114C401.674 43.0057 401.029 43.1528 400.305 43.1528C399.501 43.1528 398.765 42.9491 398.098 42.5416C397.43 42.1228 396.898 41.5456 396.502 40.8099C396.117 40.0628 395.924 39.2196 395.924 38.2802ZM403.581 38.3141C403.581 37.669 403.446 37.1087 403.174 36.6333C402.914 36.158 402.568 35.7958 402.138 35.5468C401.708 35.2977 401.244 35.1732 400.746 35.1732C400.248 35.1732 399.784 35.2977 399.354 35.5468C398.924 35.7844 398.573 36.141 398.301 36.6164C398.041 37.0804 397.911 37.635 397.911 38.2802C397.911 38.9253 398.041 39.4913 398.301 39.978C398.573 40.4647 398.924 40.8382 399.354 41.0985C399.795 41.3475 400.259 41.472 400.746 41.472C401.244 41.472 401.708 41.3475 402.138 41.0985C402.568 40.8495 402.914 40.4873 403.174 40.0119C403.446 39.5252 403.581 38.9593 403.581 38.3141ZM410.011 35.0035C410.294 34.5281 410.668 34.1602 411.132 33.8999C411.607 33.6283 412.168 33.4924 412.813 33.4924V35.4958H412.32C411.562 35.4958 410.985 35.6882 410.589 36.0731C410.204 36.4579 410.011 37.1257 410.011 38.0764V43H408.076V33.6452H410.011V35.0035ZM415.577 32.4059C415.226 32.4059 414.931 32.287 414.694 32.0493C414.456 31.8116 414.337 31.5174 414.337 31.1665C414.337 30.8156 414.456 30.5213 414.694 30.2836C414.931 30.046 415.226 29.9271 415.577 29.9271C415.916 29.9271 416.205 30.046 416.442 30.2836C416.68 30.5213 416.799 30.8156 416.799 31.1665C416.799 31.5174 416.68 31.8116 416.442 32.0493C416.205 32.287 415.916 32.4059 415.577 32.4059ZM416.527 33.6452V43H414.592V33.6452H416.527ZM423.788 33.4924C424.524 33.4924 425.18 33.6452 425.758 33.9508C426.346 34.2564 426.805 34.7092 427.133 35.3091C427.461 35.9089 427.625 36.6333 427.625 37.4822V43H425.707V37.7708C425.707 36.9333 425.497 36.2938 425.079 35.8524C424.66 35.3996 424.088 35.1732 423.364 35.1732C422.639 35.1732 422.062 35.3996 421.632 35.8524C421.213 36.2938 421.004 36.9333 421.004 37.7708V43H419.068V33.6452H421.004V34.7148C421.321 34.33 421.723 34.0301 422.209 33.815C422.707 33.6 423.234 33.4924 423.788 33.4924ZM433.863 33.4924C434.588 33.4924 435.227 33.6396 435.782 33.9339C436.348 34.2168 436.789 34.5734 437.106 35.0035V33.6452H439.058V43.1528C439.058 44.013 438.877 44.777 438.515 45.4448C438.153 46.1239 437.627 46.6559 436.936 47.0407C436.257 47.4255 435.442 47.618 434.491 47.618C433.224 47.618 432.171 47.318 431.333 46.7181C430.496 46.1296 430.021 45.326 429.907 44.3073H431.826C431.973 44.794 432.284 45.1845 432.76 45.4788C433.246 45.7844 433.824 45.9372 434.491 45.9372C435.272 45.9372 435.9 45.6995 436.376 45.2241C436.863 44.7487 437.106 44.0583 437.106 43.1528V41.5908C436.778 42.0323 436.331 42.4058 435.765 42.7114C435.21 43.0057 434.576 43.1528 433.863 43.1528C433.048 43.1528 432.301 42.9491 431.622 42.5416C430.954 42.1228 430.422 41.5456 430.026 40.8099C429.641 40.0628 429.449 39.2196 429.449 38.2802C429.449 37.3407 429.641 36.5088 430.026 35.7844C430.422 35.0601 430.954 34.4998 431.622 34.1036C432.301 33.6962 433.048 33.4924 433.863 33.4924ZM437.106 38.3141C437.106 37.669 436.97 37.1087 436.698 36.6333C436.438 36.158 436.093 35.7958 435.663 35.5468C435.233 35.2977 434.769 35.1732 434.271 35.1732C433.773 35.1732 433.309 35.2977 432.878 35.5468C432.448 35.7844 432.097 36.141 431.826 36.6164C431.565 37.0804 431.435 37.635 431.435 38.2802C431.435 38.9253 431.565 39.4913 431.826 39.978C432.097 40.4647 432.448 40.8382 432.878 41.0985C433.32 41.3475 433.784 41.472 434.271 41.472C434.769 41.472 435.233 41.3475 435.663 41.0985C436.093 40.8495 436.438 40.4873 436.698 40.0119C436.97 39.5252 437.106 38.9593 437.106 38.3141ZM449.933 35.2242H448.201V43H446.248V35.2242H445.145V33.6452H446.248V32.9831C446.248 31.9079 446.531 31.1269 447.097 30.6402C447.675 30.1422 448.574 29.8932 449.797 29.8932V31.506C449.208 31.506 448.795 31.6192 448.557 31.8456C448.32 32.0607 448.201 32.4398 448.201 32.9831V33.6452H449.933V35.2242ZM455.706 43.1528C454.823 43.1528 454.025 42.9547 453.312 42.5586C452.599 42.1511 452.038 41.5852 451.631 40.8608C451.223 40.1251 451.02 39.2762 451.02 38.3141C451.02 37.3634 451.229 36.5201 451.648 35.7844C452.067 35.0487 452.638 34.4828 453.363 34.0867C454.087 33.6905 454.896 33.4924 455.79 33.4924C456.685 33.4924 457.494 33.6905 458.218 34.0867C458.943 34.4828 459.514 35.0487 459.933 35.7844C460.352 36.5201 460.561 37.3634 460.561 38.3141C460.561 39.2649 460.346 40.1081 459.916 40.8438C459.486 41.5795 458.897 42.1511 458.15 42.5586C457.415 42.9547 456.6 43.1528 455.706 43.1528ZM455.706 41.472C456.204 41.472 456.668 41.3532 457.098 41.1155C457.539 40.8778 457.896 40.5212 458.167 40.0459C458.439 39.5705 458.575 38.9932 458.575 38.3141C458.575 37.635 458.445 37.0634 458.184 36.5994C457.924 36.124 457.579 35.7675 457.149 35.5298C456.719 35.2921 456.255 35.1732 455.757 35.1732C455.259 35.1732 454.794 35.2921 454.364 35.5298C453.946 35.7675 453.612 36.124 453.363 36.5994C453.114 37.0634 452.989 37.635 452.989 38.3141C452.989 39.3215 453.244 40.1025 453.753 40.6571C454.274 41.2004 454.925 41.472 455.706 41.472ZM464.41 35.0035C464.693 34.5281 465.066 34.1602 465.531 33.8999C466.006 33.6283 466.566 33.4924 467.211 33.4924V35.4958H466.719C465.961 35.4958 465.383 35.6882 464.987 36.0731C464.602 36.4579 464.41 37.1257 464.41 38.0764V43H462.475V33.6452H464.41V35.0035ZM481.822 33.6452L476.083 47.3972H474.08L475.981 42.8472L472.297 33.6452H474.453L477.085 40.7759L479.818 33.6452H481.822ZM487.34 43.1528C486.457 43.1528 485.659 42.9547 484.946 42.5586C484.233 42.1511 483.673 41.5852 483.265 40.8608C482.858 40.1251 482.654 39.2762 482.654 38.3141C482.654 37.3634 482.863 36.5201 483.282 35.7844C483.701 35.0487 484.273 34.4828 484.997 34.0867C485.721 33.6905 486.531 33.4924 487.425 33.4924C488.319 33.4924 489.128 33.6905 489.853 34.0867C490.577 34.4828 491.149 35.0487 491.567 35.7844C491.986 36.5201 492.196 37.3634 492.196 38.3141C492.196 39.2649 491.981 40.1081 491.55 40.8438C491.12 41.5795 490.532 42.1511 489.785 42.5586C489.049 42.9547 488.234 43.1528 487.34 43.1528ZM487.34 41.472C487.838 41.472 488.302 41.3532 488.732 41.1155C489.174 40.8778 489.53 40.5212 489.802 40.0459C490.073 39.5705 490.209 38.9932 490.209 38.3141C490.209 37.635 490.079 37.0634 489.819 36.5994C489.558 36.124 489.213 35.7675 488.783 35.5298C488.353 35.2921 487.889 35.1732 487.391 35.1732C486.893 35.1732 486.429 35.2921 485.999 35.5298C485.58 35.7675 485.246 36.124 484.997 36.5994C484.748 37.0634 484.624 37.635 484.624 38.3141C484.624 39.3215 484.878 40.1025 485.388 40.6571C485.908 41.2004 486.559 41.472 487.34 41.472ZM502.581 33.6452V43H500.645V41.8964C500.34 42.2813 499.938 42.5869 499.44 42.8132C498.953 43.0283 498.433 43.1358 497.878 43.1358C497.142 43.1358 496.48 42.983 495.892 42.6774C495.314 42.3718 494.856 41.9191 494.516 41.3192C494.188 40.7193 494.024 39.9949 494.024 39.146V33.6452H495.943V38.8574C495.943 39.695 496.152 40.3401 496.571 40.7929C496.989 41.2343 497.561 41.455 498.285 41.455C499.01 41.455 499.581 41.2343 500 40.7929C500.43 40.3401 500.645 39.695 500.645 38.8574V33.6452H502.581ZM507.07 35.0035C507.353 34.5281 507.726 34.1602 508.191 33.8999C508.666 33.6283 509.226 33.4924 509.871 33.4924V35.4958H509.379C508.621 35.4958 508.043 35.6882 507.647 36.0731C507.262 36.4579 507.07 37.1257 507.07 38.0764V43H505.135V33.6452H507.07V35.0035ZM517.996 35.0204C518.324 34.5903 518.771 34.2281 519.337 33.9339C519.903 33.6396 520.543 33.4924 521.256 33.4924C522.071 33.4924 522.812 33.6962 523.48 34.1036C524.159 34.4998 524.691 35.0601 525.076 35.7844C525.461 36.5088 525.653 37.3407 525.653 38.2802C525.653 39.2196 525.461 40.0628 525.076 40.8099C524.691 41.5456 524.159 42.1228 523.48 42.5416C522.812 42.9491 522.071 43.1528 521.256 43.1528C520.543 43.1528 519.909 43.0113 519.354 42.7284C518.8 42.4341 518.347 42.0719 517.996 41.6418V47.4482H516.061V33.6452H517.996V35.0204ZM523.684 38.2802C523.684 37.635 523.548 37.0804 523.276 36.6164C523.016 36.141 522.665 35.7844 522.224 35.5468C521.793 35.2977 521.329 35.1732 520.831 35.1732C520.345 35.1732 519.881 35.2977 519.439 35.5468C519.009 35.7958 518.658 36.158 518.387 36.6333C518.126 37.1087 517.996 37.669 517.996 38.3141C517.996 38.9593 518.126 39.5252 518.387 40.0119C518.658 40.4873 519.009 40.8495 519.439 41.0985C519.881 41.3475 520.345 41.472 520.831 41.472C521.329 41.472 521.793 41.3475 522.224 41.0985C522.665 40.8382 523.016 40.4647 523.276 39.978C523.548 39.4913 523.684 38.9253 523.684 38.2802ZM529.503 30.4364V43H527.567V30.4364H529.503ZM531.398 38.2802C531.398 37.3407 531.591 36.5088 531.976 35.7844C532.372 35.0601 532.904 34.4998 533.572 34.1036C534.251 33.6962 534.998 33.4924 535.813 33.4924C536.548 33.4924 537.188 33.6396 537.731 33.9339C538.286 34.2168 538.727 34.5734 539.055 35.0035V33.6452H541.008V43H539.055V41.6078C538.727 42.0492 538.28 42.4171 537.714 42.7114C537.148 43.0057 536.503 43.1528 535.779 43.1528C534.975 43.1528 534.239 42.9491 533.572 42.5416C532.904 42.1228 532.372 41.5456 531.976 40.8099C531.591 40.0628 531.398 39.2196 531.398 38.2802ZM539.055 38.3141C539.055 37.669 538.92 37.1087 538.648 36.6333C538.388 36.158 538.042 35.7958 537.612 35.5468C537.182 35.2977 536.718 35.1732 536.22 35.1732C535.722 35.1732 535.258 35.2977 534.828 35.5468C534.398 35.7844 534.047 36.141 533.775 36.6164C533.515 37.0804 533.385 37.635 533.385 38.2802C533.385 38.9253 533.515 39.4913 533.775 39.978C534.047 40.4647 534.398 40.8382 534.828 41.0985C535.269 41.3475 535.733 41.472 536.22 41.472C536.718 41.472 537.182 41.3475 537.612 41.0985C538.042 40.8495 538.388 40.4873 538.648 40.0119C538.92 39.5252 539.055 38.9593 539.055 38.3141ZM542.905 38.3141C542.905 37.3521 543.097 36.5088 543.482 35.7844C543.878 35.0487 544.422 34.4828 545.112 34.0867C545.802 33.6905 546.595 33.4924 547.489 33.4924C548.621 33.4924 549.555 33.7641 550.29 34.3074C551.037 34.8393 551.541 35.6033 551.801 36.5994H549.713C549.543 36.1353 549.272 35.7731 548.898 35.5128C548.525 35.2525 548.055 35.1223 547.489 35.1223C546.697 35.1223 546.063 35.4053 545.587 35.9712C545.123 36.5258 544.891 37.3068 544.891 38.3141C544.891 39.3215 545.123 40.1081 545.587 40.674C546.063 41.24 546.697 41.5229 547.489 41.5229C548.609 41.5229 549.351 41.0306 549.713 40.0459H551.801C551.53 40.9966 551.02 41.755 550.273 42.3209C549.526 42.8755 548.598 43.1528 547.489 43.1528C546.595 43.1528 545.802 42.9547 545.112 42.5586C544.422 42.1511 543.878 41.5852 543.482 40.8608C543.097 40.1251 542.905 39.2762 542.905 38.3141ZM562.304 38.0934C562.304 38.4443 562.281 38.7612 562.236 39.0442H555.088C555.145 39.7912 555.422 40.3911 555.92 40.8438C556.418 41.2966 557.029 41.5229 557.754 41.5229C558.795 41.5229 559.531 41.0872 559.961 40.2156H562.049C561.766 41.0759 561.251 41.7833 560.504 42.3379C559.769 42.8812 558.852 43.1528 557.754 43.1528C556.86 43.1528 556.056 42.9547 555.343 42.5586C554.641 42.1511 554.087 41.5852 553.679 40.8608C553.283 40.1251 553.085 39.2762 553.085 38.3141C553.085 37.3521 553.277 36.5088 553.662 35.7844C554.058 35.0487 554.607 34.4828 555.309 34.0867C556.022 33.6905 556.837 33.4924 557.754 33.4924C558.637 33.4924 559.423 33.6849 560.114 34.0697C560.804 34.4545 561.342 34.9978 561.727 35.6996C562.111 36.39 562.304 37.1879 562.304 38.0934ZM560.284 37.4822C560.272 36.7692 560.018 36.1976 559.52 35.7675C559.021 35.3374 558.405 35.1223 557.669 35.1223C557.001 35.1223 556.43 35.3374 555.954 35.7675C555.479 36.1863 555.196 36.7578 555.105 37.4822H560.284ZM575.533 33.4924C576.268 33.4924 576.925 33.6452 577.502 33.9508C578.091 34.2564 578.549 34.7092 578.877 35.3091C579.217 35.9089 579.387 36.6333 579.387 37.4822V43H577.468V37.7708C577.468 36.9333 577.259 36.2938 576.84 35.8524C576.421 35.3996 575.85 35.1732 575.125 35.1732C574.401 35.1732 573.824 35.3996 573.394 35.8524C572.975 36.2938 572.765 36.9333 572.765 37.7708V43H570.847V37.7708C570.847 36.9333 570.637 36.2938 570.219 35.8524C569.8 35.3996 569.228 35.1732 568.504 35.1732C567.78 35.1732 567.202 35.3996 566.772 35.8524C566.353 36.2938 566.144 36.9333 566.144 37.7708V43H564.209V33.6452H566.144V34.7148C566.461 34.33 566.863 34.0301 567.349 33.815C567.836 33.6 568.357 33.4924 568.911 33.4924C569.658 33.4924 570.326 33.6509 570.915 33.9678C571.503 34.2847 571.956 34.7431 572.273 35.343C572.556 34.7771 572.997 34.33 573.597 34.0018C574.197 33.6622 574.842 33.4924 575.533 33.4924ZM590.423 38.0934C590.423 38.4443 590.401 38.7612 590.355 39.0442H583.208C583.264 39.7912 583.542 40.3911 584.04 40.8438C584.538 41.2966 585.149 41.5229 585.873 41.5229C586.915 41.5229 587.65 41.0872 588.08 40.2156H590.169C589.886 41.0759 589.371 41.7833 588.624 42.3379C587.888 42.8812 586.971 43.1528 585.873 43.1528C584.979 43.1528 584.175 42.9547 583.462 42.5586C582.761 42.1511 582.206 41.5852 581.799 40.8608C581.402 40.1251 581.204 39.2762 581.204 38.3141C581.204 37.3521 581.397 36.5088 581.782 35.7844C582.178 35.0487 582.727 34.4828 583.428 34.0867C584.142 33.6905 584.956 33.4924 585.873 33.4924C586.756 33.4924 587.543 33.6849 588.233 34.0697C588.924 34.4545 589.461 34.9978 589.846 35.6996C590.231 36.39 590.423 37.1879 590.423 38.0934ZM588.403 37.4822C588.392 36.7692 588.137 36.1976 587.639 35.7675C587.141 35.3374 586.524 35.1223 585.788 35.1223C585.121 35.1223 584.549 35.3374 584.074 35.7675C583.598 36.1863 583.315 36.7578 583.225 37.4822H588.403ZM597.048 33.4924C597.784 33.4924 598.44 33.6452 599.017 33.9508C599.606 34.2564 600.064 34.7092 600.392 35.3091C600.721 35.9089 600.885 36.6333 600.885 37.4822V43H598.966V37.7708C598.966 36.9333 598.757 36.2938 598.338 35.8524C597.919 35.3996 597.348 35.1732 596.623 35.1732C595.899 35.1732 595.322 35.3996 594.892 35.8524C594.473 36.2938 594.263 36.9333 594.263 37.7708V43H592.328V33.6452H594.263V34.7148C594.58 34.33 594.982 34.0301 595.469 33.815C595.967 33.6 596.493 33.4924 597.048 33.4924ZM605.612 35.2242V40.4024C605.612 40.7533 605.691 41.0079 605.849 41.1664C606.019 41.3135 606.302 41.3871 606.698 41.3871H607.887V43H606.359C605.487 43 604.819 42.7963 604.355 42.3888C603.891 41.9813 603.659 41.3192 603.659 40.4024V35.2242H602.556V33.6452H603.659V31.3193H605.612V33.6452H607.887V35.2242H605.612ZM613.066 43.1528C612.33 43.1528 611.668 43.0226 611.08 42.7623C610.502 42.4907 610.044 42.1285 609.705 41.6757C609.365 41.2117 609.184 40.6967 609.161 40.1308H611.165C611.199 40.5269 611.385 40.8608 611.725 41.1324C612.076 41.3928 612.511 41.5229 613.032 41.5229C613.575 41.5229 613.994 41.4211 614.289 41.2173C614.594 41.0023 614.747 40.7306 614.747 40.4024C614.747 40.0515 614.577 39.7912 614.238 39.6214C613.909 39.4516 613.383 39.2649 612.659 39.0612C611.957 38.8687 611.385 38.682 610.944 38.5009C610.502 38.3198 610.118 38.0425 609.789 37.669C609.472 37.2955 609.314 36.8031 609.314 36.1919C609.314 35.6939 609.461 35.2412 609.755 34.8337C610.05 34.4149 610.469 34.0867 611.012 33.849C611.566 33.6113 612.2 33.4924 612.913 33.4924C613.977 33.4924 614.832 33.7641 615.477 34.3074C616.133 34.8393 616.484 35.5694 616.53 36.4975H614.594C614.56 36.0787 614.39 35.7448 614.085 35.4958C613.779 35.2468 613.366 35.1223 612.845 35.1223C612.336 35.1223 611.946 35.2185 611.674 35.4109C611.402 35.6033 611.266 35.858 611.266 36.1749C611.266 36.4239 611.357 36.6333 611.538 36.8031C611.719 36.9729 611.94 37.1087 612.2 37.2106C612.461 37.3011 612.845 37.42 613.355 37.5671C614.034 37.7482 614.588 37.935 615.019 38.1274C615.46 38.3085 615.839 38.5801 616.156 38.9423C616.473 39.3045 616.637 39.7855 616.648 40.3854C616.648 40.9174 616.501 41.3928 616.207 41.8116C615.913 42.2303 615.494 42.5586 614.951 42.7963C614.419 43.034 613.79 43.1528 613.066 43.1528ZM627.072 35.2242H625.34V43H623.388V35.2242H622.284V33.6452H623.388V32.9831C623.388 31.9079 623.671 31.1269 624.237 30.6402C624.814 30.1422 625.714 29.8932 626.936 29.8932V31.506C626.347 31.506 625.934 31.6192 625.697 31.8456C625.459 32.0607 625.34 32.4398 625.34 32.9831V33.6452H627.072V35.2242ZM632.845 43.1528C631.962 43.1528 631.164 42.9547 630.451 42.5586C629.738 42.1511 629.178 41.5852 628.77 40.8608C628.363 40.1251 628.159 39.2762 628.159 38.3141C628.159 37.3634 628.368 36.5201 628.787 35.7844C629.206 35.0487 629.777 34.4828 630.502 34.0867C631.226 33.6905 632.036 33.4924 632.93 33.4924C633.824 33.4924 634.633 33.6905 635.358 34.0867C636.082 34.4828 636.653 35.0487 637.072 35.7844C637.491 36.5201 637.7 37.3634 637.7 38.3141C637.7 39.2649 637.485 40.1081 637.055 40.8438C636.625 41.5795 636.037 42.1511 635.29 42.5586C634.554 42.9547 633.739 43.1528 632.845 43.1528ZM632.845 41.472C633.343 41.472 633.807 41.3532 634.237 41.1155C634.678 40.8778 635.035 40.5212 635.307 40.0459C635.578 39.5705 635.714 38.9932 635.714 38.3141C635.714 37.635 635.584 37.0634 635.324 36.5994C635.063 36.124 634.718 35.7675 634.288 35.5298C633.858 35.2921 633.394 35.1732 632.896 35.1732C632.398 35.1732 631.934 35.2921 631.504 35.5298C631.085 35.7675 630.751 36.124 630.502 36.5994C630.253 37.0634 630.128 37.635 630.128 38.3141C630.128 39.3215 630.383 40.1025 630.892 40.6571C631.413 41.2004 632.064 41.472 632.845 41.472ZM641.549 35.0035C641.832 34.5281 642.206 34.1602 642.67 33.8999C643.145 33.6283 643.705 33.4924 644.351 33.4924V35.4958H643.858C643.1 35.4958 642.523 35.6882 642.126 36.0731C641.742 36.4579 641.549 37.1257 641.549 38.0764V43H639.614V33.6452H641.549V35.0035ZM651.525 32.4059C651.174 32.4059 650.879 32.287 650.642 32.0493C650.404 31.8116 650.285 31.5174 650.285 31.1665C650.285 30.8156 650.404 30.5213 650.642 30.2836C650.879 30.046 651.174 29.9271 651.525 29.9271C651.864 29.9271 652.153 30.046 652.39 30.2836C652.628 30.5213 652.747 30.8156 652.747 31.1665C652.747 31.5174 652.628 31.8116 652.39 32.0493C652.153 32.287 651.864 32.4059 651.525 32.4059ZM652.475 44.8336C652.475 45.7504 652.243 46.4125 651.779 46.82C651.327 47.2388 650.664 47.4482 649.793 47.4482H648.791V45.8183H649.453C649.849 45.8183 650.127 45.7391 650.285 45.5806C650.455 45.4335 650.54 45.1845 650.54 44.8336V33.6452H652.475V44.8336ZM663.488 33.6452V43H661.553V41.8964C661.247 42.2813 660.845 42.5869 660.347 42.8132C659.861 43.0283 659.34 43.1358 658.786 43.1358C658.05 43.1358 657.388 42.983 656.799 42.6774C656.222 42.3718 655.763 41.9191 655.424 41.3192C655.096 40.7193 654.932 39.9949 654.932 39.146V33.6452H656.85V38.8574C656.85 39.695 657.059 40.3401 657.478 40.7929C657.897 41.2343 658.469 41.455 659.193 41.455C659.917 41.455 660.489 41.2343 660.908 40.7929C661.338 40.3401 661.553 39.695 661.553 38.8574V33.6452H663.488ZM669.438 43.1528C668.702 43.1528 668.04 43.0226 667.451 42.7623C666.874 42.4907 666.416 42.1285 666.076 41.6757C665.736 41.2117 665.555 40.6967 665.533 40.1308H667.536C667.57 40.5269 667.757 40.8608 668.096 41.1324C668.447 41.3928 668.883 41.5229 669.404 41.5229C669.947 41.5229 670.366 41.4211 670.66 41.2173C670.966 41.0023 671.118 40.7306 671.118 40.4024C671.118 40.0515 670.949 39.7912 670.609 39.6214C670.281 39.4516 669.755 39.2649 669.03 39.0612C668.328 38.8687 667.757 38.682 667.315 38.5009C666.874 38.3198 666.489 38.0425 666.161 37.669C665.844 37.2955 665.686 36.8031 665.686 36.1919C665.686 35.6939 665.833 35.2412 666.127 34.8337C666.421 34.4149 666.84 34.0867 667.383 33.849C667.938 33.6113 668.572 33.4924 669.285 33.4924C670.349 33.4924 671.203 33.7641 671.848 34.3074C672.505 34.8393 672.856 35.5694 672.901 36.4975H670.966C670.932 36.0787 670.762 35.7448 670.456 35.4958C670.151 35.2468 669.738 35.1223 669.217 35.1223C668.708 35.1223 668.317 35.2185 668.045 35.4109C667.774 35.6033 667.638 35.858 667.638 36.1749C667.638 36.4239 667.729 36.6333 667.91 36.8031C668.091 36.9729 668.311 37.1087 668.572 37.2106C668.832 37.3011 669.217 37.42 669.726 37.5671C670.405 37.7482 670.96 37.935 671.39 38.1274C671.831 38.3085 672.211 38.5801 672.528 38.9423C672.845 39.3045 673.009 39.7855 673.02 40.3854C673.02 40.9174 672.873 41.3928 672.579 41.8116C672.284 42.2303 671.865 42.5586 671.322 42.7963C670.79 43.034 670.162 43.1528 669.438 43.1528ZM677.369 35.2242V40.4024C677.369 40.7533 677.449 41.0079 677.607 41.1664C677.777 41.3135 678.06 41.3871 678.456 41.3871H679.644V43H678.116C677.245 43 676.577 42.7963 676.113 42.3888C675.649 41.9813 675.417 41.3192 675.417 40.4024V35.2242H674.313V33.6452H675.417V31.3193H677.369V33.6452H679.644V35.2242H677.369ZM765.519 37.686H762.09V41.2004H760.29V37.686H756.861V36.0561H760.29V32.5417H762.09V36.0561H765.519V37.686ZM770.78 35.2242V40.4024C770.78 40.7533 770.859 41.0079 771.018 41.1664C771.188 41.3135 771.471 41.3871 771.867 41.3871H773.055V43H771.527C770.656 43 769.988 42.7963 769.524 42.3888C769.06 41.9813 768.828 41.3192 768.828 40.4024V35.2242H767.724V33.6452H768.828V31.3193H770.78V33.6452H773.055V35.2242H770.78ZM774.194 38.2802C774.194 37.3407 774.386 36.5088 774.771 35.7844C775.167 35.0601 775.699 34.4998 776.367 34.1036C777.046 33.6962 777.793 33.4924 778.608 33.4924C779.344 33.4924 779.983 33.6396 780.527 33.9339C781.081 34.2168 781.523 34.5734 781.851 35.0035V33.6452H783.803V43H781.851V41.6078C781.523 42.0492 781.076 42.4171 780.51 42.7114C779.944 43.0057 779.299 43.1528 778.574 43.1528C777.771 43.1528 777.035 42.9491 776.367 42.5416C775.699 42.1228 775.167 41.5456 774.771 40.8099C774.386 40.0628 774.194 39.2196 774.194 38.2802ZM781.851 38.3141C781.851 37.669 781.715 37.1087 781.443 36.6333C781.183 36.158 780.838 35.7958 780.408 35.5468C779.978 35.2977 779.514 35.1732 779.016 35.1732C778.518 35.1732 778.054 35.2977 777.623 35.5468C777.193 35.7844 776.843 36.141 776.571 36.6164C776.311 37.0804 776.18 37.635 776.18 38.2802C776.18 38.9253 776.311 39.4913 776.571 39.978C776.843 40.4647 777.193 40.8382 777.623 41.0985C778.065 41.3475 778.529 41.472 779.016 41.472C779.514 41.472 779.978 41.3475 780.408 41.0985C780.838 40.8495 781.183 40.4873 781.443 40.0119C781.715 39.5252 781.851 38.9593 781.851 38.3141ZM790.352 38.2632L793.374 43H791.184L789.164 39.8252L787.262 43H785.242L788.264 38.399L785.242 33.6452H787.432L789.452 36.8201L791.354 33.6452H793.374L790.352 38.2632ZM803.392 38.0934C803.392 38.4443 803.369 38.7612 803.324 39.0442H796.176C796.233 39.7912 796.51 40.3911 797.008 40.8438C797.506 41.2966 798.117 41.5229 798.842 41.5229C799.883 41.5229 800.619 41.0872 801.049 40.2156H803.137C802.854 41.0759 802.339 41.7833 801.592 42.3379C800.856 42.8812 799.939 43.1528 798.842 43.1528C797.947 43.1528 797.144 42.9547 796.431 42.5586C795.729 42.1511 795.174 41.5852 794.767 40.8608C794.371 40.1251 794.173 39.2762 794.173 38.3141C794.173 37.3521 794.365 36.5088 794.75 35.7844C795.146 35.0487 795.695 34.4828 796.397 34.0867C797.11 33.6905 797.925 33.4924 798.842 33.4924C799.724 33.4924 800.511 33.6849 801.201 34.0697C801.892 34.4545 802.43 34.9978 802.814 35.6996C803.199 36.39 803.392 37.1879 803.392 38.0934ZM801.371 37.4822C801.36 36.7692 801.105 36.1976 800.607 35.7675C800.109 35.3374 799.492 35.1223 798.757 35.1223C798.089 35.1223 797.517 35.3374 797.042 35.7675C796.567 36.1863 796.284 36.7578 796.193 37.4822H801.371ZM808.692 43.1528C807.956 43.1528 807.294 43.0226 806.705 42.7623C806.128 42.4907 805.67 42.1285 805.33 41.6757C804.991 41.2117 804.81 40.6967 804.787 40.1308H806.79C806.824 40.5269 807.011 40.8608 807.351 41.1324C807.702 41.3928 808.137 41.5229 808.658 41.5229C809.201 41.5229 809.62 41.4211 809.914 41.2173C810.22 41.0023 810.373 40.7306 810.373 40.4024C810.373 40.0515 810.203 39.7912 809.863 39.6214C809.535 39.4516 809.009 39.2649 808.284 39.0612C807.583 38.8687 807.011 38.682 806.57 38.5009C806.128 38.3198 805.743 38.0425 805.415 37.669C805.098 37.2955 804.94 36.8031 804.94 36.1919C804.94 35.6939 805.087 35.2412 805.381 34.8337C805.676 34.4149 806.094 34.0867 806.638 33.849C807.192 33.6113 807.826 33.4924 808.539 33.4924C809.603 33.4924 810.458 33.7641 811.103 34.3074C811.759 34.8393 812.11 35.5694 812.155 36.4975H810.22C810.186 36.0787 810.016 35.7448 809.711 35.4958C809.405 35.2468 808.992 35.1223 808.471 35.1223C807.962 35.1223 807.571 35.2185 807.3 35.4109C807.028 35.6033 806.892 35.858 806.892 36.1749C806.892 36.4239 806.983 36.6333 807.164 36.8031C807.345 36.9729 807.566 37.1087 807.826 37.2106C808.086 37.3011 808.471 37.42 808.981 37.5671C809.66 37.7482 810.214 37.935 810.644 38.1274C811.086 38.3085 811.465 38.5801 811.782 38.9423C812.099 39.3045 812.263 39.7855 812.274 40.3854C812.274 40.9174 812.127 41.3928 811.833 41.8116C811.539 42.2303 811.12 42.5586 810.576 42.7963C810.044 43.034 809.416 43.1528 808.692 43.1528Z" fill="#FFDCD0"/>
<path d="M227.405 31.0816C228.662 31.0816 229.76 31.3306 230.699 31.8286C231.638 32.3266 232.363 33.0284 232.872 33.9339C233.393 34.828 233.653 35.8637 233.653 37.0408C233.653 38.2066 233.393 39.2423 232.872 40.1477C232.363 41.0532 231.633 41.755 230.682 42.253C229.743 42.751 228.65 43 227.405 43H222.94V31.0816H227.405ZM227.219 40.4873C228.316 40.4873 229.171 40.1873 229.782 39.5875C230.393 38.9876 230.699 38.1387 230.699 37.0408C230.699 35.9429 230.393 35.0884 229.782 34.4772C229.171 33.866 228.316 33.5604 227.219 33.5604H225.843V40.4873H227.219ZM234.698 38.2462C234.698 37.2728 234.879 36.4183 235.242 35.6826C235.615 34.9469 236.119 34.3809 236.753 33.9848C237.386 33.5887 238.094 33.3906 238.875 33.3906C239.543 33.3906 240.126 33.5264 240.624 33.798C241.133 34.0697 241.523 34.4262 241.795 34.8676V33.5264H244.698V43H241.795V41.6588C241.512 42.1002 241.116 42.4567 240.607 42.7284C240.109 43 239.526 43.1358 238.858 43.1358C238.088 43.1358 237.386 42.9377 236.753 42.5416C236.119 42.1341 235.615 41.5625 235.242 40.8268C234.879 40.0798 234.698 39.2196 234.698 38.2462ZM241.795 38.2632C241.795 37.5388 241.591 36.9672 241.184 36.5484C240.788 36.1297 240.301 35.9203 239.724 35.9203C239.146 35.9203 238.654 36.1297 238.247 36.5484C237.851 36.9559 237.652 37.5218 237.652 38.2462C237.652 38.9706 237.851 39.5479 238.247 39.978C238.654 40.3967 239.146 40.6061 239.724 40.6061C240.301 40.6061 240.788 40.3967 241.184 39.978C241.591 39.5592 241.795 38.9876 241.795 38.2632ZM256.476 33.5264L250.534 47.4991H247.41L249.583 42.6774L245.729 33.5264H248.972L251.162 39.4516L253.335 33.5264H256.476ZM266.76 43.1188C265.64 43.1188 264.61 42.8585 263.67 42.3379C262.742 41.8172 262.001 41.0928 261.446 40.1647C260.903 39.2253 260.631 38.1727 260.631 37.0068C260.631 35.841 260.903 34.7941 261.446 33.866C262.001 32.9378 262.742 32.2135 263.67 31.6928C264.61 31.1721 265.64 30.9118 266.76 30.9118C267.881 30.9118 268.905 31.1721 269.833 31.6928C270.773 32.2135 271.508 32.9378 272.04 33.866C272.584 34.7941 272.855 35.841 272.855 37.0068C272.855 38.1727 272.584 39.2253 272.04 40.1647C271.497 41.0928 270.761 41.8172 269.833 42.3379C268.905 42.8585 267.881 43.1188 266.76 43.1188ZM266.76 40.4703C267.711 40.4703 268.469 40.1534 269.035 39.5196C269.612 38.8857 269.901 38.0481 269.901 37.0068C269.901 35.9542 269.612 35.1167 269.035 34.4941C268.469 33.8603 267.711 33.5434 266.76 33.5434C265.798 33.5434 265.028 33.8546 264.451 34.4772C263.885 35.0997 263.602 35.9429 263.602 37.0068C263.602 38.0595 263.885 38.9027 264.451 39.5365C265.028 40.1591 265.798 40.4703 266.76 40.4703ZM280.243 33.4245C281.352 33.4245 282.235 33.7867 282.891 34.5111C283.559 35.2242 283.893 36.2089 283.893 37.4652V43H281.007V37.8557C281.007 37.2219 280.843 36.7295 280.514 36.3787C280.186 36.0278 279.745 35.8524 279.19 35.8524C278.636 35.8524 278.194 36.0278 277.866 36.3787C277.538 36.7295 277.374 37.2219 277.374 37.8557V43H274.47V33.5264H277.374V34.7828C277.668 34.364 278.064 34.0357 278.562 33.798C279.06 33.549 279.62 33.4245 280.243 33.4245ZM294.841 38.1104C294.841 38.382 294.824 38.665 294.79 38.9593H288.219C288.265 39.5479 288.451 40.0006 288.78 40.3175C289.119 40.6231 289.532 40.7759 290.019 40.7759C290.743 40.7759 291.247 40.4703 291.53 39.8591H294.62C294.462 40.4816 294.173 41.0419 293.754 41.5399C293.347 42.0379 292.832 42.4284 292.209 42.7114C291.587 42.9943 290.891 43.1358 290.121 43.1358C289.193 43.1358 288.367 42.9377 287.642 42.5416C286.918 42.1455 286.352 41.5795 285.944 40.8438C285.537 40.1081 285.333 39.2479 285.333 38.2632C285.333 37.2785 285.531 36.4183 285.927 35.6826C286.335 34.9469 286.901 34.3809 287.625 33.9848C288.35 33.5887 289.181 33.3906 290.121 33.3906C291.038 33.3906 291.853 33.583 292.566 33.9678C293.279 34.3527 293.833 34.9016 294.23 35.6147C294.637 36.3277 294.841 37.1596 294.841 38.1104ZM291.87 37.3464C291.87 36.8484 291.7 36.4522 291.36 36.158C291.021 35.8637 290.596 35.7165 290.087 35.7165C289.6 35.7165 289.187 35.858 288.848 36.141C288.519 36.4239 288.316 36.8257 288.236 37.3464H291.87ZM303.79 30.6572L303.451 38.7895H300.989L300.649 30.6572H303.79ZM302.262 43.1358C301.753 43.1358 301.334 42.9887 301.006 42.6944C300.689 42.3888 300.53 42.0153 300.53 41.5739C300.53 41.1211 300.689 40.742 301.006 40.4364C301.334 40.1308 301.753 39.978 302.262 39.978C302.76 39.978 303.168 40.1308 303.485 40.4364C303.813 40.742 303.977 41.1211 303.977 41.5739C303.977 42.0153 303.813 42.3888 303.485 42.6944C303.168 42.9887 302.76 43.1358 302.262 43.1358Z" fill="url(#paint0_linear_590_6)"/>
<path d="M698.093 30.0545V31.6843H700.402V34.5094H697.93C697.641 36.1212 696.934 37.3527 695.811 38.2038C694.689 39.0368 693.05 39.4534 690.895 39.4534V40.5399C690.895 41.2462 691.031 41.7986 691.302 42.197C691.574 42.5773 692.045 42.7674 692.715 42.7674C693.349 42.7674 693.801 42.5773 694.073 42.197C694.345 41.8167 694.48 41.2462 694.48 40.4856H698.772C698.7 42.3147 698.157 43.7363 697.143 44.7504C696.146 45.7646 694.707 46.2716 692.823 46.2716C690.795 46.2716 689.238 45.7465 688.151 44.6961C687.083 43.6276 686.548 42.034 686.548 39.9152V36.411C688.432 36.411 689.817 36.3747 690.705 36.3023C691.61 36.2117 692.28 36.0397 692.715 35.7862C693.167 35.5145 693.466 35.0889 693.611 34.5094H686.032V31.6843H693.747V30.0545H686.032V26.9306H700.402V30.0545H698.093ZM702.62 31.7658C702.693 29.8281 703.327 28.3341 704.522 27.2837C705.717 26.2333 707.338 25.7082 709.384 25.7082C710.743 25.7082 711.902 25.9436 712.861 26.4144C713.839 26.8853 714.573 27.5282 715.062 28.3431C715.569 29.158 715.822 30.0726 715.822 31.0867C715.822 32.282 715.523 33.2599 714.926 34.0205C714.328 34.763 713.631 35.27 712.834 35.5417V35.6503C713.866 35.9944 714.681 36.5649 715.279 37.3617C715.877 38.1585 716.175 39.1817 716.175 40.4313C716.175 41.5541 715.913 42.5501 715.388 43.4194C714.881 44.2705 714.129 44.9406 713.133 45.4295C712.155 45.9185 710.987 46.163 709.629 46.163C707.456 46.163 705.717 45.6288 704.413 44.5603C703.127 43.4918 702.448 41.8801 702.376 39.725H706.885C706.903 40.5218 707.13 41.1557 707.564 41.6265C707.999 42.0793 708.633 42.3056 709.466 42.3056C710.172 42.3056 710.715 42.1064 711.096 41.708C711.494 41.2915 711.693 40.7482 711.693 40.0782C711.693 39.2089 711.413 38.5841 710.851 38.2038C710.308 37.8054 709.43 37.6062 708.216 37.6062H707.347V33.8303H708.216C709.14 33.8303 709.882 33.6764 710.444 33.3685C711.023 33.0426 711.313 32.4721 711.313 31.6572C711.313 31.0052 711.132 30.4982 710.77 30.136C710.408 29.7738 709.91 29.5927 709.276 29.5927C708.588 29.5927 708.071 29.8009 707.727 30.2175C707.401 30.634 707.211 31.1501 707.157 31.7658H702.62ZM728.711 31.5213C728.566 30.8513 728.313 30.3533 727.95 30.0273C727.588 29.6832 727.072 29.5112 726.402 29.5112C725.37 29.5112 724.627 29.9639 724.175 30.8694C723.722 31.7568 723.486 33.1693 723.468 35.1071C723.867 34.4732 724.437 33.9752 725.18 33.613C725.94 33.2508 726.773 33.0697 727.679 33.0697C729.453 33.0697 730.875 33.6311 731.944 34.7539C733.03 35.8767 733.573 37.4432 733.573 39.4534C733.573 40.7754 733.302 41.9344 732.758 42.9304C732.233 43.9264 731.455 44.7052 730.422 45.2666C729.408 45.828 728.204 46.1087 726.809 46.1087C724.021 46.1087 722.083 45.2394 720.996 43.5009C719.91 41.7442 719.366 39.227 719.366 35.9492C719.366 32.5083 719.937 29.9549 721.078 28.2888C722.237 26.6046 724.084 25.7625 726.619 25.7625C727.978 25.7625 729.118 26.0341 730.042 26.5774C730.984 27.1026 731.69 27.7998 732.161 28.6691C732.65 29.5383 732.94 30.4891 733.03 31.5213H728.711ZM726.565 36.7369C725.786 36.7369 725.134 36.9723 724.609 37.4432C724.102 37.8959 723.849 38.5479 723.849 39.399C723.849 40.2683 724.084 40.9474 724.555 41.4364C725.044 41.9253 725.732 42.1698 726.619 42.1698C727.416 42.1698 728.041 41.9344 728.494 41.4635C728.965 40.9746 729.2 40.3136 729.2 39.4805C729.2 38.6294 728.974 37.9593 728.521 37.4704C728.068 36.9814 727.416 36.7369 726.565 36.7369ZM736.201 35.8133C736.201 32.6985 736.798 30.2446 737.994 28.4518C739.207 26.6589 741.154 25.7625 743.834 25.7625C746.514 25.7625 748.452 26.6589 749.647 28.4518C750.86 30.2446 751.467 32.6985 751.467 35.8133C751.467 38.9644 750.86 41.4364 749.647 43.2292C748.452 45.0221 746.514 45.9185 743.834 45.9185C741.154 45.9185 739.207 45.0221 737.994 43.2292C736.798 41.4364 736.201 38.9644 736.201 35.8133ZM746.904 35.8133C746.904 33.9843 746.704 32.5808 746.306 31.6028C745.907 30.6068 745.084 30.1088 743.834 30.1088C742.584 30.1088 741.76 30.6068 741.362 31.6028C740.964 32.5808 740.764 33.9843 740.764 35.8133C740.764 37.0448 740.837 38.068 740.982 38.8829C741.127 39.6797 741.416 40.3317 741.851 40.8388C742.304 41.3277 742.965 41.5722 743.834 41.5722C744.703 41.5722 745.355 41.3277 745.79 40.8388C746.243 40.3317 746.541 39.6797 746.686 38.8829C746.831 38.068 746.904 37.0448 746.904 35.8133Z" fill="url(#paint1_linear_590_6)"/>
<rect x="1067" y="21" width="210" height="34" rx="4.24444" fill="url(#paint2_linear_590_6)"/>
<path d="M1090.92 38.6656C1091.75 38.8422 1092.42 39.2564 1092.92 39.9084C1093.42 40.5467 1093.67 41.2802 1093.67 42.1087C1093.67 43.3039 1093.25 44.2547 1092.41 44.961C1091.58 45.6537 1090.42 46 1088.93 46H1082.26V31.6979H1088.7C1090.15 31.6979 1091.29 32.0307 1092.1 32.6962C1092.93 33.3617 1093.35 34.265 1093.35 35.4059C1093.35 36.248 1093.12 36.9474 1092.67 37.5043C1092.24 38.0612 1091.66 38.4483 1090.92 38.6656ZM1085.75 37.4839H1088.03C1088.6 37.4839 1089.03 37.3617 1089.33 37.1172C1089.65 36.8592 1089.8 36.4857 1089.8 35.9967C1089.8 35.5077 1089.65 35.1342 1089.33 34.8762C1089.03 34.6181 1088.6 34.4891 1088.03 34.4891H1085.75V37.4839ZM1088.31 43.1885C1088.9 43.1885 1089.35 43.0594 1089.66 42.8014C1089.98 42.5297 1090.15 42.1426 1090.15 41.6401C1090.15 41.1376 1089.98 40.7437 1089.64 40.4585C1089.31 40.1732 1088.86 40.0306 1088.27 40.0306H1085.75V43.1885H1088.31ZM1099.18 43.3107H1103.74V46H1095.69V31.6979H1099.18V43.3107ZM1114.31 43.4737H1108.97L1108.11 46H1104.46L1109.64 31.6979H1113.67L1118.85 46H1115.16L1114.31 43.4737ZM1113.41 40.7844L1111.64 35.5485L1109.88 40.7844H1113.41ZM1119.83 38.8286C1119.83 37.416 1120.14 36.1597 1120.75 35.0595C1121.36 33.9458 1122.21 33.0833 1123.3 32.4721C1124.4 31.8473 1125.64 31.5349 1127.02 31.5349C1128.72 31.5349 1130.18 31.9831 1131.38 32.8796C1132.59 33.776 1133.4 34.9984 1133.81 36.5468H1129.98C1129.69 35.9492 1129.29 35.4942 1128.76 35.1818C1128.24 34.8694 1127.65 34.7132 1126.98 34.7132C1125.91 34.7132 1125.04 35.0867 1124.38 35.8337C1123.71 36.5807 1123.38 37.579 1123.38 38.8286C1123.38 40.0782 1123.71 41.0764 1124.38 41.8235C1125.04 42.5705 1125.91 42.944 1126.98 42.944C1127.65 42.944 1128.24 42.7878 1128.76 42.4754C1129.29 42.163 1129.69 41.708 1129.98 41.1104H1133.81C1133.4 42.6588 1132.59 43.8812 1131.38 44.7776C1130.18 45.6604 1128.72 46.1019 1127.02 46.1019C1125.64 46.1019 1124.4 45.7963 1123.3 45.1851C1122.21 44.5603 1121.36 43.6978 1120.75 42.5977C1120.14 41.4975 1119.83 40.2411 1119.83 38.8286ZM1144.23 46L1139.43 39.6843V46H1135.94V31.6979H1139.43V37.9729L1144.19 31.6979H1148.29L1142.75 38.7063L1148.49 46H1144.23ZM1159.46 31.6979V34.4891H1153.63V37.5043H1157.99V40.214H1153.63V46H1150.15V31.6979H1159.46ZM1168.58 46L1165.61 40.6011H1164.77V46H1161.29V31.6979H1167.14C1168.26 31.6979 1169.22 31.8949 1170.01 32.2887C1170.81 32.6826 1171.41 33.2259 1171.8 33.9186C1172.2 34.5977 1172.39 35.3583 1172.39 36.2004C1172.39 37.1512 1172.12 38.0001 1171.58 38.7471C1171.05 39.4941 1170.26 40.0238 1169.21 40.3362L1172.52 46H1168.58ZM1164.77 38.1359H1166.93C1167.57 38.1359 1168.05 37.9797 1168.36 37.6673C1168.68 37.3549 1168.85 36.9135 1168.85 36.343C1168.85 35.7998 1168.68 35.3719 1168.36 35.0595C1168.05 34.7471 1167.57 34.5909 1166.93 34.5909H1164.77V38.1359ZM1178.06 31.6979V46H1174.58V31.6979H1178.06ZM1185.95 31.6979C1187.45 31.6979 1188.77 31.9967 1189.9 32.5943C1191.03 33.192 1191.9 34.0341 1192.51 35.1206C1193.13 36.1936 1193.44 37.4364 1193.44 38.849C1193.44 40.2479 1193.13 41.4907 1192.51 42.5773C1191.9 43.6639 1191.02 44.506 1189.88 45.1036C1188.75 45.7012 1187.44 46 1185.95 46H1180.59V31.6979H1185.95ZM1185.72 42.9847C1187.04 42.9847 1188.07 42.6248 1188.8 41.905C1189.53 41.1851 1189.9 40.1664 1189.9 38.849C1189.9 37.5315 1189.53 36.506 1188.8 35.7726C1188.07 35.0391 1187.04 34.6724 1185.72 34.6724H1184.07V42.9847H1185.72ZM1204.29 43.4737H1198.96L1198.1 46H1194.45L1199.63 31.6979H1203.66L1208.84 46H1205.15L1204.29 43.4737ZM1203.4 40.7844L1201.63 35.5485L1199.87 40.7844H1203.4ZM1222.68 31.6979L1217.73 41.2734V46H1214.24V41.2734L1209.29 31.6979H1213.24L1216.01 37.6877L1218.77 31.6979H1222.68ZM1223.86 35.3244C1223.91 33.8711 1224.39 32.7505 1225.28 31.9628C1226.18 31.175 1227.39 30.7811 1228.93 30.7811C1229.95 30.7811 1230.82 30.9577 1231.54 31.3108C1232.27 31.664 1232.82 32.1461 1233.19 32.7573C1233.57 33.3685 1233.76 34.0544 1233.76 34.815C1233.76 35.7115 1233.53 36.4449 1233.09 37.0154C1232.64 37.5722 1232.11 37.9525 1231.52 38.1563V38.2378C1232.29 38.4958 1232.9 38.9237 1233.35 39.5213C1233.8 40.1189 1234.02 40.8863 1234.02 41.8235C1234.02 42.6656 1233.83 43.4126 1233.43 44.0645C1233.05 44.7029 1232.49 45.2054 1231.74 45.5722C1231.01 45.9389 1230.13 46.1222 1229.11 46.1222C1227.48 46.1222 1226.18 45.7216 1225.2 44.9202C1224.24 44.1189 1223.73 42.91 1223.67 41.2938H1227.06C1227.07 41.8914 1227.24 42.3668 1227.56 42.7199C1227.89 43.0594 1228.37 43.2292 1228.99 43.2292C1229.52 43.2292 1229.93 43.0798 1230.21 42.781C1230.51 42.4686 1230.66 42.0612 1230.66 41.5586C1230.66 40.9067 1230.45 40.4381 1230.03 40.1529C1229.62 39.854 1228.96 39.7046 1228.05 39.7046H1227.4V36.8727H1228.05C1228.75 36.8727 1229.3 36.7573 1229.72 36.5264C1230.16 36.2819 1230.38 35.8541 1230.38 35.2429C1230.38 34.7539 1230.24 34.3736 1229.97 34.102C1229.7 33.8303 1229.32 33.6945 1228.85 33.6945C1228.33 33.6945 1227.94 33.8507 1227.69 34.1631C1227.44 34.4755 1227.3 34.8626 1227.26 35.3244H1223.86ZM1243.42 35.141C1243.32 34.6385 1243.13 34.265 1242.85 34.0205C1242.58 33.7624 1242.2 33.6334 1241.69 33.6334C1240.92 33.6334 1240.36 33.9729 1240.02 34.6521C1239.68 35.3176 1239.51 36.377 1239.49 37.8303C1239.79 37.3549 1240.22 36.9814 1240.78 36.7098C1241.35 36.4381 1241.97 36.3023 1242.65 36.3023C1243.98 36.3023 1245.05 36.7233 1245.85 37.5654C1246.66 38.4075 1247.07 39.5824 1247.07 41.09C1247.07 42.0815 1246.87 42.9508 1246.46 43.6978C1246.07 44.4448 1245.48 45.0289 1244.71 45.4499C1243.95 45.871 1243.04 46.0815 1242 46.0815C1239.91 46.0815 1238.45 45.4295 1237.64 44.1257C1236.82 42.8082 1236.42 40.9202 1236.42 38.4619C1236.42 35.8812 1236.84 33.9662 1237.7 32.7166C1238.57 31.4534 1239.95 30.8219 1241.86 30.8219C1242.87 30.8219 1243.73 31.0256 1244.42 31.4331C1245.13 31.827 1245.66 32.3499 1246.01 33.0018C1246.38 33.6538 1246.6 34.3668 1246.66 35.141H1243.42ZM1241.81 39.0527C1241.23 39.0527 1240.74 39.2293 1240.35 39.5824C1239.97 39.922 1239.78 40.4109 1239.78 41.0493C1239.78 41.7012 1239.95 42.2106 1240.31 42.5773C1240.67 42.944 1241.19 43.1274 1241.86 43.1274C1242.45 43.1274 1242.92 42.9508 1243.26 42.5977C1243.61 42.2309 1243.79 41.7352 1243.79 41.1104C1243.79 40.472 1243.62 39.9695 1243.28 39.6028C1242.94 39.2361 1242.45 39.0527 1241.81 39.0527ZM1249.04 38.36C1249.04 36.0239 1249.49 34.1835 1250.39 32.8388C1251.3 31.4942 1252.76 30.8219 1254.77 30.8219C1256.78 30.8219 1258.23 31.4942 1259.13 32.8388C1260.04 34.1835 1260.49 36.0239 1260.49 38.36C1260.49 40.7233 1260.04 42.5773 1259.13 43.9219C1258.23 45.2666 1256.78 45.9389 1254.77 45.9389C1252.76 45.9389 1251.3 45.2666 1250.39 43.9219C1249.49 42.5773 1249.04 40.7233 1249.04 38.36ZM1257.07 38.36C1257.07 36.9882 1256.92 35.9356 1256.62 35.2021C1256.32 34.4551 1255.7 34.0816 1254.77 34.0816C1253.83 34.0816 1253.21 34.4551 1252.91 35.2021C1252.61 35.9356 1252.46 36.9882 1252.46 38.36C1252.46 39.2836 1252.52 40.051 1252.63 40.6622C1252.74 41.2598 1252.95 41.7488 1253.28 42.1291C1253.62 42.4958 1254.11 42.6791 1254.77 42.6791C1255.42 42.6791 1255.91 42.4958 1256.23 42.1291C1256.57 41.7488 1256.8 41.2598 1256.91 40.6622C1257.01 40.051 1257.07 39.2836 1257.07 38.36Z" fill="#FFDCD0"/>
<rect x="824" y="24" width="85.6232" height="28" rx="3.59936" fill="url(#paint3_linear_590_6)"/>
<path d="M835.281 40.2062C835.454 41.1161 835.983 41.5711 836.87 41.5711C837.481 41.5711 837.913 41.3004 838.166 40.7591C838.42 40.2177 838.546 39.3366 838.546 38.1157C838.293 38.4727 837.947 38.7492 837.51 38.945C837.072 39.1408 836.582 39.2387 836.041 39.2387C835.304 39.2387 834.647 39.0889 834.072 38.7895C833.496 38.4785 833.041 38.0235 832.707 37.4246C832.384 36.8141 832.223 36.077 832.223 35.2132C832.223 34.3608 832.396 33.6179 832.741 32.9844C833.098 32.3509 833.599 31.8614 834.244 31.5159C834.901 31.1703 835.673 30.9976 836.559 30.9976C838.264 30.9976 839.456 31.5274 840.136 32.5871C840.815 33.6467 841.155 35.2074 841.155 37.2691C841.155 38.7664 841.017 40.0046 840.74 40.9837C840.476 41.9512 840.021 42.6883 839.376 43.1951C838.742 43.7019 837.872 43.9553 836.767 43.9553C835.891 43.9553 835.143 43.7825 834.521 43.437C833.91 43.0914 833.438 42.6365 833.104 42.0721C832.782 41.5077 832.597 40.8858 832.551 40.2062H835.281ZM836.715 36.9063C837.199 36.9063 837.584 36.7623 837.872 36.4744C838.16 36.1749 838.304 35.7718 838.304 35.265C838.304 34.7121 838.155 34.286 837.855 33.9865C837.556 33.687 837.153 33.5373 836.646 33.5373C836.139 33.5373 835.736 33.6928 835.436 34.0038C835.148 34.3032 835.004 34.7179 835.004 35.2477C835.004 35.743 835.148 36.1461 835.436 36.4571C835.736 36.7566 836.162 36.9063 836.715 36.9063ZM842.386 37.4246C842.386 35.4435 842.766 33.8828 843.526 32.7425C844.298 31.6023 845.536 31.0321 847.241 31.0321C848.945 31.0321 850.178 31.6023 850.938 32.7425C851.71 33.8828 852.095 35.4435 852.095 37.4246C852.095 39.4287 851.71 41.0009 850.938 42.1412C850.178 43.2815 848.945 43.8516 847.241 43.8516C845.536 43.8516 844.298 43.2815 843.526 42.1412C842.766 41.0009 842.386 39.4287 842.386 37.4246ZM849.193 37.4246C849.193 36.2613 849.066 35.3686 848.813 34.7467C848.559 34.1132 848.035 33.7964 847.241 33.7964C846.446 33.7964 845.922 34.1132 845.668 34.7467C845.415 35.3686 845.288 36.2613 845.288 37.4246C845.288 38.2078 845.334 38.8586 845.427 39.3769C845.519 39.8837 845.703 40.2983 845.979 40.6208C846.267 40.9318 846.688 41.0873 847.241 41.0873C847.793 41.0873 848.208 40.9318 848.485 40.6208C848.772 40.2983 848.963 39.8837 849.055 39.3769C849.147 38.8586 849.193 38.2078 849.193 37.4246ZM853.069 34.4702C853.069 33.5373 853.334 32.8174 853.864 32.3106C854.405 31.8038 855.102 31.5504 855.954 31.5504C856.806 31.5504 857.498 31.8038 858.027 32.3106C858.557 32.8174 858.822 33.5373 858.822 34.4702C858.822 35.4032 858.557 36.1231 858.027 36.6299C857.498 37.1367 856.806 37.39 855.954 37.39C855.102 37.39 854.405 37.1367 853.864 36.6299C853.334 36.1231 853.069 35.4032 853.069 34.4702ZM864.8 31.7405L858.148 43.9035H855.298L861.949 31.7405H864.8ZM855.937 33.2781C855.384 33.2781 855.108 33.6755 855.108 34.4702C855.108 35.2535 855.384 35.6451 855.937 35.6451C856.202 35.6451 856.409 35.5472 856.559 35.3514C856.709 35.1556 856.783 34.8619 856.783 34.4702C856.783 33.6755 856.501 33.2781 855.937 33.2781ZM861.293 41.1737C861.293 40.2407 861.558 39.5209 862.087 39.0141C862.617 38.5073 863.308 38.2539 864.161 38.2539C865.013 38.2539 865.704 38.5073 866.234 39.0141C866.764 39.5209 867.029 40.2407 867.029 41.1737C867.029 42.1067 866.764 42.8265 866.234 43.3333C865.704 43.8401 865.013 44.0935 864.161 44.0935C863.308 44.0935 862.617 43.8401 862.087 43.3333C861.558 42.8265 861.293 42.1067 861.293 41.1737ZM864.143 39.9816C863.878 39.9816 863.671 40.0795 863.521 40.2753C863.383 40.4711 863.314 40.7706 863.314 41.1737C863.314 41.9569 863.591 42.3485 864.143 42.3485C864.408 42.3485 864.616 42.2506 864.765 42.0548C864.915 41.859 864.99 41.5653 864.99 41.1737C864.99 40.7821 864.915 40.4884 864.765 40.2926C864.616 40.0853 864.408 39.9816 864.143 39.9816ZM877.344 44.0244C876.203 44.0244 875.155 43.7595 874.199 43.2297C873.255 42.6998 872.5 41.9627 871.936 41.0182C871.383 40.0622 871.107 38.991 871.107 37.8047C871.107 36.6183 871.383 35.5529 871.936 34.6085C872.5 33.664 873.255 32.9268 874.199 32.397C875.155 31.8672 876.203 31.6023 877.344 31.6023C878.484 31.6023 879.526 31.8672 880.471 32.397C881.427 32.9268 882.175 33.664 882.717 34.6085C883.27 35.5529 883.546 36.6183 883.546 37.8047C883.546 38.991 883.27 40.0622 882.717 41.0182C882.164 41.9627 881.415 42.6998 880.471 43.2297C879.526 43.7595 878.484 44.0244 877.344 44.0244ZM877.344 41.3292C878.311 41.3292 879.083 41.0067 879.659 40.3617C880.246 39.7167 880.54 38.8643 880.54 37.8047C880.54 36.7335 880.246 35.8812 879.659 35.2477C879.083 34.6027 878.311 34.2802 877.344 34.2802C876.364 34.2802 875.581 34.5969 874.994 35.2304C874.418 35.8639 874.13 36.722 874.13 37.8047C874.13 38.8759 874.418 39.734 874.994 40.379C875.581 41.0124 876.364 41.3292 877.344 41.3292ZM892.74 31.775V34.142H887.798V36.699H891.496V38.9968H887.798V43.9035H884.844V31.775H892.74ZM901.842 31.775V34.142H896.901V36.699H900.598V38.9968H896.901V43.9035H893.947V31.775H901.842Z" fill="#FFDCD0"/>
<path d="M976.514 31.1495V38.4839C976.514 39.2875 976.724 39.9044 977.143 40.3345C977.561 40.7533 978.15 40.9627 978.908 40.9627C979.678 40.9627 980.272 40.7533 980.691 40.3345C981.11 39.9044 981.319 39.2875 981.319 38.4839V31.1495H983.713V38.4669C983.713 39.4743 983.492 40.3288 983.051 41.0306C982.621 41.721 982.038 42.2417 981.302 42.5925C980.578 42.9434 979.768 43.1188 978.874 43.1188C977.991 43.1188 977.188 42.9434 976.463 42.5925C975.75 42.2417 975.184 41.721 974.766 41.0306C974.347 40.3288 974.138 39.4743 974.138 38.4669V31.1495H976.514ZM989.609 43.1528C988.839 43.1528 988.149 43.017 987.537 42.7453C986.926 42.4624 986.44 42.0832 986.077 41.6078C985.727 41.1324 985.534 40.6061 985.5 40.0289H987.894C987.939 40.3911 988.115 40.691 988.42 40.9287C988.737 41.1664 989.128 41.2852 989.592 41.2852C990.045 41.2852 990.395 41.1947 990.644 41.0136C990.905 40.8325 991.035 40.6005 991.035 40.3175C991.035 40.0119 990.876 39.7855 990.56 39.6384C990.254 39.4799 989.762 39.3102 989.082 39.1291C988.381 38.9593 987.803 38.7839 987.351 38.6028C986.909 38.4217 986.524 38.1444 986.196 37.7708C985.879 37.3973 985.721 36.8937 985.721 36.2598C985.721 35.7392 985.868 35.2638 986.162 34.8337C986.468 34.4036 986.898 34.064 987.453 33.815C988.019 33.566 988.681 33.4415 989.439 33.4415C990.56 33.4415 991.454 33.7245 992.121 34.2904C992.789 34.845 993.157 35.5977 993.225 36.5484H990.95C990.916 36.1749 990.758 35.8807 990.475 35.6656C990.203 35.4392 989.835 35.326 989.371 35.326C988.941 35.326 988.607 35.4053 988.369 35.5637C988.143 35.7222 988.03 35.9429 988.03 36.2259C988.03 36.5428 988.188 36.7861 988.505 36.9559C988.822 37.1144 989.314 37.2785 989.982 37.4483C990.661 37.618 991.222 37.7935 991.663 37.9746C992.105 38.1557 992.484 38.4386 992.801 38.8235C993.129 39.197 993.299 39.695 993.31 40.3175C993.31 40.8608 993.157 41.3475 992.852 41.7776C992.557 42.2077 992.127 42.5473 991.561 42.7963C991.007 43.034 990.356 43.1528 989.609 43.1528ZM1004 38.0934C1004 38.433 1003.98 38.7386 1003.94 39.0102H997.061C997.117 39.6893 997.355 40.2213 997.774 40.6061C998.193 40.991 998.708 41.1834 999.319 41.1834C1000.2 41.1834 1000.83 40.8042 1001.2 40.0459H1003.77C1003.5 40.9513 1002.97 41.6984 1002.2 42.2869C1001.44 42.8642 1000.49 43.1528 999.37 43.1528C998.464 43.1528 997.649 42.9547 996.925 42.5586C996.212 42.1511 995.652 41.5795 995.244 40.8438C994.848 40.1081 994.65 39.2592 994.65 38.2972C994.65 37.3238 994.848 36.4692 995.244 35.7335C995.64 34.9978 996.195 34.4319 996.908 34.0357C997.621 33.6396 998.442 33.4415 999.37 33.4415C1000.26 33.4415 1001.06 33.6339 1001.76 34.0188C1002.48 34.4036 1003.03 34.9525 1003.41 35.6656C1003.81 36.3673 1004 37.1766 1004 38.0934ZM1001.54 37.4143C1001.53 36.8031 1001.31 36.3164 1000.88 35.9542C1000.45 35.5807 999.924 35.394 999.302 35.394C998.713 35.394 998.215 35.5751 997.808 35.9372C997.412 36.2881 997.168 36.7805 997.078 37.4143H1001.54ZM1009.21 37.0578C1009.21 35.892 1009.47 34.8507 1009.99 33.9339C1010.52 33.0057 1011.24 32.287 1012.14 31.7777C1013.06 31.257 1014.09 30.9967 1015.22 30.9967C1016.54 30.9967 1017.7 31.3363 1018.7 32.0154C1019.69 32.6945 1020.39 33.6339 1020.79 34.8337H1018.05C1017.78 34.2678 1017.4 33.8433 1016.9 33.5604C1016.41 33.2774 1015.85 33.1359 1015.2 33.1359C1014.51 33.1359 1013.89 33.3 1013.35 33.6283C1012.82 33.9452 1012.4 34.3979 1012.09 34.9865C1011.8 35.5751 1011.65 36.2655 1011.65 37.0578C1011.65 37.8388 1011.8 38.5292 1012.09 39.1291C1012.4 39.7176 1012.82 40.176 1013.35 40.5043C1013.89 40.8212 1014.51 40.9796 1015.2 40.9796C1015.85 40.9796 1016.41 40.8382 1016.9 40.5552C1017.4 40.2609 1017.78 39.8308 1018.05 39.2649H1020.79C1020.39 40.476 1019.69 41.4211 1018.7 42.1002C1017.71 42.768 1016.55 43.1019 1015.22 43.1019C1014.09 43.1019 1013.06 42.8472 1012.14 42.3379C1011.24 41.8172 1010.52 41.0985 1009.99 40.1817C1009.47 39.2649 1009.21 38.2236 1009.21 37.0578ZM1026.99 43.1528C1026.09 43.1528 1025.27 42.9547 1024.55 42.5586C1023.82 42.1511 1023.25 41.5795 1022.83 40.8438C1022.43 40.1081 1022.22 39.2592 1022.22 38.2972C1022.22 37.3351 1022.43 36.4862 1022.85 35.7505C1023.28 35.0148 1023.86 34.4489 1024.6 34.0527C1025.34 33.6452 1026.16 33.4415 1027.06 33.4415C1027.97 33.4415 1028.79 33.6452 1029.52 34.0527C1030.26 34.4489 1030.84 35.0148 1031.25 35.7505C1031.68 36.4862 1031.9 37.3351 1031.9 38.2972C1031.9 39.2592 1031.68 40.1081 1031.24 40.8438C1030.81 41.5795 1030.22 42.1511 1029.47 42.5586C1028.74 42.9547 1027.91 43.1528 1026.99 43.1528ZM1026.99 41.0815C1027.42 41.0815 1027.83 40.9796 1028.2 40.7759C1028.58 40.5609 1028.89 40.2439 1029.12 39.8252C1029.34 39.4064 1029.46 38.897 1029.46 38.2972C1029.46 37.403 1029.22 36.7182 1028.74 36.2428C1028.28 35.7561 1027.71 35.5128 1027.03 35.5128C1026.35 35.5128 1025.78 35.7561 1025.31 36.2428C1024.86 36.7182 1024.63 37.403 1024.63 38.2972C1024.63 39.1913 1024.85 39.8817 1025.3 40.3684C1025.75 40.8438 1026.31 41.0815 1026.99 41.0815ZM1033.03 38.2632C1033.03 37.3124 1033.22 36.4692 1033.59 35.7335C1033.98 34.9978 1034.5 34.4319 1035.15 34.0357C1035.81 33.6396 1036.54 33.4415 1037.34 33.4415C1037.96 33.4415 1038.54 33.5773 1039.09 33.849C1039.65 34.1093 1040.09 34.4602 1040.42 34.9016V30.4364H1042.83V43H1040.42V41.6078C1040.12 42.0719 1039.71 42.4454 1039.18 42.7284C1038.65 43.0113 1038.03 43.1528 1037.33 43.1528C1036.54 43.1528 1035.81 42.9491 1035.15 42.5416C1034.5 42.1341 1033.98 41.5625 1033.59 40.8268C1033.22 40.0798 1033.03 39.2253 1033.03 38.2632ZM1040.43 38.2972C1040.43 37.7199 1040.32 37.2276 1040.09 36.8201C1039.87 36.4013 1039.56 36.0844 1039.18 35.8693C1038.79 35.643 1038.38 35.5298 1037.94 35.5298C1037.5 35.5298 1037.09 35.6373 1036.72 35.8524C1036.34 36.0674 1036.04 36.3843 1035.8 36.8031C1035.57 37.2106 1035.46 37.6973 1035.46 38.2632C1035.46 38.8291 1035.57 39.3271 1035.8 39.7572C1036.04 40.176 1036.34 40.4986 1036.72 40.725C1037.1 40.9513 1037.51 41.0645 1037.94 41.0645C1038.38 41.0645 1038.79 40.957 1039.18 40.742C1039.56 40.5156 1039.87 40.1987 1040.09 39.7912C1040.32 39.3724 1040.43 38.8744 1040.43 38.2972ZM1053.89 38.0934C1053.89 38.433 1053.87 38.7386 1053.83 39.0102H1046.95C1047.01 39.6893 1047.24 40.2213 1047.66 40.6061C1048.08 40.991 1048.6 41.1834 1049.21 41.1834C1050.09 41.1834 1050.72 40.8042 1051.09 40.0459H1053.66C1053.38 40.9513 1052.86 41.6984 1052.09 42.2869C1051.32 42.8642 1050.38 43.1528 1049.26 43.1528C1048.35 43.1528 1047.54 42.9547 1046.81 42.5586C1046.1 42.1511 1045.54 41.5795 1045.13 40.8438C1044.74 40.1081 1044.54 39.2592 1044.54 38.2972C1044.54 37.3238 1044.74 36.4692 1045.13 35.7335C1045.53 34.9978 1046.08 34.4319 1046.8 34.0357C1047.51 33.6396 1048.33 33.4415 1049.26 33.4415C1050.15 33.4415 1050.95 33.6339 1051.65 34.0188C1052.37 34.4036 1052.91 34.9525 1053.3 35.6656C1053.7 36.3673 1053.89 37.1766 1053.89 38.0934ZM1051.43 37.4143C1051.42 36.8031 1051.2 36.3164 1050.77 35.9542C1050.34 35.5807 1049.81 35.394 1049.19 35.394C1048.6 35.394 1048.1 35.5751 1047.7 35.9372C1047.3 36.2881 1047.06 36.7805 1046.97 37.4143H1051.43Z" fill="#FFDCD0"/>
<defs>
<linearGradient id="paint0_linear_590_6" x1="468.984" y1="37.4862" x2="469.018" y2="53.6943" gradientUnits="userSpaceOnUse">
<stop stop-color="#F55A47"/>
<stop offset="1" stop-color="#F77B26"/>
</linearGradient>
<linearGradient id="paint1_linear_590_6" x1="718.998" y1="36.4774" x2="719.921" y2="63.0267" gradientUnits="userSpaceOnUse">
<stop stop-color="#F55A47"/>
<stop offset="1" stop-color="#F77B26"/>
</linearGradient>
<linearGradient id="paint2_linear_590_6" x1="1172" y1="37.9812" x2="1172.2" y2="60.0224" gradientUnits="userSpaceOnUse">
<stop stop-color="#F55A47"/>
<stop offset="1" stop-color="#F77B26"/>
</linearGradient>
<linearGradient id="paint3_linear_590_6" x1="866.81" y1="37.9845" x2="867.152" y2="56.1313" gradientUnits="userSpaceOnUse">
<stop stop-color="#F55A47"/>
<stop offset="1" stop-color="#F77B26"/>
</linearGradient>
</defs>
</svg>
