<svg width="688" height="118" viewBox="0 0 688 118" fill="none" xmlns="http://www.w3.org/2000/svg">
<g clip-path="url(#clip0_161_2)">
<path fill-rule="evenodd" clip-rule="evenodd" d="M7.95 38.6552C-2.65 49.2552 -2.65 66.4392 7.95 77.0382L38.655 107.744C49.255 118.343 66.439 118.343 77.038 107.744L107.744 77.0382C118.343 66.4382 118.343 49.2542 107.744 38.6552L77.038 7.95023C66.438 -2.64877 49.254 -2.64877 38.655 7.95023L7.95 38.6552ZM71.28 71.2812C78.7 63.8612 78.7 51.8322 71.28 44.4132C63.861 36.9932 51.832 36.9932 44.413 44.4132C36.993 51.8332 36.993 63.8612 44.413 71.2812C51.833 78.7002 63.861 78.7002 71.281 71.2812H71.28V71.2812Z" fill="white"/>
<path d="M161.437 78.3624C161.48 69.8134 166.705 64.8044 174.218 64.8044C181.688 64.8044 186.092 69.5974 186.049 77.7584V116.705H204.443V74.4764C204.486 58.9324 195.332 49.5194 181.515 49.5194C171.454 49.5194 164.719 54.2694 161.696 62.0844H160.919V28.2764H143.043V116.705H161.437V78.3624V78.3624ZM232.967 117.957C242.768 117.957 249.115 113.682 252.354 107.508H252.872V116.705H270.316V71.9724C270.316 56.1694 256.931 49.5194 242.164 49.5194C226.274 49.5194 215.825 57.1194 213.277 69.2094L230.29 70.5904C231.542 66.1864 235.471 62.9484 242.077 62.9484C248.338 62.9484 251.922 66.1004 251.922 71.5404V71.8004C251.922 76.0744 247.388 76.6354 235.86 77.7584C222.733 78.9674 210.946 83.3714 210.946 98.1814C210.946 111.307 220.315 117.957 232.967 117.957V117.957ZM238.234 105.262C232.578 105.262 228.519 102.629 228.519 97.5774C228.519 92.3954 232.794 89.8474 239.271 88.9414C243.286 88.3804 249.849 87.4304 252.051 85.9614V93.0004C252.051 99.9514 246.309 105.262 238.234 105.262ZM334.904 69.2954C333.264 57.0754 323.419 49.5194 306.666 49.5194C289.697 49.5194 278.514 57.3784 278.557 70.1594C278.514 80.0894 284.774 86.5234 297.728 89.1144L309.213 91.4024C314.999 92.5684 317.633 94.6844 317.719 98.0084C317.633 101.938 313.358 104.744 306.925 104.744C300.362 104.744 296.001 101.938 294.878 96.5404L276.786 97.4904C278.514 110.185 289.308 118 306.882 118C324.067 118 336.372 109.235 336.416 96.1524C336.372 86.5664 330.112 80.8234 317.244 78.1904L305.241 75.7724C299.066 74.4334 296.778 72.3174 296.821 69.1224C296.778 65.1504 301.269 62.5594 306.968 62.5594C313.358 62.5594 317.158 66.0574 318.065 70.3314L334.904 69.2954V69.2954ZM361.528 78.3624C361.572 69.8134 366.796 64.8044 374.309 64.8044C381.779 64.8044 386.183 69.5974 386.14 77.7584V116.705H404.534V74.4764C404.577 58.9324 395.423 49.5194 381.606 49.5194C371.546 49.5194 364.81 54.2694 361.788 62.0844H361.01V28.2764H343.135V116.705H361.528V78.3624ZM432.54 78.3624C432.583 69.8134 437.678 64.8044 445.105 64.8044C452.488 64.8044 456.936 69.6404 456.892 77.7584V116.705H475.286V74.4764C475.286 59.0194 466.219 49.5194 452.402 49.5194C442.557 49.5194 435.433 54.3554 432.453 62.0844H431.676V50.3834H414.146V116.705H432.54V78.3624V78.3624ZM514.885 118C535.007 118 547.528 104.226 547.528 83.8034C547.528 63.2504 535.007 49.5194 514.885 49.5194C494.764 49.5194 482.243 63.2504 482.243 83.8034C482.243 104.226 494.764 118 514.885 118ZM514.972 103.751C505.688 103.751 500.939 95.2454 500.939 83.6734C500.939 72.1014 505.688 63.5534 514.972 63.5534C524.082 63.5534 528.832 72.1024 528.832 83.6734C528.832 95.2454 524.082 103.751 514.972 103.751ZM579.064 117.784C589.772 117.784 595.342 111.61 597.89 106.083H598.667V116.705H616.802V28.2754H598.451V61.5234H597.89C595.428 56.1264 590.117 49.5194 579.021 49.5194C564.47 49.5194 552.164 60.8324 552.164 83.6304C552.164 105.824 563.951 117.784 579.064 117.784V117.784ZM584.893 103.147C575.869 103.147 570.946 95.1154 570.946 83.5444C570.946 72.0584 575.782 64.1574 584.893 64.1574C593.831 64.1574 598.839 71.7134 598.839 83.5444C598.839 95.3744 593.744 103.147 584.893 103.147V103.147ZM657.286 118C673.694 118 684.747 110.012 687.338 97.7064L670.326 96.5844C668.469 101.635 663.719 104.269 657.588 104.269C648.391 104.269 642.562 98.1814 642.562 88.2934V88.2504H687.727V83.1984C687.727 60.6594 674.082 49.5194 656.552 49.5194C637.035 49.5194 624.384 63.3794 624.384 83.8464C624.384 104.874 636.863 118 657.286 118V118ZM642.562 76.8514C642.951 69.2954 648.693 63.2504 656.854 63.2504C664.842 63.2504 670.369 68.9504 670.412 76.8514H642.562Z" fill="white"/>
</g>
<defs>
<clipPath id="clip0_161_2">
<rect width="688" height="118" fill="white"/>
</clipPath>
</defs>
</svg>
