<svg xmlns="http://www.w3.org/2000/svg" xmlns:xlink="http://www.w3.org/1999/xlink" width="1300" height="400" viewBox="0 0 1300 400">
  <defs>
    <linearGradient id="linear-gradient" y1="0.5" x2="1" y2="0.5" gradientUnits="objectBoundingBox">
      <stop offset="0" stop-color="#5848ea"/>
      <stop offset="1" stop-color="#9549eb"/>
    </linearGradient>
  </defs>
  <g id="Group_6" data-name="Group 6" transform="translate(-10097 -200)">
    <rect id="Rectangle_2_1_" data-name="Rectangle 2 (1)" width="1300" height="400" rx="200" transform="translate(10097 200)" fill="url(#linear-gradient)"/>
    <path id="Explore_now" data-name="Explore now" d="M77.974,84.8H20.057V61.516H75.91V43.39H20.057V19.663H77.974V.8H.752V103.959H77.974Zm48.854-28.884L112.533,31.305H91.017v.589l23.874,35.221-25.348,36.4v.442h21.516l15.769-24.316L142.6,103.959h21.516v-.442l-25.348-36.4,23.874-35.221v-.589H141.122Zm86.687,32.421c-12.232,0-20.632-9.284-20.632-20.632s7.663-20.632,20.632-20.632,20.632,9.284,20.632,20.632S225.746,88.337,213.515,88.337Zm-22.253,45.979V95.411c5.158,7.958,16.505,10.316,24.169,10.316,23.284,0,36.695-16.8,36.695-38.021,0-21.369-14.884-38.021-37.284-38.021-8.253,0-17.979,3.537-23.579,11.642l-1.179-10.021h-16.8V134.317ZM265.389.947V103.959H283.22V.947Zm67.722,28.884c-23.137,0-37.579,17.095-37.579,37.874,0,20.926,14.147,37.874,37.727,37.874s37.874-16.947,37.874-37.874C371.132,46.927,356.248,29.832,333.111,29.832Zm.147,16.358c12.084,0,19.747,10.611,19.747,21.516,0,11.053-6.632,21.369-19.747,21.369S313.51,78.758,313.51,67.706C313.51,56.8,320.289,46.19,333.258,46.19Zm50.285-14.884v72.653h17.979V65.643c0-13.411,8.695-18.421,18.126-18.421a17.962,17.962,0,0,1,12.969,4.716l8.105-15.621c-3.979-3.979-11.2-6.926-18.716-6.926-7.368,0-14.884,1.326-20.484,10.316l-1.326-8.4ZM519.505,74.043c2.8-29.916-12.379-44.948-36.695-44.948-23.579,0-38.611,15.916-38.611,38.021,0,23.284,14.884,38.758,39.937,38.758,11.053,0,23.579-3.832,31.242-11.79L503.884,82.737c-4.126,4.274-12.821,6.779-19.453,6.779-12.674,0-20.484-6.484-21.663-15.474ZM463.063,59.158c2.653-9.432,10.611-14.147,20.337-14.147,10.316,0,17.684,4.716,18.863,14.147Zm171.561,44.8V65.79c0-22.842-13.705-35.663-30.8-35.663-9.137,0-16.505,3.684-23.874,10.905l-1.179-9.874H562.707v72.8h17.832V66.821c0-11.053,7.516-20.337,18.569-20.337,11.495,0,17.537,8.4,17.537,19.453v38.021Zm49.641-74.127c-23.137,0-37.579,17.095-37.579,37.874,0,20.926,14.147,37.874,37.727,37.874s37.874-16.947,37.874-37.874C722.286,46.927,707.4,29.832,684.264,29.832Zm.147,16.358c12.084,0,19.747,10.611,19.747,21.516,0,11.053-6.632,21.369-19.747,21.369s-19.748-10.316-19.748-21.369C664.664,56.8,671.443,46.19,684.412,46.19ZM782.52,31.158,766.751,85.832,750.1,31.158H730.056l25.495,73.1h20.926l7.516-21.516,6.484-24.316,6.484,24.316,7.516,21.516H825.4l25.348-73.1H830.857L814.2,85.832,798.289,31.158Z" transform="translate(10322.248 338.442)" fill="#fff"/>
  </g>
</svg>
