<svg width="180" height="50" viewBox="0 0 180 50" fill="none" xmlns="http://www.w3.org/2000/svg">
<rect width="180" height="50" rx="25" fill="url(#paint0_linear_624_450)"/>
<path d="M33.278 27.66H26.204V24.816H33.026V22.602H26.204V19.704H33.278V17.4H23.846C23.846 21.594 23.846 25.806 23.846 30H33.278V27.66ZM39.2451 24.132L37.4991 21.126H34.8711V21.198L37.7871 25.5L34.6911 29.946V30H37.3191L39.2451 27.03L41.1711 30H43.7991V29.946L40.7031 25.5L43.6191 21.198V21.126H40.9911L39.2451 24.132ZM49.8332 28.092C48.3392 28.092 47.3132 26.958 47.3132 25.572C47.3132 24.186 48.2492 23.052 49.8332 23.052C51.4172 23.052 52.3532 24.186 52.3532 25.572C52.3532 26.958 51.3272 28.092 49.8332 28.092ZM47.1152 33.708V28.956C47.7452 29.928 49.1312 30.216 50.0672 30.216C52.9112 30.216 54.5492 28.164 54.5492 25.572C54.5492 22.962 52.7312 20.928 49.9952 20.928C48.9872 20.928 47.7992 21.36 47.1152 22.35L46.9712 21.126H44.9192V33.708H47.1152ZM56.1692 17.418V30H58.3472V17.418H56.1692ZM64.4409 20.946C61.6149 20.946 59.8509 23.034 59.8509 25.572C59.8509 28.128 61.5789 30.198 64.4589 30.198C67.3389 30.198 69.0849 28.128 69.0849 25.572C69.0849 23.034 67.2669 20.946 64.4409 20.946ZM64.4589 22.944C65.9349 22.944 66.8709 24.24 66.8709 25.572C66.8709 26.922 66.0609 28.182 64.4589 28.182C62.8569 28.182 62.0469 26.922 62.0469 25.572C62.0469 24.24 62.8749 22.944 64.4589 22.944ZM70.6009 21.126V30H72.7969V25.32C72.7969 23.682 73.8589 23.07 75.0109 23.07C75.7309 23.07 76.1449 23.268 76.5949 23.646L77.5849 21.738C77.0989 21.252 76.2169 20.892 75.2989 20.892C74.3989 20.892 73.4809 21.054 72.7969 22.152L72.6349 21.126H70.6009ZM87.2075 26.346C87.5495 22.692 85.6955 20.856 82.7255 20.856C79.8455 20.856 78.0095 22.8 78.0095 25.5C78.0095 28.344 79.8275 30.234 82.8875 30.234C84.2375 30.234 85.7675 29.766 86.7035 28.794L85.2995 27.408C84.7955 27.93 83.7335 28.236 82.9235 28.236C81.3755 28.236 80.4215 27.444 80.2775 26.346H87.2075ZM80.3135 24.528C80.6375 23.376 81.6095 22.8 82.7975 22.8C84.0575 22.8 84.9575 23.376 85.1015 24.528H80.3135ZM98.6764 27.426C98.1364 27.966 97.4344 28.164 96.7324 28.164C95.3644 28.164 94.2124 27.264 94.2124 25.572C94.2124 24.024 95.2924 22.944 96.7684 22.944C97.3804 22.944 98.0284 23.178 98.5504 23.646L99.9364 22.188C98.9644 21.234 97.9924 20.874 96.7324 20.874C94.1584 20.874 92.0164 22.422 92.0164 25.572C92.0164 28.722 94.1584 30.27 96.7324 30.27C98.0464 30.27 99.1264 29.874 100.152 28.866L98.6764 27.426ZM105.468 20.946C102.642 20.946 100.878 23.034 100.878 25.572C100.878 28.128 102.606 30.198 105.486 30.198C108.366 30.198 110.112 28.128 110.112 25.572C110.112 23.034 108.294 20.946 105.468 20.946ZM105.486 22.944C106.962 22.944 107.898 24.24 107.898 25.572C107.898 26.922 107.088 28.182 105.486 28.182C103.884 28.182 103.074 26.922 103.074 25.572C103.074 24.24 103.902 22.944 105.486 22.944ZM111.682 21.126V25.788C111.682 28.542 113.23 30.144 115.354 30.144C116.596 30.144 117.442 29.712 118.36 28.812L118.504 30.018H120.466V21.126H118.288V25.662C118.288 27.012 117.37 28.146 116.02 28.146C114.616 28.146 113.878 27.12 113.878 25.77V21.126H111.682ZM122.404 21.126V30H124.6V25.32C124.6 23.682 125.662 23.07 126.814 23.07C127.534 23.07 127.948 23.268 128.398 23.646L129.388 21.738C128.902 21.252 128.02 20.892 127.102 20.892C126.202 20.892 125.284 21.054 124.6 22.152L124.438 21.126H122.404ZM137.228 22.044C136.202 21.144 135.158 20.874 133.772 20.874C132.152 20.874 130.028 21.594 130.028 23.646C130.028 25.662 132.026 26.274 133.7 26.4C134.96 26.472 135.464 26.724 135.464 27.336C135.464 27.984 134.69 28.416 133.862 28.398C132.872 28.38 131.432 27.858 130.802 27.156L129.722 28.722C131.018 30.072 132.422 30.306 133.826 30.306C136.364 30.306 137.642 28.956 137.642 27.39C137.642 25.032 135.518 24.654 133.844 24.546C132.71 24.474 132.188 24.15 132.188 23.574C132.188 23.016 132.764 22.692 133.808 22.692C134.654 22.692 135.374 22.89 136.004 23.484L137.228 22.044ZM147.852 26.346C148.194 22.692 146.34 20.856 143.37 20.856C140.49 20.856 138.654 22.8 138.654 25.5C138.654 28.344 140.472 30.234 143.532 30.234C144.882 30.234 146.412 29.766 147.348 28.794L145.944 27.408C145.44 27.93 144.378 28.236 143.568 28.236C142.02 28.236 141.066 27.444 140.922 26.346H147.852ZM140.958 24.528C141.282 23.376 142.254 22.8 143.442 22.8C144.702 22.8 145.602 23.376 145.746 24.528H140.958ZM156.564 22.044C155.538 21.144 154.494 20.874 153.108 20.874C151.488 20.874 149.364 21.594 149.364 23.646C149.364 25.662 151.362 26.274 153.036 26.4C154.296 26.472 154.8 26.724 154.8 27.336C154.8 27.984 154.026 28.416 153.198 28.398C152.208 28.38 150.768 27.858 150.138 27.156L149.058 28.722C150.354 30.072 151.758 30.306 153.162 30.306C155.7 30.306 156.978 28.956 156.978 27.39C156.978 25.032 154.854 24.654 153.18 24.546C152.046 24.474 151.524 24.15 151.524 23.574C151.524 23.016 152.1 22.692 153.144 22.692C153.99 22.692 154.71 22.89 155.34 23.484L156.564 22.044Z" fill="white"/>
<defs>
<linearGradient id="paint0_linear_624_450" x1="0" y1="25" x2="180" y2="25" gradientUnits="userSpaceOnUse">
<stop stop-color="#5848EA"/>
<stop offset="1" stop-color="#9549EB"/>
</linearGradient>
</defs>
</svg>
