<svg width="1104" height="440" viewBox="0 0 1104 440" fill="none" xmlns="http://www.w3.org/2000/svg">
<rect width="145.291" height="16.8453" transform="matrix(-1 0 0 1 145.289 28.373)" fill="#F77B26"/>
<rect width="145.291" height="16.8453" transform="matrix(-1 0 0 1 1103.37 28.373)" fill="#F77B26"/>
<rect width="284.62" height="16.9233" transform="matrix(-1 0 0 1 284.621 345.62)" fill="#2AAD1E"/>
<rect width="286.158" height="16.9233" transform="matrix(-1 0 0 1 1103.09 345.62)" fill="#2AAD1E"/>
<path d="M147.897 180.612H201.698V206.096H147.897V180.612ZM150.229 246.072H117.249V129.476H208.694V154.96H150.229V246.072ZM224.118 246.072V129.476H277.42C288.08 129.476 297.241 131.197 304.903 134.639C312.676 138.082 318.673 143.079 322.892 149.63C327.112 156.071 329.222 163.733 329.222 172.616C329.222 181.389 327.112 188.995 322.892 195.436C318.673 201.766 312.676 206.651 304.903 210.094C297.241 213.425 288.08 215.091 277.42 215.091H242.441L257.098 201.266V246.072H224.118ZM296.242 246.072L267.259 203.598H302.405L331.554 246.072H296.242ZM257.098 204.764L242.441 189.606H275.421C282.306 189.606 287.414 188.107 290.745 185.109C294.187 182.111 295.909 177.946 295.909 172.616C295.909 167.175 294.187 162.955 290.745 159.957C287.414 156.959 282.306 155.46 275.421 155.46H242.441L257.098 140.302V204.764ZM377.732 174.615H431.866V199.267H377.732V174.615ZM380.064 220.588H441.027V246.072H347.417V129.476H438.862V154.96H380.064V220.588ZM489.644 174.615H543.778V199.267H489.644V174.615ZM491.976 220.588H552.939V246.072H459.329V129.476H550.774V154.96H491.976V220.588ZM571.241 246.072V129.476H626.374C639.255 129.476 650.582 131.863 660.354 136.638C670.126 141.413 677.732 148.131 683.173 156.793C688.726 165.454 691.502 175.781 691.502 187.774C691.502 199.656 688.726 209.983 683.173 218.755C677.732 227.417 670.126 234.135 660.354 238.91C650.582 243.685 639.255 246.072 626.374 246.072H571.241ZM604.221 219.755H625.042C631.704 219.755 637.479 218.533 642.365 216.09C647.362 213.536 651.248 209.872 654.024 205.097C656.8 200.211 658.188 194.437 658.188 187.774C658.188 181 656.8 175.226 654.024 170.451C651.248 165.676 647.362 162.067 642.365 159.624C637.479 157.07 631.704 155.793 625.042 155.793H604.221V219.755ZM767.651 248.404C758.324 248.404 749.718 246.905 741.834 243.907C733.949 240.909 727.065 236.689 721.179 231.248C715.405 225.696 710.908 219.255 707.687 211.926C704.467 204.597 702.857 196.546 702.857 187.774C702.857 179.001 704.467 170.951 707.687 163.622C710.908 156.293 715.405 149.908 721.179 144.467C727.065 138.914 733.949 134.639 741.834 131.641C749.718 128.643 758.324 127.144 767.651 127.144C777.09 127.144 785.696 128.643 793.469 131.641C801.353 134.639 808.183 138.914 813.957 144.467C819.731 149.908 824.229 156.293 827.449 163.622C830.78 170.951 832.446 179.001 832.446 187.774C832.446 196.546 830.78 204.653 827.449 212.093C824.229 219.422 819.731 225.807 813.957 231.248C808.183 236.689 801.353 240.909 793.469 243.907C785.696 246.905 777.09 248.404 767.651 248.404ZM767.651 221.087C772.093 221.087 776.202 220.31 779.977 218.755C783.864 217.201 787.195 214.98 789.971 212.093C792.858 209.094 795.079 205.541 796.634 201.432C798.3 197.324 799.132 192.771 799.132 187.774C799.132 182.666 798.3 178.113 796.634 174.115C795.079 170.007 792.858 166.509 789.971 163.622C787.195 160.624 783.864 158.347 779.977 156.793C776.202 155.238 772.093 154.461 767.651 154.461C763.21 154.461 759.045 155.238 755.159 156.793C751.383 158.347 748.052 160.624 745.165 163.622C742.389 166.509 740.168 170.007 738.502 174.115C736.948 178.113 736.17 182.666 736.17 187.774C736.17 192.771 736.948 197.324 738.502 201.432C740.168 205.541 742.389 209.094 745.165 212.093C748.052 214.98 751.383 217.201 755.159 218.755C759.045 220.31 763.21 221.087 767.651 221.087ZM849.719 246.072V129.476H876.87L925.174 208.761H910.849L957.821 129.476H984.971L985.305 246.072H954.989L954.656 175.615H959.82L924.674 234.579H910.016L873.871 175.615H880.201V246.072H849.719ZM377.738 416.404C368.188 416.404 358.971 415.238 350.088 412.906C341.315 410.463 334.153 407.354 328.6 403.579L339.427 379.26C344.646 382.591 350.643 385.367 357.417 387.588C364.301 389.698 371.13 390.753 377.904 390.753C382.457 390.753 386.121 390.364 388.898 389.587C391.674 388.699 393.673 387.588 394.894 386.256C396.227 384.812 396.893 383.146 396.893 381.259C396.893 378.594 395.671 376.484 393.228 374.929C390.785 373.374 387.621 372.097 383.734 371.098C379.847 370.099 375.517 369.099 370.742 368.1C366.078 367.1 361.359 365.823 356.584 364.269C351.92 362.714 347.645 360.715 343.758 358.272C339.871 355.718 336.707 352.443 334.264 348.445C331.821 344.336 330.599 339.173 330.599 332.954C330.599 325.958 332.487 319.629 336.263 313.966C340.149 308.302 345.923 303.75 353.585 300.307C361.248 296.865 370.797 295.144 382.235 295.144C389.897 295.144 397.393 296.032 404.721 297.809C412.161 299.474 418.769 301.973 424.543 305.304L414.382 329.79C408.83 326.791 403.333 324.57 397.892 323.127C392.451 321.572 387.176 320.795 382.068 320.795C377.516 320.795 373.851 321.295 371.075 322.294C368.299 323.182 366.3 324.404 365.079 325.958C363.857 327.513 363.246 329.29 363.246 331.289C363.246 333.843 364.412 335.897 366.744 337.452C369.187 338.895 372.352 340.117 376.239 341.116C380.236 342.004 384.567 342.948 389.231 343.948C394.006 344.947 398.725 346.224 403.389 347.779C408.164 349.222 412.495 351.221 416.381 353.775C420.268 356.218 423.377 359.494 425.709 363.603C428.152 367.6 429.373 372.653 429.373 378.76C429.373 385.534 427.43 391.808 423.543 397.582C419.768 403.245 414.049 407.798 406.387 411.241C398.836 414.683 389.286 416.404 377.738 416.404ZM430.616 414.072L482.085 297.476H514.566L566.201 414.072H531.889L491.579 313.633H504.572L464.263 414.072H430.616ZM458.766 391.419L467.261 367.1H524.227L532.721 391.419H458.766ZM575.551 414.072V297.476H608.531V387.921H664.165V414.072H575.551ZM707.531 342.615H761.665V367.267H707.531V342.615ZM709.863 388.588H770.826V414.072H677.215V297.476H768.661V322.96H709.863V388.588Z" fill="white"/>
<path d="M321.494 36.9998C321.494 57.0497 305.24 73.3034 285.19 73.3034C265.14 73.3034 248.887 57.0497 248.887 36.9998C248.887 16.9499 265.14 0.696289 285.19 0.696289C305.24 0.696289 321.494 16.9499 321.494 36.9998Z" fill="#80BA4F"/>
<path d="M237.36 48.8247C233.462 52.7233 227.614 54.8421 222.444 54.8421C207.782 54.8421 202.103 44.5871 202.018 34.7558C201.934 24.8398 208.121 14.161 222.444 14.161C227.614 14.161 232.868 15.9408 236.767 19.7546L244.225 12.5507C238.123 6.53323 230.495 3.48215 222.444 3.48215C201.001 3.48215 190.916 19.2461 191.001 34.7558C191.085 50.1808 200.408 65.3514 222.444 65.3514C231.004 65.3514 238.886 62.5546 244.988 56.5372L237.36 48.8247Z" fill="white"/>
<path d="M356.852 4.66868C349.564 4.66868 340.834 4.66868 333.546 4.66868V63.9954C340.834 63.9954 349.564 63.9954 356.852 63.9954C377.617 63.9954 386.77 48.8247 386.516 33.8235C386.262 19.1614 377.193 4.66868 356.852 4.66868ZM344.648 15.2627H356.852C369.735 15.2627 375.159 24.5008 375.413 33.7388C375.668 43.4006 370.328 53.2318 356.852 53.2318H344.648V15.2627Z" fill="white"/>
<path d="M405.998 63.9954V4.66868H394.895V63.9954H405.998Z" fill="white"/>
<path d="M455.481 41.4513L426.411 4.66868H417.343V63.9954H428.53V23.9922L459.719 64.0802V63.9954H466.668V4.58393H455.481V41.4513Z" fill="white"/>
<path d="M527.935 12.0421C521.833 6.02472 513.866 2.97363 505.9 2.97363C484.966 2.97363 474.541 18.3986 474.541 35.0948C474.541 50.6893 483.61 65.3514 505.9 65.3514C516.324 65.3514 523.698 61.3681 529.545 54.6726V29.6707H504.12V39.6714H519.29V50.1808C514.629 53.9099 510.561 54.9269 505.9 54.9269C491.153 54.9269 485.474 44.8413 485.474 35.0948C485.474 22.8905 493.187 13.2287 505.9 13.2287C511.069 13.2287 517.002 15.3475 520.985 19.1614L527.935 12.0421Z" fill="white"/>
<path d="M610.84 63.9955H615.332V4.66881H609.738L587.278 39.2478L564.565 4.66881C562.361 4.66881 561.344 4.66881 559.141 4.66881V63.9955H563.717V11.2795L586.6 46.028H588.126L610.84 11.2795V63.9955Z" fill="white"/>
<path d="M632.99 63.9955V4.66881H628.499V63.9955H632.99Z" fill="white"/>
<path d="M646.128 4.66881V63.9955H650.704V15.0086L690.708 63.9955H692.487V4.66881H687.995V53.7405L648.077 4.66881H646.128Z" fill="white"/>
<path d="M746.653 4.66881V41.5361C746.653 66.9619 710.209 67.0466 710.209 41.5361V4.66881H705.717V41.5361C705.717 72.6403 751.145 72.5555 751.145 41.5361V4.66881H746.653Z" fill="white"/>
<path d="M780.437 63.9955H785.013V8.82168H806.456V4.75356H758.994V8.82168H780.437V63.9955Z" fill="white"/>
<path d="M819.626 8.99119H856.07V4.66881H815.134V63.9955H857.087V59.5884H819.626V36.1967H854.374V32.0439H819.626V8.99119Z" fill="white"/>
<path d="M911.221 13.9068C905.374 5.17733 898 3.82129 889.525 3.82129C879.778 3.82129 866.726 7.7199 866.981 20.2633C866.981 31.1963 878.083 33.3999 888.932 35.5187C898.678 37.3833 908.509 39.3326 908.425 48.2316C908.425 58.7409 896.814 60.7749 889.525 60.7749C882.236 60.7749 872.913 57.2153 869.269 50.0114L865.201 52.0454C869.778 61.1139 880.287 64.9278 889.525 64.9278C899.441 64.9278 912.917 61.7072 913.001 48.3163C913.001 35.5187 901.136 33.4846 889.694 31.2811C879.694 29.4165 871.557 27.6367 871.557 20.0938C871.557 10.6015 882.575 8.05891 889.525 8.05891C896.22 8.14366 903.17 9.1607 907.492 16.1104L911.221 13.9068Z" fill="white"/>
<path fill-rule="evenodd" clip-rule="evenodd" d="M303.896 22.7634C304.617 23.6641 304.57 25.07 303.791 25.9036L280.007 51.3565C279.27 52.1449 278.133 52.1449 277.396 51.3565L266.585 39.787C265.806 38.9533 265.759 37.5475 266.48 36.6468C267.201 35.7462 268.417 35.6919 269.196 36.5255L278.702 46.6979L301.18 22.6421C301.959 21.8085 303.175 21.8628 303.896 22.7634Z" fill="white" stroke="white" stroke-width="0.949436" stroke-linecap="round" stroke-linejoin="round"/>
</svg>
