<svg width="266" height="50" viewBox="0 0 266 50" fill="none" xmlns="http://www.w3.org/2000/svg">
<rect width="266" height="50" rx="25" fill="url(#paint0_linear_624_1965)"/>
<path d="M43.448 17.4C41.378 17.4 39.326 17.4 37.274 17.4V19.614H41.072V24.618C41.072 26.526 40.064 28.02 37.904 28.02C35.762 28.02 34.718 26.922 34.718 24.762H32.378C32.378 28.326 34.682 30.252 37.904 30.252C41.378 30.252 43.448 27.876 43.448 24.618V17.4ZM49.5171 20.946C46.6911 20.946 44.9271 23.034 44.9271 25.572C44.9271 28.128 46.6551 30.198 49.5351 30.198C52.4151 30.198 54.1611 28.128 54.1611 25.572C54.1611 23.034 52.3431 20.946 49.5171 20.946ZM49.5351 22.944C51.0111 22.944 51.9471 24.24 51.9471 25.572C51.9471 26.922 51.1371 28.182 49.5351 28.182C47.9331 28.182 47.1231 26.922 47.1231 25.572C47.1231 24.24 47.9511 22.944 49.5351 22.944ZM57.873 21.09V30H55.677V21.09H57.873ZM55.479 18.624C55.479 20.334 58.071 20.334 58.071 18.624C58.071 16.914 55.479 16.914 55.479 18.624ZM68.5906 30V25.338C68.5906 22.548 66.9166 20.982 64.8286 20.982C63.7126 20.982 62.8126 21.432 61.9126 22.314L61.7686 21.108H59.8066V30H61.9846V25.464C61.9846 24.114 62.9026 22.98 64.2526 22.98C65.6566 22.98 66.3946 24.006 66.3946 25.356V30H68.5906ZM81.0825 22.35C80.5785 21.468 79.4445 20.91 78.2565 20.91C75.6645 20.892 73.6305 22.494 73.6305 25.554C73.6305 28.668 75.5745 30.288 78.2025 30.27C79.1925 30.252 80.5785 29.748 81.0825 28.704L81.1905 30H83.2605V21.126H81.1545L81.0825 22.35ZM78.4545 22.872C81.9105 22.872 81.9105 28.254 78.4545 28.254C76.9965 28.254 75.8265 27.246 75.8265 25.554C75.8265 23.862 76.9965 22.872 78.4545 22.872ZM92.1404 22.044C91.1144 21.144 90.0704 20.874 88.6844 20.874C87.0644 20.874 84.9404 21.594 84.9404 23.646C84.9404 25.662 86.9384 26.274 88.6124 26.4C89.8724 26.472 90.3764 26.724 90.3764 27.336C90.3764 27.984 89.6024 28.416 88.7744 28.398C87.7844 28.38 86.3444 27.858 85.7144 27.156L84.6344 28.722C85.9304 30.072 87.3344 30.306 88.7384 30.306C91.2764 30.306 92.5544 28.956 92.5544 27.39C92.5544 25.032 90.4304 24.654 88.7564 24.546C87.6224 24.474 87.1004 24.15 87.1004 23.574C87.1004 23.016 87.6764 22.692 88.7204 22.692C89.5664 22.692 90.2864 22.89 90.9164 23.484L92.1404 22.044ZM107.249 26.778C106.421 27.606 105.179 28.056 104.081 28.056C100.967 28.056 99.7609 25.878 99.7429 23.79C99.7249 21.684 101.039 19.416 104.081 19.416C105.179 19.416 106.295 19.794 107.123 20.604L108.707 19.074C107.411 17.796 105.791 17.148 104.081 17.148C99.5269 17.148 97.3849 20.496 97.4029 23.79C97.4209 27.066 99.4009 30.288 104.081 30.288C105.899 30.288 107.573 29.694 108.869 28.416L107.249 26.778ZM116.625 22.35C116.121 21.468 114.987 20.91 113.799 20.91C111.207 20.892 109.173 22.494 109.173 25.554C109.173 28.668 111.117 30.288 113.745 30.27C114.735 30.252 116.121 29.748 116.625 28.704L116.733 30H118.803V21.126H116.697L116.625 22.35ZM113.997 22.872C117.453 22.872 117.453 28.254 113.997 28.254C112.539 28.254 111.369 27.246 111.369 25.554C111.369 23.862 112.539 22.872 113.997 22.872ZM128.763 30V25.248C128.763 24.078 129.501 23.052 130.689 23.052C131.877 23.052 132.363 24.042 132.363 25.212V30H134.559V25.212C134.559 22.548 133.317 21 130.797 21C129.645 21 128.619 21.36 127.827 22.62C127.323 21.396 126.261 20.964 125.199 20.964C124.353 20.964 123.327 21.288 122.859 22.188L122.697 21.108H120.663V30H122.859V25.248C122.859 24.078 123.561 23.016 124.749 23.016C125.955 23.016 126.567 24.078 126.567 25.248V30H128.763ZM141.538 28.092C140.044 28.092 139.018 26.958 139.018 25.572C139.018 24.186 139.954 23.052 141.538 23.052C143.122 23.052 144.058 24.186 144.058 25.572C144.058 26.958 143.032 28.092 141.538 28.092ZM138.82 33.708V28.956C139.45 29.928 140.836 30.216 141.772 30.216C144.616 30.216 146.254 28.164 146.254 25.572C146.254 22.962 144.436 20.928 141.7 20.928C140.692 20.928 139.504 21.36 138.82 22.35L138.676 21.126H136.624V33.708H138.82ZM147.753 21.126V25.788C147.753 28.542 149.301 30.144 151.425 30.144C152.667 30.144 153.513 29.712 154.431 28.812L154.575 30.018H156.537V21.126H154.359V25.662C154.359 27.012 153.441 28.146 152.091 28.146C150.687 28.146 149.949 27.12 149.949 25.77V21.126H147.753ZM165.494 22.044C164.468 21.144 163.424 20.874 162.038 20.874C160.418 20.874 158.294 21.594 158.294 23.646C158.294 25.662 160.292 26.274 161.966 26.4C163.226 26.472 163.73 26.724 163.73 27.336C163.73 27.984 162.956 28.416 162.128 28.398C161.138 28.38 159.698 27.858 159.068 27.156L157.988 28.722C159.284 30.072 160.688 30.306 162.092 30.306C164.63 30.306 165.908 28.956 165.908 27.39C165.908 25.032 163.784 24.654 162.11 24.546C160.976 24.474 160.454 24.15 160.454 23.574C160.454 23.016 161.03 22.692 162.074 22.692C162.92 22.692 163.64 22.89 164.27 23.484L165.494 22.044ZM177.092 27.426C176.552 27.966 175.85 28.164 175.148 28.164C173.78 28.164 172.628 27.264 172.628 25.572C172.628 24.024 173.708 22.944 175.184 22.944C175.796 22.944 176.444 23.178 176.966 23.646L178.352 22.188C177.38 21.234 176.408 20.874 175.148 20.874C172.574 20.874 170.432 22.422 170.432 25.572C170.432 28.722 172.574 30.27 175.148 30.27C176.462 30.27 177.542 29.874 178.568 28.866L177.092 27.426ZM186.499 22.35C185.995 21.468 184.861 20.91 183.673 20.91C181.081 20.892 179.047 22.494 179.047 25.554C179.047 28.668 180.991 30.288 183.619 30.27C184.609 30.252 185.995 29.748 186.499 28.704L186.607 30H188.677V21.126H186.571L186.499 22.35ZM183.871 22.872C187.327 22.872 187.327 28.254 183.871 28.254C182.413 28.254 181.243 27.246 181.243 25.554C181.243 23.862 182.413 22.872 183.871 22.872ZM195.45 28.092C193.956 28.092 192.93 26.958 192.93 25.572C192.93 24.186 193.866 23.052 195.45 23.052C197.034 23.052 197.97 24.186 197.97 25.572C197.97 26.958 196.944 28.092 195.45 28.092ZM192.732 33.708V28.956C193.362 29.928 194.748 30.216 195.684 30.216C198.528 30.216 200.166 28.164 200.166 25.572C200.166 22.962 198.348 20.928 195.612 20.928C194.604 20.928 193.416 21.36 192.732 22.35L192.588 21.126H190.536V33.708H192.732ZM202.686 18.858V21.144H201.03V23.034H202.686V26.868C202.686 29.082 203.946 30.18 205.872 30.108C206.538 30.09 207.06 29.982 207.69 29.73L207.078 27.858C206.754 28.02 206.358 28.128 206.016 28.128C205.332 28.128 204.864 27.714 204.864 26.868V23.034H207.33V21.144H204.882V18.624L202.686 18.858ZM215.942 22.35C215.438 21.468 214.304 20.91 213.116 20.91C210.524 20.892 208.49 22.494 208.49 25.554C208.49 28.668 210.434 30.288 213.062 30.27C214.052 30.252 215.438 29.748 215.942 28.704L216.05 30H218.12V21.126H216.014L215.942 22.35ZM213.314 22.872C216.77 22.872 216.77 28.254 213.314 28.254C211.856 28.254 210.686 27.246 210.686 25.554C210.686 23.862 211.856 22.872 213.314 22.872ZM222.176 21.09V30H219.98V21.09H222.176ZM219.782 18.624C219.782 20.334 222.374 20.334 222.374 18.624C222.374 16.914 219.782 16.914 219.782 18.624ZM232.893 30V25.338C232.893 22.548 231.219 20.982 229.131 20.982C228.015 20.982 227.115 21.432 226.215 22.314L226.071 21.108H224.109V30H226.287V25.464C226.287 24.114 227.205 22.98 228.555 22.98C229.959 22.98 230.697 24.006 230.697 25.356V30H232.893Z" fill="white"/>
<defs>
<linearGradient id="paint0_linear_624_1965" x1="0" y1="25" x2="266" y2="25" gradientUnits="userSpaceOnUse">
<stop stop-color="#5848EA"/>
<stop offset="1" stop-color="#9549EB"/>
</linearGradient>
</defs>
</svg>
