<svg width="170" height="50" viewBox="0 0 170 50" fill="none" xmlns="http://www.w3.org/2000/svg">
<rect x="0.5" y="0.5" width="169" height="49" rx="24.5" stroke="url(#paint0_linear_624_453)"/>
<path d="M47.882 17.4V30H56.738V27.804H50.258V17.4H47.882ZM67.0513 26.346C67.3933 22.692 65.5393 20.856 62.5693 20.856C59.6893 20.856 57.8533 22.8 57.8533 25.5C57.8533 28.344 59.6713 30.234 62.7313 30.234C64.0813 30.234 65.6113 29.766 66.5473 28.794L65.1433 27.408C64.6393 27.93 63.5773 28.236 62.7673 28.236C61.2193 28.236 60.2653 27.444 60.1213 26.346H67.0513ZM60.1573 24.528C60.4813 23.376 61.4533 22.8 62.6413 22.8C63.9013 22.8 64.8013 23.376 64.9453 24.528H60.1573ZM75.7094 22.35C75.2054 21.468 74.0714 20.91 72.8834 20.91C70.2914 20.892 68.2574 22.494 68.2574 25.554C68.2574 28.668 70.2014 30.288 72.8294 30.27C73.8194 30.252 75.2054 29.748 75.7094 28.704L75.8174 30H77.8874V21.126H75.7814L75.7094 22.35ZM73.0814 22.872C76.5374 22.872 76.5374 28.254 73.0814 28.254C71.6234 28.254 70.4534 27.246 70.4534 25.554C70.4534 23.862 71.6234 22.872 73.0814 22.872ZM79.7473 21.126V30H81.9433V25.32C81.9433 23.682 83.0053 23.07 84.1573 23.07C84.8773 23.07 85.2913 23.268 85.7413 23.646L86.7313 21.738C86.2453 21.252 85.3633 20.892 84.4453 20.892C83.5453 20.892 82.6273 21.054 81.9433 22.152L81.7813 21.126H79.7473ZM96.282 30V25.338C96.282 22.548 94.608 20.982 92.52 20.982C91.404 20.982 90.504 21.432 89.604 22.314L89.46 21.108H87.498V30H89.676V25.464C89.676 24.114 90.594 22.98 91.944 22.98C93.348 22.98 94.086 24.006 94.086 25.356V30H96.282ZM109.908 30V25.248C109.908 24.078 110.646 23.052 111.834 23.052C113.022 23.052 113.508 24.042 113.508 25.212V30H115.704V25.212C115.704 22.548 114.462 21 111.942 21C110.79 21 109.764 21.36 108.972 22.62C108.468 21.396 107.406 20.964 106.344 20.964C105.498 20.964 104.472 21.288 104.004 22.188L103.842 21.108H101.808V30H104.004V25.248C104.004 24.078 104.706 23.016 105.894 23.016C107.1 23.016 107.712 24.078 107.712 25.248V30H109.908ZM122.121 20.946C119.295 20.946 117.531 23.034 117.531 25.572C117.531 28.128 119.259 30.198 122.139 30.198C125.019 30.198 126.765 28.128 126.765 25.572C126.765 23.034 124.947 20.946 122.121 20.946ZM122.139 22.944C123.615 22.944 124.551 24.24 124.551 25.572C124.551 26.922 123.741 28.182 122.139 28.182C120.537 28.182 119.727 26.922 119.727 25.572C119.727 24.24 120.555 22.944 122.139 22.944ZM128.281 21.126V30H130.477V25.32C130.477 23.682 131.539 23.07 132.691 23.07C133.411 23.07 133.825 23.268 134.275 23.646L135.265 21.738C134.779 21.252 133.897 20.892 132.979 20.892C132.079 20.892 131.161 21.054 130.477 22.152L130.315 21.126H128.281ZM144.887 26.346C145.229 22.692 143.375 20.856 140.405 20.856C137.525 20.856 135.689 22.8 135.689 25.5C135.689 28.344 137.507 30.234 140.567 30.234C141.917 30.234 143.447 29.766 144.383 28.794L142.979 27.408C142.475 27.93 141.413 28.236 140.603 28.236C139.055 28.236 138.101 27.444 137.957 26.346H144.887ZM137.993 24.528C138.317 23.376 139.289 22.8 140.477 22.8C141.737 22.8 142.637 23.376 142.781 24.528H137.993Z" fill="url(#paint1_linear_624_453)"/>
<path d="M25 20.605C25 19.4488 26.253 18.7273 27.253 19.3077L34.765 23.6681C35.761 24.2462 35.761 25.6845 34.765 26.2626L27.253 30.6229C26.253 31.2034 25 30.4819 25 29.3256V20.605Z" fill="url(#paint2_linear_624_453)"/>
<defs>
<linearGradient id="paint0_linear_624_453" x1="0" y1="25" x2="170" y2="25" gradientUnits="userSpaceOnUse">
<stop stop-color="#5848EA"/>
<stop offset="1" stop-color="#9549EB"/>
</linearGradient>
<linearGradient id="paint1_linear_624_453" x1="47" y1="25" x2="146" y2="25" gradientUnits="userSpaceOnUse">
<stop stop-color="#5848EA"/>
<stop offset="1" stop-color="#9549EB"/>
</linearGradient>
<linearGradient id="paint2_linear_624_453" x1="25" y1="24.9653" x2="37" y2="24.9653" gradientUnits="userSpaceOnUse">
<stop stop-color="#5848EA"/>
<stop offset="1" stop-color="#9549EB"/>
</linearGradient>
</defs>
</svg>
