<svg width="1400" height="73" viewBox="0 0 1400 73" fill="none" xmlns="http://www.w3.org/2000/svg">
<rect width="1400" height="73" fill="url(#paint0_linear_590_6)" fill-opacity="0.99"/>
<path d="M178.626 31.0816V33.4076H175.469V43H172.565V33.4076H169.407V31.0816H178.626ZM181.544 32.5417C181.034 32.5417 180.615 32.3945 180.287 32.1003C179.97 31.7947 179.812 31.4212 179.812 30.9797C179.812 30.527 179.97 30.1535 180.287 29.8592C180.615 29.5536 181.034 29.4008 181.544 29.4008C182.042 29.4008 182.449 29.5536 182.766 29.8592C183.094 30.1535 183.258 30.527 183.258 30.9797C183.258 31.4212 183.094 31.7947 182.766 32.1003C182.449 32.3945 182.042 32.5417 181.544 32.5417ZM182.987 33.5264V43H180.083V33.5264H182.987ZM197.179 33.4245C198.356 33.4245 199.29 33.7811 199.98 34.4941C200.682 35.2072 201.033 36.1976 201.033 37.4652V43H198.146V37.8557C198.146 37.2445 197.982 36.7748 197.654 36.4466C197.337 36.107 196.896 35.9372 196.33 35.9372C195.764 35.9372 195.317 36.107 194.989 36.4466C194.672 36.7748 194.513 37.2445 194.513 37.8557V43H191.627V37.8557C191.627 37.2445 191.463 36.7748 191.135 36.4466C190.818 36.107 190.376 35.9372 189.81 35.9372C189.244 35.9372 188.797 36.107 188.469 36.4466C188.152 36.7748 187.994 37.2445 187.994 37.8557V43H185.091V33.5264H187.994V34.7148C188.288 34.3187 188.673 34.0074 189.148 33.7811C189.624 33.5434 190.161 33.4245 190.761 33.4245C191.474 33.4245 192.108 33.5773 192.663 33.8829C193.229 34.1885 193.67 34.6243 193.987 35.1902C194.315 34.6696 194.762 34.2451 195.328 33.9169C195.894 33.5887 196.511 33.4245 197.179 33.4245ZM211.993 38.1104C211.993 38.382 211.976 38.665 211.943 38.9593H205.372C205.417 39.5479 205.604 40.0006 205.932 40.3175C206.272 40.6231 206.685 40.7759 207.172 40.7759C207.896 40.7759 208.4 40.4703 208.683 39.8591H211.773C211.614 40.4816 211.326 41.0419 210.907 41.5399C210.499 42.0379 209.984 42.4284 209.362 42.7114C208.739 42.9943 208.043 43.1358 207.274 43.1358C206.345 43.1358 205.519 42.9377 204.795 42.5416C204.07 42.1455 203.505 41.5795 203.097 40.8438C202.69 40.1081 202.486 39.2479 202.486 38.2632C202.486 37.2785 202.684 36.4183 203.08 35.6826C203.488 34.9469 204.053 34.3809 204.778 33.9848C205.502 33.5887 206.334 33.3906 207.274 33.3906C208.19 33.3906 209.005 33.583 209.718 33.9678C210.431 34.3527 210.986 34.9016 211.382 35.6147C211.79 36.3277 211.993 37.1596 211.993 38.1104ZM209.022 37.3464C209.022 36.8484 208.853 36.4522 208.513 36.158C208.173 35.8637 207.749 35.7165 207.24 35.7165C206.753 35.7165 206.34 35.858 206 36.141C205.672 36.4239 205.468 36.8257 205.389 37.3464H209.022ZM218.583 32.5417C218.074 32.5417 217.655 32.3945 217.327 32.1003C217.01 31.7947 216.851 31.4212 216.851 30.9797C216.851 30.527 217.01 30.1535 217.327 29.8592C217.655 29.5536 218.074 29.4008 218.583 29.4008C219.081 29.4008 219.488 29.5536 219.805 29.8592C220.134 30.1535 220.298 30.527 220.298 30.9797C220.298 31.4212 220.134 31.7947 219.805 32.1003C219.488 32.3945 219.081 32.5417 218.583 32.5417ZM220.026 33.5264V43H217.123V33.5264H220.026ZM225.984 43.1358C225.158 43.1358 224.422 42.9943 223.777 42.7114C223.132 42.4284 222.622 42.0436 222.249 41.5569C221.875 41.0589 221.666 40.5043 221.621 39.8931H224.49C224.524 40.2213 224.677 40.4873 224.948 40.691C225.22 40.8948 225.554 40.9966 225.95 40.9966C226.312 40.9966 226.589 40.9287 226.782 40.7929C226.986 40.6457 227.087 40.459 227.087 40.2326C227.087 39.961 226.946 39.7629 226.663 39.6384C226.38 39.5026 225.922 39.3554 225.288 39.197C224.609 39.0385 224.043 38.8744 223.59 38.7046C223.137 38.5235 222.747 38.2462 222.419 37.8727C222.09 37.4879 221.926 36.9729 221.926 36.3277C221.926 35.7844 222.073 35.2921 222.368 34.8507C222.673 34.3979 223.115 34.0414 223.692 33.7811C224.28 33.5207 224.977 33.3906 225.78 33.3906C226.969 33.3906 227.902 33.6849 228.582 34.2734C229.272 34.862 229.668 35.643 229.77 36.6164H227.087C227.042 36.2881 226.895 36.0278 226.646 35.8354C226.408 35.643 226.091 35.5468 225.695 35.5468C225.356 35.5468 225.095 35.6147 224.914 35.7505C224.733 35.875 224.643 36.0504 224.643 36.2768C224.643 36.5484 224.784 36.7522 225.067 36.888C225.361 37.0238 225.814 37.1596 226.425 37.2955C227.127 37.4766 227.699 37.6577 228.14 37.8388C228.582 38.0085 228.966 38.2915 229.295 38.6876C229.634 39.0725 229.81 39.5931 229.821 40.2496C229.821 40.8042 229.662 41.3022 229.346 41.7436C229.04 42.1737 228.593 42.5133 228.004 42.7623C227.427 43.0113 226.754 43.1358 225.984 43.1358ZM238.098 35.1053C238.438 34.5847 238.862 34.1772 239.371 33.8829C239.881 33.5773 240.447 33.4245 241.069 33.4245V36.4975H240.271C239.547 36.4975 239.004 36.656 238.641 36.9729C238.279 37.2785 238.098 37.8218 238.098 38.6028V43H235.195V33.5264H238.098V35.1053ZM251.812 33.5264V43H248.908V41.7097C248.614 42.1285 248.212 42.468 247.703 42.7284C247.205 42.9774 246.65 43.1019 246.039 43.1019C245.315 43.1019 244.675 42.9434 244.121 42.6265C243.566 42.2983 243.136 41.8285 242.83 41.2173C242.525 40.6061 242.372 39.8874 242.372 39.0612V33.5264H245.258V38.6707C245.258 39.3045 245.422 39.7969 245.751 40.1477C246.079 40.4986 246.52 40.674 247.075 40.674C247.641 40.674 248.088 40.4986 248.416 40.1477C248.744 39.7969 248.908 39.3045 248.908 38.6707V33.5264H251.812ZM259.669 33.4245C260.779 33.4245 261.661 33.7867 262.318 34.5111C262.986 35.2242 263.32 36.2089 263.32 37.4652V43H260.433V37.8557C260.433 37.2219 260.269 36.7295 259.941 36.3787C259.613 36.0278 259.171 35.8524 258.617 35.8524C258.062 35.8524 257.621 36.0278 257.293 36.3787C256.964 36.7295 256.8 37.2219 256.8 37.8557V43H253.897V33.5264H256.8V34.7828C257.094 34.364 257.491 34.0357 257.989 33.798C258.487 33.549 259.047 33.4245 259.669 33.4245ZM271.11 33.4245C272.219 33.4245 273.102 33.7867 273.758 34.5111C274.426 35.2242 274.76 36.2089 274.76 37.4652V43H271.874V37.8557C271.874 37.2219 271.709 36.7295 271.381 36.3787C271.053 36.0278 270.612 35.8524 270.057 35.8524C269.502 35.8524 269.061 36.0278 268.733 36.3787C268.404 36.7295 268.24 37.2219 268.24 37.8557V43H265.337V33.5264H268.24V34.7828C268.535 34.364 268.931 34.0357 269.429 33.798C269.927 33.549 270.487 33.4245 271.11 33.4245ZM278.237 32.5417C277.728 32.5417 277.309 32.3945 276.981 32.1003C276.664 31.7947 276.506 31.4212 276.506 30.9797C276.506 30.527 276.664 30.1535 276.981 29.8592C277.309 29.5536 277.728 29.4008 278.237 29.4008C278.735 29.4008 279.143 29.5536 279.46 29.8592C279.788 30.1535 279.952 30.527 279.952 30.9797C279.952 31.4212 279.788 31.7947 279.46 32.1003C279.143 32.3945 278.735 32.5417 278.237 32.5417ZM279.68 33.5264V43H276.777V33.5264H279.68ZM287.557 33.4245C288.666 33.4245 289.549 33.7867 290.205 34.5111C290.873 35.2242 291.207 36.2089 291.207 37.4652V43H288.321V37.8557C288.321 37.2219 288.157 36.7295 287.828 36.3787C287.5 36.0278 287.059 35.8524 286.504 35.8524C285.95 35.8524 285.508 36.0278 285.18 36.3787C284.852 36.7295 284.688 37.2219 284.688 37.8557V43H281.784V33.5264H284.688V34.7828C284.982 34.364 285.378 34.0357 285.876 33.798C286.374 33.549 286.934 33.4245 287.557 33.4245ZM296.824 33.3906C297.491 33.3906 298.074 33.5264 298.572 33.798C299.082 34.0697 299.472 34.4262 299.744 34.8676V33.5264H302.647V42.983C302.647 43.8545 302.472 44.6412 302.121 45.3429C301.781 46.056 301.255 46.6219 300.542 47.0407C299.84 47.4595 298.963 47.6689 297.91 47.6689C296.507 47.6689 295.369 47.335 294.498 46.6672C293.626 46.0107 293.128 45.1166 293.004 43.9847H295.873C295.963 44.3469 296.179 44.6299 296.518 44.8336C296.858 45.0487 297.276 45.1562 297.774 45.1562C298.374 45.1562 298.85 44.9807 299.201 44.6299C299.563 44.2903 299.744 43.7414 299.744 42.983V41.6418C299.461 42.0832 299.07 42.4454 298.572 42.7284C298.074 43 297.491 43.1358 296.824 43.1358C296.043 43.1358 295.335 42.9377 294.701 42.5416C294.068 42.1341 293.564 41.5625 293.19 40.8268C292.828 40.0798 292.647 39.2196 292.647 38.2462C292.647 37.2728 292.828 36.4183 293.19 35.6826C293.564 34.9469 294.068 34.3809 294.701 33.9848C295.335 33.5887 296.043 33.3906 296.824 33.3906ZM299.744 38.2632C299.744 37.5388 299.54 36.9672 299.133 36.5484C298.737 36.1297 298.25 35.9203 297.673 35.9203C297.095 35.9203 296.603 36.1297 296.196 36.5484C295.799 36.9559 295.601 37.5218 295.601 38.2462C295.601 38.9706 295.799 39.5479 296.196 39.978C296.603 40.3967 297.095 40.6061 297.673 40.6061C298.25 40.6061 298.737 40.3967 299.133 39.978C299.54 39.5592 299.744 38.9876 299.744 38.2632ZM312.658 43.1358C311.729 43.1358 310.892 42.9377 310.145 42.5416C309.409 42.1455 308.826 41.5795 308.396 40.8438C307.977 40.1081 307.768 39.2479 307.768 38.2632C307.768 37.2898 307.983 36.4353 308.413 35.6996C308.843 34.9525 309.432 34.3809 310.179 33.9848C310.926 33.5887 311.763 33.3906 312.692 33.3906C313.62 33.3906 314.457 33.5887 315.204 33.9848C315.951 34.3809 316.54 34.9525 316.97 35.6996C317.4 36.4353 317.615 37.2898 317.615 38.2632C317.615 39.2366 317.394 40.0968 316.953 40.8438C316.523 41.5795 315.929 42.1455 315.17 42.5416C314.423 42.9377 313.586 43.1358 312.658 43.1358ZM312.658 40.6231C313.212 40.6231 313.682 40.4194 314.067 40.0119C314.463 39.6044 314.661 39.0215 314.661 38.2632C314.661 37.5049 314.469 36.922 314.084 36.5145C313.71 36.107 313.246 35.9033 312.692 35.9033C312.126 35.9033 311.656 36.107 311.282 36.5145C310.909 36.9106 310.722 37.4935 310.722 38.2632C310.722 39.0215 310.903 39.6044 311.265 40.0119C311.639 40.4194 312.103 40.6231 312.658 40.6231ZM328.51 33.5264V43H325.607V41.7097C325.313 42.1285 324.911 42.468 324.401 42.7284C323.903 42.9774 323.349 43.1019 322.738 43.1019C322.013 43.1019 321.374 42.9434 320.819 42.6265C320.265 42.2983 319.834 41.8285 319.529 41.2173C319.223 40.6061 319.07 39.8874 319.07 39.0612V33.5264H321.957V38.6707C321.957 39.3045 322.121 39.7969 322.449 40.1477C322.777 40.4986 323.219 40.674 323.773 40.674C324.339 40.674 324.786 40.4986 325.115 40.1477C325.443 39.7969 325.607 39.3045 325.607 38.6707V33.5264H328.51ZM335.875 40.5382V43H334.398C333.346 43 332.525 42.7453 331.937 42.236C331.348 41.7153 331.054 40.8721 331.054 39.7063V35.9372H329.899V33.5264H331.054V31.2174H333.957V33.5264H335.859V35.9372H333.957V39.7403C333.957 40.0232 334.025 40.227 334.161 40.3515C334.297 40.476 334.523 40.5382 334.84 40.5382H335.875ZM344.91 30.6572L344.571 38.7895H342.109L341.77 30.6572H344.91ZM343.382 43.1358C342.873 43.1358 342.454 42.9887 342.126 42.6944C341.809 42.3888 341.651 42.0153 341.651 41.5739C341.651 41.1211 341.809 40.742 342.126 40.4364C342.454 40.1308 342.873 39.978 343.382 39.978C343.88 39.978 344.288 40.1308 344.605 40.4364C344.933 40.742 345.097 41.1211 345.097 41.5739C345.097 42.0153 344.933 42.3888 344.605 42.6944C344.288 42.9887 343.88 43.1358 343.382 43.1358ZM356.258 43.1188C355.466 43.1188 354.752 42.983 354.119 42.7114C353.485 42.4284 352.987 42.0323 352.625 41.5229C352.262 41.0136 352.081 40.4194 352.081 39.7403H354.153C354.198 40.2496 354.396 40.6684 354.747 40.9966C355.109 41.3249 355.613 41.489 356.258 41.489C356.926 41.489 357.446 41.3305 357.82 41.0136C358.193 40.6854 358.38 40.2666 358.38 39.7572C358.38 39.3611 358.261 39.0385 358.024 38.7895C357.797 38.5405 357.509 38.3481 357.158 38.2123C356.818 38.0764 356.343 37.9293 355.732 37.7708C354.962 37.5671 354.334 37.3634 353.847 37.1596C353.372 36.9446 352.964 36.6164 352.625 36.1749C352.285 35.7335 352.115 35.1449 352.115 34.4092C352.115 33.7301 352.285 33.1359 352.625 32.6266C352.964 32.1172 353.44 31.7268 354.051 31.4551C354.662 31.1835 355.369 31.0476 356.173 31.0476C357.316 31.0476 358.25 31.3363 358.974 31.9135C359.71 32.4794 360.117 33.2604 360.197 34.2564H358.057C358.024 33.8263 357.82 33.4585 357.446 33.1529C357.073 32.8473 356.58 32.6945 355.969 32.6945C355.415 32.6945 354.962 32.836 354.611 33.1189C354.26 33.4019 354.085 33.8094 354.085 34.3413C354.085 34.7035 354.192 35.0035 354.407 35.2412C354.634 35.4675 354.917 35.6486 355.256 35.7844C355.596 35.9203 356.06 36.0674 356.648 36.2259C357.429 36.4409 358.063 36.656 358.55 36.871C359.048 37.0861 359.467 37.42 359.806 37.8727C360.157 38.3141 360.333 38.9084 360.333 39.6554C360.333 40.2553 360.168 40.8212 359.84 41.3532C359.523 41.8851 359.054 42.3152 358.431 42.6435C357.82 42.9604 357.095 43.1188 356.258 43.1188ZM364.874 35.2242V40.4024C364.874 40.7533 364.954 41.0079 365.112 41.1664C365.282 41.3135 365.565 41.3871 365.961 41.3871H367.149V43H365.621C364.75 43 364.082 42.7963 363.618 42.3888C363.154 41.9813 362.922 41.3192 362.922 40.4024V35.2242H361.818V33.6452H362.922V31.3193H364.874V33.6452H367.149V35.2242H364.874ZM368.288 38.2802C368.288 37.3407 368.48 36.5088 368.865 35.7844C369.261 35.0601 369.793 34.4998 370.461 34.1036C371.14 33.6962 371.887 33.4924 372.702 33.4924C373.438 33.4924 374.077 33.6396 374.621 33.9339C375.175 34.2168 375.617 34.5734 375.945 35.0035V33.6452H377.897V43H375.945V41.6078C375.617 42.0492 375.17 42.4171 374.604 42.7114C374.038 43.0057 373.393 43.1528 372.668 43.1528C371.865 43.1528 371.129 42.9491 370.461 42.5416C369.793 42.1228 369.261 41.5456 368.865 40.8099C368.48 40.0628 368.288 39.2196 368.288 38.2802ZM375.945 38.3141C375.945 37.669 375.809 37.1087 375.538 36.6333C375.277 36.158 374.932 35.7958 374.502 35.5468C374.072 35.2977 373.608 35.1732 373.11 35.1732C372.612 35.1732 372.148 35.2977 371.718 35.5468C371.287 35.7844 370.937 36.141 370.665 36.6164C370.405 37.0804 370.274 37.635 370.274 38.2802C370.274 38.9253 370.405 39.4913 370.665 39.978C370.937 40.4647 371.287 40.8382 371.718 41.0985C372.159 41.3475 372.623 41.472 373.11 41.472C373.608 41.472 374.072 41.3475 374.502 41.0985C374.932 40.8495 375.277 40.4873 375.538 40.0119C375.809 39.5252 375.945 38.9593 375.945 38.3141ZM382.375 35.0035C382.658 34.5281 383.032 34.1602 383.496 33.8999C383.971 33.6283 384.531 33.4924 385.176 33.4924V35.4958H384.684C383.926 35.4958 383.348 35.6882 382.952 36.0731C382.568 36.4579 382.375 37.1257 382.375 38.0764V43H380.44V33.6452H382.375V35.0035ZM389.214 35.2242V40.4024C389.214 40.7533 389.293 41.0079 389.451 41.1664C389.621 41.3135 389.904 41.3871 390.3 41.3871H391.489V43H389.961C389.089 43 388.421 42.7963 387.957 42.3888C387.493 41.9813 387.261 41.3192 387.261 40.4024V35.2242H386.158V33.6452H387.261V31.3193H389.214V33.6452H391.489V35.2242H389.214ZM399.618 35.0204C399.946 34.5903 400.393 34.2281 400.959 33.9339C401.525 33.6396 402.165 33.4924 402.878 33.4924C403.693 33.4924 404.434 33.6962 405.102 34.1036C405.781 34.4998 406.313 35.0601 406.698 35.7844C407.083 36.5088 407.275 37.3407 407.275 38.2802C407.275 39.2196 407.083 40.0628 406.698 40.8099C406.313 41.5456 405.781 42.1228 405.102 42.5416C404.434 42.9491 403.693 43.1528 402.878 43.1528C402.165 43.1528 401.531 43.0113 400.976 42.7284C400.422 42.4341 399.969 42.0719 399.618 41.6418V47.4482H397.683V33.6452H399.618V35.0204ZM405.306 38.2802C405.306 37.635 405.17 37.0804 404.898 36.6164C404.638 36.141 404.287 35.7844 403.846 35.5468C403.416 35.2977 402.951 35.1732 402.453 35.1732C401.967 35.1732 401.503 35.2977 401.061 35.5468C400.631 35.7958 400.28 36.158 400.009 36.6333C399.748 37.1087 399.618 37.669 399.618 38.3141C399.618 38.9593 399.748 39.5252 400.009 40.0119C400.28 40.4873 400.631 40.8495 401.061 41.0985C401.503 41.3475 401.967 41.472 402.453 41.472C402.951 41.472 403.416 41.3475 403.846 41.0985C404.287 40.8382 404.638 40.4647 404.898 39.978C405.17 39.4913 405.306 38.9253 405.306 38.2802ZM411.125 35.0035C411.408 34.5281 411.781 34.1602 412.245 33.8999C412.72 33.6283 413.281 33.4924 413.926 33.4924V35.4958H413.434C412.675 35.4958 412.098 35.6882 411.702 36.0731C411.317 36.4579 411.125 37.1257 411.125 38.0764V43H409.189V33.6452H411.125V35.0035ZM424.279 38.0934C424.279 38.4443 424.256 38.7612 424.211 39.0442H417.063C417.12 39.7912 417.397 40.3911 417.895 40.8438C418.393 41.2966 419.004 41.5229 419.729 41.5229C420.77 41.5229 421.506 41.0872 421.936 40.2156H424.024C423.741 41.0759 423.226 41.7833 422.479 42.3379C421.743 42.8812 420.827 43.1528 419.729 43.1528C418.835 43.1528 418.031 42.9547 417.318 42.5586C416.616 42.1511 416.062 41.5852 415.654 40.8608C415.258 40.1251 415.06 39.2762 415.06 38.3141C415.06 37.3521 415.252 36.5088 415.637 35.7844C416.033 35.0487 416.582 34.4828 417.284 34.0867C417.997 33.6905 418.812 33.4924 419.729 33.4924C420.612 33.4924 421.398 33.6849 422.089 34.0697C422.779 34.4545 423.317 34.9978 423.702 35.6996C424.086 36.39 424.279 37.1879 424.279 38.0934ZM422.258 37.4822C422.247 36.7692 421.992 36.1976 421.494 35.7675C420.996 35.3374 420.38 35.1223 419.644 35.1223C418.976 35.1223 418.404 35.3374 417.929 35.7675C417.454 36.1863 417.171 36.7578 417.08 37.4822H422.258ZM428.119 35.0204C428.447 34.5903 428.894 34.2281 429.46 33.9339C430.026 33.6396 430.666 33.4924 431.379 33.4924C432.194 33.4924 432.935 33.6962 433.603 34.1036C434.282 34.4998 434.814 35.0601 435.199 35.7844C435.584 36.5088 435.776 37.3407 435.776 38.2802C435.776 39.2196 435.584 40.0628 435.199 40.8099C434.814 41.5456 434.282 42.1228 433.603 42.5416C432.935 42.9491 432.194 43.1528 431.379 43.1528C430.666 43.1528 430.032 43.0113 429.477 42.7284C428.923 42.4341 428.47 42.0719 428.119 41.6418V47.4482H426.183V33.6452H428.119V35.0204ZM433.806 38.2802C433.806 37.635 433.671 37.0804 433.399 36.6164C433.139 36.141 432.788 35.7844 432.346 35.5468C431.916 35.2977 431.452 35.1732 430.954 35.1732C430.468 35.1732 430.003 35.2977 429.562 35.5468C429.132 35.7958 428.781 36.158 428.509 36.6333C428.249 37.1087 428.119 37.669 428.119 38.3141C428.119 38.9593 428.249 39.5252 428.509 40.0119C428.781 40.4873 429.132 40.8495 429.562 41.0985C430.003 41.3475 430.468 41.472 430.954 41.472C431.452 41.472 431.916 41.3475 432.346 41.0985C432.788 40.8382 433.139 40.4647 433.399 39.978C433.671 39.4913 433.806 38.9253 433.806 38.2802ZM437.045 38.2802C437.045 37.3407 437.237 36.5088 437.622 35.7844C438.018 35.0601 438.55 34.4998 439.218 34.1036C439.897 33.6962 440.644 33.4924 441.459 33.4924C442.195 33.4924 442.834 33.6396 443.377 33.9339C443.932 34.2168 444.373 34.5734 444.702 35.0035V33.6452H446.654V43H444.702V41.6078C444.373 42.0492 443.926 42.4171 443.36 42.7114C442.795 43.0057 442.149 43.1528 441.425 43.1528C440.621 43.1528 439.886 42.9491 439.218 42.5416C438.55 42.1228 438.018 41.5456 437.622 40.8099C437.237 40.0628 437.045 39.2196 437.045 38.2802ZM444.702 38.3141C444.702 37.669 444.566 37.1087 444.294 36.6333C444.034 36.158 443.689 35.7958 443.259 35.5468C442.829 35.2977 442.364 35.1732 441.866 35.1732C441.368 35.1732 440.904 35.2977 440.474 35.5468C440.044 35.7844 439.693 36.141 439.422 36.6164C439.161 37.0804 439.031 37.635 439.031 38.2802C439.031 38.9253 439.161 39.4913 439.422 39.978C439.693 40.4647 440.044 40.8382 440.474 41.0985C440.916 41.3475 441.38 41.472 441.866 41.472C442.364 41.472 442.829 41.3475 443.259 41.0985C443.689 40.8495 444.034 40.4873 444.294 40.0119C444.566 39.5252 444.702 38.9593 444.702 38.3141ZM451.132 35.0035C451.415 34.5281 451.788 34.1602 452.252 33.8999C452.728 33.6283 453.288 33.4924 453.933 33.4924V35.4958H453.441C452.682 35.4958 452.105 35.6882 451.709 36.0731C451.324 36.4579 451.132 37.1257 451.132 38.0764V43H449.196V33.6452H451.132V35.0035ZM456.697 32.4059C456.346 32.4059 456.052 32.287 455.814 32.0493C455.576 31.8116 455.458 31.5174 455.458 31.1665C455.458 30.8156 455.576 30.5213 455.814 30.2836C456.052 30.046 456.346 29.9271 456.697 29.9271C457.036 29.9271 457.325 30.046 457.563 30.2836C457.8 30.5213 457.919 30.8156 457.919 31.1665C457.919 31.5174 457.8 31.8116 457.563 32.0493C457.325 32.287 457.036 32.4059 456.697 32.4059ZM457.648 33.6452V43H455.712V33.6452H457.648ZM464.909 33.4924C465.644 33.4924 466.301 33.6452 466.878 33.9508C467.467 34.2564 467.925 34.7092 468.253 35.3091C468.581 35.9089 468.746 36.6333 468.746 37.4822V43H466.827V37.7708C466.827 36.9333 466.618 36.2938 466.199 35.8524C465.78 35.3996 465.209 35.1732 464.484 35.1732C463.76 35.1732 463.183 35.3996 462.752 35.8524C462.334 36.2938 462.124 36.9333 462.124 37.7708V43H460.189V33.6452H462.124V34.7148C462.441 34.33 462.843 34.0301 463.33 33.815C463.828 33.6 464.354 33.4924 464.909 33.4924ZM474.983 33.4924C475.708 33.4924 476.347 33.6396 476.902 33.9339C477.468 34.2168 477.909 34.5734 478.226 35.0035V33.6452H480.179V43.1528C480.179 44.013 479.998 44.777 479.635 45.4448C479.273 46.1239 478.747 46.6559 478.056 47.0407C477.377 47.4255 476.562 47.618 475.612 47.618C474.344 47.618 473.291 47.318 472.454 46.7181C471.616 46.1296 471.141 45.326 471.028 44.3073H472.946C473.093 44.794 473.405 45.1845 473.88 45.4788C474.367 45.7844 474.944 45.9372 475.612 45.9372C476.393 45.9372 477.021 45.6995 477.496 45.2241C477.983 44.7487 478.226 44.0583 478.226 43.1528V41.5908C477.898 42.0323 477.451 42.4058 476.885 42.7114C476.33 43.0057 475.697 43.1528 474.983 43.1528C474.169 43.1528 473.421 42.9491 472.742 42.5416C472.075 42.1228 471.543 41.5456 471.146 40.8099C470.762 40.0628 470.569 39.2196 470.569 38.2802C470.569 37.3407 470.762 36.5088 471.146 35.7844C471.543 35.0601 472.075 34.4998 472.742 34.1036C473.421 33.6962 474.169 33.4924 474.983 33.4924ZM478.226 38.3141C478.226 37.669 478.09 37.1087 477.819 36.6333C477.558 36.158 477.213 35.7958 476.783 35.5468C476.353 35.2977 475.889 35.1732 475.391 35.1732C474.893 35.1732 474.429 35.2977 473.999 35.5468C473.569 35.7844 473.218 36.141 472.946 36.6164C472.686 37.0804 472.556 37.635 472.556 38.2802C472.556 38.9253 472.686 39.4913 472.946 39.978C473.218 40.4647 473.569 40.8382 473.999 41.0985C474.44 41.3475 474.904 41.472 475.391 41.472C475.889 41.472 476.353 41.3475 476.783 41.0985C477.213 40.8495 477.558 40.4873 477.819 40.0119C478.09 39.5252 478.226 38.9593 478.226 38.3141ZM491.053 35.2242H489.321V43H487.369V35.2242H486.265V33.6452H487.369V32.9831C487.369 31.9079 487.652 31.1269 488.218 30.6402C488.795 30.1422 489.695 29.8932 490.917 29.8932V31.506C490.329 31.506 489.915 31.6192 489.678 31.8456C489.44 32.0607 489.321 32.4398 489.321 32.9831V33.6452H491.053V35.2242ZM496.826 43.1528C495.943 43.1528 495.145 42.9547 494.432 42.5586C493.719 42.1511 493.159 41.5852 492.751 40.8608C492.344 40.1251 492.14 39.2762 492.14 38.3141C492.14 37.3634 492.349 36.5201 492.768 35.7844C493.187 35.0487 493.759 34.4828 494.483 34.0867C495.207 33.6905 496.017 33.4924 496.911 33.4924C497.805 33.4924 498.614 33.6905 499.339 34.0867C500.063 34.4828 500.635 35.0487 501.053 35.7844C501.472 36.5201 501.682 37.3634 501.682 38.3141C501.682 39.2649 501.466 40.1081 501.036 40.8438C500.606 41.5795 500.018 42.1511 499.271 42.5586C498.535 42.9547 497.72 43.1528 496.826 43.1528ZM496.826 41.472C497.324 41.472 497.788 41.3532 498.218 41.1155C498.659 40.8778 499.016 40.5212 499.288 40.0459C499.559 39.5705 499.695 38.9932 499.695 38.3141C499.695 37.635 499.565 37.0634 499.305 36.5994C499.044 36.124 498.699 35.7675 498.269 35.5298C497.839 35.2921 497.375 35.1732 496.877 35.1732C496.379 35.1732 495.915 35.2921 495.485 35.5298C495.066 35.7675 494.732 36.124 494.483 36.5994C494.234 37.0634 494.109 37.635 494.109 38.3141C494.109 39.3215 494.364 40.1025 494.873 40.6571C495.394 41.2004 496.045 41.472 496.826 41.472ZM505.53 35.0035C505.813 34.5281 506.187 34.1602 506.651 33.8999C507.126 33.6283 507.686 33.4924 508.332 33.4924V35.4958H507.839C507.081 35.4958 506.504 35.6882 506.108 36.0731C505.723 36.4579 505.53 37.1257 505.53 38.0764V43H503.595V33.6452H505.53V35.0035ZM522.942 33.6452L517.203 47.3972H515.2L517.102 42.8472L513.417 33.6452H515.574L518.205 40.7759L520.939 33.6452H522.942ZM528.46 43.1528C527.577 43.1528 526.779 42.9547 526.066 42.5586C525.353 42.1511 524.793 41.5852 524.386 40.8608C523.978 40.1251 523.774 39.2762 523.774 38.3141C523.774 37.3634 523.984 36.5201 524.403 35.7844C524.821 35.0487 525.393 34.4828 526.117 34.0867C526.842 33.6905 527.651 33.4924 528.545 33.4924C529.439 33.4924 530.249 33.6905 530.973 34.0867C531.697 34.4828 532.269 35.0487 532.688 35.7844C533.107 36.5201 533.316 37.3634 533.316 38.3141C533.316 39.2649 533.101 40.1081 532.671 40.8438C532.241 41.5795 531.652 42.1511 530.905 42.5586C530.169 42.9547 529.354 43.1528 528.46 43.1528ZM528.46 41.472C528.958 41.472 529.422 41.3532 529.852 41.1155C530.294 40.8778 530.65 40.5212 530.922 40.0459C531.194 39.5705 531.33 38.9932 531.33 38.3141C531.33 37.635 531.199 37.0634 530.939 36.5994C530.679 36.124 530.333 35.7675 529.903 35.5298C529.473 35.2921 529.009 35.1732 528.511 35.1732C528.013 35.1732 527.549 35.2921 527.119 35.5298C526.7 35.7675 526.366 36.124 526.117 36.5994C525.868 37.0634 525.744 37.635 525.744 38.3141C525.744 39.3215 525.998 40.1025 526.508 40.6571C527.028 41.2004 527.679 41.472 528.46 41.472ZM543.701 33.6452V43H541.766V41.8964C541.46 42.2813 541.058 42.5869 540.56 42.8132C540.074 43.0283 539.553 43.1358 538.998 43.1358C538.263 43.1358 537.6 42.983 537.012 42.6774C536.435 42.3718 535.976 41.9191 535.637 41.3192C535.308 40.7193 535.144 39.9949 535.144 39.146V33.6452H537.063V38.8574C537.063 39.695 537.272 40.3401 537.691 40.7929C538.11 41.2343 538.681 41.455 539.406 41.455C540.13 41.455 540.702 41.2343 541.121 40.7929C541.551 40.3401 541.766 39.695 541.766 38.8574V33.6452H543.701ZM548.19 35.0035C548.473 34.5281 548.847 34.1602 549.311 33.8999C549.786 33.6283 550.346 33.4924 550.992 33.4924V35.4958H550.499C549.741 35.4958 549.164 35.6882 548.768 36.0731C548.383 36.4579 548.19 37.1257 548.19 38.0764V43H546.255V33.6452H548.19V35.0035ZM559.116 35.0204C559.445 34.5903 559.892 34.2281 560.458 33.9339C561.024 33.6396 561.663 33.4924 562.376 33.4924C563.191 33.4924 563.932 33.6962 564.6 34.1036C565.279 34.4998 565.811 35.0601 566.196 35.7844C566.581 36.5088 566.773 37.3407 566.773 38.2802C566.773 39.2196 566.581 40.0628 566.196 40.8099C565.811 41.5456 565.279 42.1228 564.6 42.5416C563.932 42.9491 563.191 43.1528 562.376 43.1528C561.663 43.1528 561.029 43.0113 560.475 42.7284C559.92 42.4341 559.467 42.0719 559.116 41.6418V47.4482H557.181V33.6452H559.116V35.0204ZM564.804 38.2802C564.804 37.635 564.668 37.0804 564.397 36.6164C564.136 36.141 563.785 35.7844 563.344 35.5468C562.914 35.2977 562.45 35.1732 561.952 35.1732C561.465 35.1732 561.001 35.2977 560.56 35.5468C560.129 35.7958 559.779 36.158 559.507 36.6333C559.247 37.1087 559.116 37.669 559.116 38.3141C559.116 38.9593 559.247 39.5252 559.507 40.0119C559.779 40.4873 560.129 40.8495 560.56 41.0985C561.001 41.3475 561.465 41.472 561.952 41.472C562.45 41.472 562.914 41.3475 563.344 41.0985C563.785 40.8382 564.136 40.4647 564.397 39.978C564.668 39.4913 564.804 38.9253 564.804 38.2802ZM570.623 30.4364V43H568.687V30.4364H570.623ZM572.519 38.2802C572.519 37.3407 572.711 36.5088 573.096 35.7844C573.492 35.0601 574.024 34.4998 574.692 34.1036C575.371 33.6962 576.118 33.4924 576.933 33.4924C577.669 33.4924 578.308 33.6396 578.852 33.9339C579.406 34.2168 579.848 34.5734 580.176 35.0035V33.6452H582.128V43H580.176V41.6078C579.848 42.0492 579.4 42.4171 578.835 42.7114C578.269 43.0057 577.623 43.1528 576.899 43.1528C576.095 43.1528 575.36 42.9491 574.692 42.5416C574.024 42.1228 573.492 41.5456 573.096 40.8099C572.711 40.0628 572.519 39.2196 572.519 38.2802ZM580.176 38.3141C580.176 37.669 580.04 37.1087 579.768 36.6333C579.508 36.158 579.163 35.7958 578.733 35.5468C578.303 35.2977 577.839 35.1732 577.34 35.1732C576.842 35.1732 576.378 35.2977 575.948 35.5468C575.518 35.7844 575.167 36.141 574.896 36.6164C574.635 37.0804 574.505 37.635 574.505 38.2802C574.505 38.9253 574.635 39.4913 574.896 39.978C575.167 40.4647 575.518 40.8382 575.948 41.0985C576.39 41.3475 576.854 41.472 577.34 41.472C577.839 41.472 578.303 41.3475 578.733 41.0985C579.163 40.8495 579.508 40.4873 579.768 40.0119C580.04 39.5252 580.176 38.9593 580.176 38.3141ZM584.025 38.3141C584.025 37.3521 584.218 36.5088 584.602 35.7844C584.999 35.0487 585.542 34.4828 586.232 34.0867C586.923 33.6905 587.715 33.4924 588.609 33.4924C589.741 33.4924 590.675 33.7641 591.411 34.3074C592.158 34.8393 592.661 35.6033 592.922 36.5994H590.833C590.664 36.1353 590.392 35.7731 590.018 35.5128C589.645 35.2525 589.175 35.1223 588.609 35.1223C587.817 35.1223 587.183 35.4053 586.708 35.9712C586.244 36.5258 586.012 37.3068 586.012 38.3141C586.012 39.3215 586.244 40.1081 586.708 40.674C587.183 41.24 587.817 41.5229 588.609 41.5229C589.73 41.5229 590.471 41.0306 590.833 40.0459H592.922C592.65 40.9966 592.141 41.755 591.394 42.3209C590.647 42.8755 589.718 43.1528 588.609 43.1528C587.715 43.1528 586.923 42.9547 586.232 42.5586C585.542 42.1511 584.999 41.5852 584.602 40.8608C584.218 40.1251 584.025 39.2762 584.025 38.3141ZM603.424 38.0934C603.424 38.4443 603.402 38.7612 603.356 39.0442H596.209C596.265 39.7912 596.543 40.3911 597.041 40.8438C597.539 41.2966 598.15 41.5229 598.874 41.5229C599.915 41.5229 600.651 41.0872 601.081 40.2156H603.17C602.887 41.0759 602.372 41.7833 601.625 42.3379C600.889 42.8812 599.972 43.1528 598.874 43.1528C597.98 43.1528 597.176 42.9547 596.463 42.5586C595.762 42.1511 595.207 41.5852 594.799 40.8608C594.403 40.1251 594.205 39.2762 594.205 38.3141C594.205 37.3521 594.398 36.5088 594.782 35.7844C595.179 35.0487 595.728 34.4828 596.429 34.0867C597.142 33.6905 597.957 33.4924 598.874 33.4924C599.757 33.4924 600.544 33.6849 601.234 34.0697C601.924 34.4545 602.462 34.9978 602.847 35.6996C603.232 36.39 603.424 37.1879 603.424 38.0934ZM601.404 37.4822C601.392 36.7692 601.138 36.1976 600.64 35.7675C600.142 35.3374 599.525 35.1223 598.789 35.1223C598.121 35.1223 597.55 35.3374 597.074 35.7675C596.599 36.1863 596.316 36.7578 596.226 37.4822H601.404ZM616.653 33.4924C617.389 33.4924 618.045 33.6452 618.622 33.9508C619.211 34.2564 619.669 34.7092 619.998 35.3091C620.337 35.9089 620.507 36.6333 620.507 37.4822V43H618.589V37.7708C618.589 36.9333 618.379 36.2938 617.96 35.8524C617.542 35.3996 616.97 35.1732 616.246 35.1732C615.521 35.1732 614.944 35.3996 614.514 35.8524C614.095 36.2938 613.886 36.9333 613.886 37.7708V43H611.967V37.7708C611.967 36.9333 611.758 36.2938 611.339 35.8524C610.92 35.3996 610.349 35.1732 609.624 35.1732C608.9 35.1732 608.323 35.3996 607.893 35.8524C607.474 36.2938 607.264 36.9333 607.264 37.7708V43H605.329V33.6452H607.264V34.7148C607.581 34.33 607.983 34.0301 608.47 33.815C608.956 33.6 609.477 33.4924 610.032 33.4924C610.779 33.4924 611.447 33.6509 612.035 33.9678C612.624 34.2847 613.076 34.7431 613.393 35.343C613.676 34.7771 614.118 34.33 614.718 34.0018C615.317 33.6622 615.963 33.4924 616.653 33.4924ZM631.544 38.0934C631.544 38.4443 631.521 38.7612 631.476 39.0442H624.328C624.385 39.7912 624.662 40.3911 625.16 40.8438C625.658 41.2966 626.269 41.5229 626.994 41.5229C628.035 41.5229 628.771 41.0872 629.201 40.2156H631.289C631.006 41.0759 630.491 41.7833 629.744 42.3379C629.008 42.8812 628.091 43.1528 626.994 43.1528C626.099 43.1528 625.296 42.9547 624.583 42.5586C623.881 42.1511 623.326 41.5852 622.919 40.8608C622.523 40.1251 622.325 39.2762 622.325 38.3141C622.325 37.3521 622.517 36.5088 622.902 35.7844C623.298 35.0487 623.847 34.4828 624.549 34.0867C625.262 33.6905 626.077 33.4924 626.994 33.4924C627.876 33.4924 628.663 33.6849 629.353 34.0697C630.044 34.4545 630.582 34.9978 630.966 35.6996C631.351 36.39 631.544 37.1879 631.544 38.0934ZM629.523 37.4822C629.512 36.7692 629.257 36.1976 628.759 35.7675C628.261 35.3374 627.644 35.1223 626.909 35.1223C626.241 35.1223 625.669 35.3374 625.194 35.7675C624.719 36.1863 624.436 36.7578 624.345 37.4822H629.523ZM638.168 33.4924C638.904 33.4924 639.56 33.6452 640.138 33.9508C640.726 34.2564 641.185 34.7092 641.513 35.3091C641.841 35.9089 642.005 36.6333 642.005 37.4822V43H640.087V37.7708C640.087 36.9333 639.877 36.2938 639.458 35.8524C639.04 35.3996 638.468 35.1732 637.744 35.1732C637.019 35.1732 636.442 35.3996 636.012 35.8524C635.593 36.2938 635.384 36.9333 635.384 37.7708V43H633.448V33.6452H635.384V34.7148C635.701 34.33 636.103 34.0301 636.589 33.815C637.087 33.6 637.614 33.4924 638.168 33.4924ZM646.732 35.2242V40.4024C646.732 40.7533 646.811 41.0079 646.97 41.1664C647.139 41.3135 647.422 41.3871 647.819 41.3871H649.007V43H647.479C646.607 43 645.94 42.7963 645.476 42.3888C645.012 41.9813 644.78 41.3192 644.78 40.4024V35.2242H643.676V33.6452H644.78V31.3193H646.732V33.6452H649.007V35.2242H646.732ZM654.186 43.1528C653.451 43.1528 652.789 43.0226 652.2 42.7623C651.623 42.4907 651.164 42.1285 650.825 41.6757C650.485 41.2117 650.304 40.6967 650.282 40.1308H652.285C652.319 40.5269 652.506 40.8608 652.845 41.1324C653.196 41.3928 653.632 41.5229 654.152 41.5229C654.696 41.5229 655.115 41.4211 655.409 41.2173C655.714 41.0023 655.867 40.7306 655.867 40.4024C655.867 40.0515 655.697 39.7912 655.358 39.6214C655.03 39.4516 654.503 39.2649 653.779 39.0612C653.077 38.8687 652.506 38.682 652.064 38.5009C651.623 38.3198 651.238 38.0425 650.91 37.669C650.593 37.2955 650.434 36.8031 650.434 36.1919C650.434 35.6939 650.581 35.2412 650.876 34.8337C651.17 34.4149 651.589 34.0867 652.132 33.849C652.687 33.6113 653.321 33.4924 654.034 33.4924C655.098 33.4924 655.952 33.7641 656.597 34.3074C657.254 34.8393 657.605 35.5694 657.65 36.4975H655.714C655.68 36.0787 655.511 35.7448 655.205 35.4958C654.899 35.2468 654.486 35.1223 653.966 35.1223C653.456 35.1223 653.066 35.2185 652.794 35.4109C652.523 35.6033 652.387 35.858 652.387 36.1749C652.387 36.4239 652.477 36.6333 652.658 36.8031C652.84 36.9729 653.06 37.1087 653.321 37.2106C653.581 37.3011 653.966 37.42 654.475 37.5671C655.154 37.7482 655.709 37.935 656.139 38.1274C656.58 38.3085 656.959 38.5801 657.276 38.9423C657.593 39.3045 657.757 39.7855 657.769 40.3854C657.769 40.9174 657.622 41.3928 657.327 41.8116C657.033 42.2303 656.614 42.5586 656.071 42.7963C655.539 43.034 654.911 43.1528 654.186 43.1528ZM668.192 35.2242H666.46V43H664.508V35.2242H663.404V33.6452H664.508V32.9831C664.508 31.9079 664.791 31.1269 665.357 30.6402C665.934 30.1422 666.834 29.8932 668.056 29.8932V31.506C667.468 31.506 667.055 31.6192 666.817 31.8456C666.579 32.0607 666.46 32.4398 666.46 32.9831V33.6452H668.192V35.2242ZM673.965 43.1528C673.082 43.1528 672.284 42.9547 671.571 42.5586C670.858 42.1511 670.298 41.5852 669.89 40.8608C669.483 40.1251 669.279 39.2762 669.279 38.3141C669.279 37.3634 669.489 36.5201 669.907 35.7844C670.326 35.0487 670.898 34.4828 671.622 34.0867C672.347 33.6905 673.156 33.4924 674.05 33.4924C674.944 33.4924 675.753 33.6905 676.478 34.0867C677.202 34.4828 677.774 35.0487 678.193 35.7844C678.611 36.5201 678.821 37.3634 678.821 38.3141C678.821 39.2649 678.606 40.1081 678.176 40.8438C677.746 41.5795 677.157 42.1511 676.41 42.5586C675.674 42.9547 674.859 43.1528 673.965 43.1528ZM673.965 41.472C674.463 41.472 674.927 41.3532 675.357 41.1155C675.799 40.8778 676.155 40.5212 676.427 40.0459C676.699 39.5705 676.834 38.9932 676.834 38.3141C676.834 37.635 676.704 37.0634 676.444 36.5994C676.184 36.124 675.838 35.7675 675.408 35.5298C674.978 35.2921 674.514 35.1732 674.016 35.1732C673.518 35.1732 673.054 35.2921 672.624 35.5298C672.205 35.7675 671.871 36.124 671.622 36.5994C671.373 37.0634 671.249 37.635 671.249 38.3141C671.249 39.3215 671.503 40.1025 672.013 40.6571C672.533 41.2004 673.184 41.472 673.965 41.472ZM682.67 35.0035C682.953 34.5281 683.326 34.1602 683.79 33.8999C684.265 33.6283 684.826 33.4924 685.471 33.4924V35.4958H684.979C684.22 35.4958 683.643 35.6882 683.247 36.0731C682.862 36.4579 682.67 37.1257 682.67 38.0764V43H680.734V33.6452H682.67V35.0035ZM692.645 32.4059C692.294 32.4059 692 32.287 691.762 32.0493C691.524 31.8116 691.406 31.5174 691.406 31.1665C691.406 30.8156 691.524 30.5213 691.762 30.2836C692 30.046 692.294 29.9271 692.645 29.9271C692.985 29.9271 693.273 30.046 693.511 30.2836C693.749 30.5213 693.867 30.8156 693.867 31.1665C693.867 31.5174 693.749 31.8116 693.511 32.0493C693.273 32.287 692.985 32.4059 692.645 32.4059ZM693.596 44.8336C693.596 45.7504 693.364 46.4125 692.9 46.82C692.447 47.2388 691.785 47.4482 690.913 47.4482H689.912V45.8183H690.574C690.97 45.8183 691.247 45.7391 691.406 45.5806C691.575 45.4335 691.66 45.1845 691.66 44.8336V33.6452H693.596V44.8336ZM704.609 33.6452V43H702.673V41.8964C702.368 42.2813 701.966 42.5869 701.468 42.8132C700.981 43.0283 700.46 43.1358 699.906 43.1358C699.17 43.1358 698.508 42.983 697.919 42.6774C697.342 42.3718 696.884 41.9191 696.544 41.3192C696.216 40.7193 696.052 39.9949 696.052 39.146V33.6452H697.97V38.8574C697.97 39.695 698.18 40.3401 698.599 40.7929C699.017 41.2343 699.589 41.455 700.313 41.455C701.038 41.455 701.609 41.2343 702.028 40.7929C702.458 40.3401 702.673 39.695 702.673 38.8574V33.6452H704.609ZM710.558 43.1528C709.822 43.1528 709.16 43.0226 708.572 42.7623C707.994 42.4907 707.536 42.1285 707.196 41.6757C706.857 41.2117 706.676 40.6967 706.653 40.1308H708.656C708.69 40.5269 708.877 40.8608 709.217 41.1324C709.568 41.3928 710.003 41.5229 710.524 41.5229C711.067 41.5229 711.486 41.4211 711.78 41.2173C712.086 41.0023 712.239 40.7306 712.239 40.4024C712.239 40.0515 712.069 39.7912 711.729 39.6214C711.401 39.4516 710.875 39.2649 710.15 39.0612C709.449 38.8687 708.877 38.682 708.436 38.5009C707.994 38.3198 707.609 38.0425 707.281 37.669C706.964 37.2955 706.806 36.8031 706.806 36.1919C706.806 35.6939 706.953 35.2412 707.247 34.8337C707.542 34.4149 707.96 34.0867 708.504 33.849C709.058 33.6113 709.692 33.4924 710.405 33.4924C711.469 33.4924 712.324 33.7641 712.969 34.3074C713.625 34.8393 713.976 35.5694 714.021 36.4975H712.086C712.052 36.0787 711.882 35.7448 711.577 35.4958C711.271 35.2468 710.858 35.1223 710.337 35.1223C709.828 35.1223 709.437 35.2185 709.166 35.4109C708.894 35.6033 708.758 35.858 708.758 36.1749C708.758 36.4239 708.849 36.6333 709.03 36.8031C709.211 36.9729 709.432 37.1087 709.692 37.2106C709.952 37.3011 710.337 37.42 710.847 37.5671C711.526 37.7482 712.08 37.935 712.51 38.1274C712.952 38.3085 713.331 38.5801 713.648 38.9423C713.965 39.3045 714.129 39.7855 714.14 40.3854C714.14 40.9174 713.993 41.3928 713.699 41.8116C713.405 42.2303 712.986 42.5586 712.442 42.7963C711.91 43.034 711.282 43.1528 710.558 43.1528ZM718.49 35.2242V40.4024C718.49 40.7533 718.569 41.0079 718.727 41.1664C718.897 41.3135 719.18 41.3871 719.576 41.3871H720.765V43H719.237C718.365 43 717.697 42.7963 717.233 42.3888C716.769 41.9813 716.537 41.3192 716.537 40.4024V35.2242H715.434V33.6452H716.537V31.3193H718.49V33.6452H720.765V35.2242H718.49ZM811.05 37.686H807.62V41.2004H805.821V37.686H802.391V36.0561H805.821V32.5417H807.62V36.0561H811.05V37.686ZM816.311 35.2242V40.4024C816.311 40.7533 816.39 41.0079 816.548 41.1664C816.718 41.3135 817.001 41.3871 817.397 41.3871H818.586V43H817.058C816.186 43 815.519 42.7963 815.054 42.3888C814.59 41.9813 814.358 41.3192 814.358 40.4024V35.2242H813.255V33.6452H814.358V31.3193H816.311V33.6452H818.586V35.2242H816.311ZM819.724 38.2802C819.724 37.3407 819.917 36.5088 820.302 35.7844C820.698 35.0601 821.23 34.4998 821.898 34.1036C822.577 33.6962 823.324 33.4924 824.139 33.4924C824.874 33.4924 825.514 33.6396 826.057 33.9339C826.612 34.2168 827.053 34.5734 827.381 35.0035V33.6452H829.334V43H827.381V41.6078C827.053 42.0492 826.606 42.4171 826.04 42.7114C825.474 43.0057 824.829 43.1528 824.105 43.1528C823.301 43.1528 822.565 42.9491 821.898 42.5416C821.23 42.1228 820.698 41.5456 820.302 40.8099C819.917 40.0628 819.724 39.2196 819.724 38.2802ZM827.381 38.3141C827.381 37.669 827.246 37.1087 826.974 36.6333C826.714 36.158 826.368 35.7958 825.938 35.5468C825.508 35.2977 825.044 35.1732 824.546 35.1732C824.048 35.1732 823.584 35.2977 823.154 35.5468C822.724 35.7844 822.373 36.141 822.101 36.6164C821.841 37.0804 821.711 37.635 821.711 38.2802C821.711 38.9253 821.841 39.4913 822.101 39.978C822.373 40.4647 822.724 40.8382 823.154 41.0985C823.595 41.3475 824.059 41.472 824.546 41.472C825.044 41.472 825.508 41.3475 825.938 41.0985C826.368 40.8495 826.714 40.4873 826.974 40.0119C827.246 39.5252 827.381 38.9593 827.381 38.3141ZM835.883 38.2632L838.905 43H836.715L834.694 39.8252L832.793 43H830.773L833.795 38.399L830.773 33.6452H832.963L834.983 36.8201L836.885 33.6452H838.905L835.883 38.2632ZM848.922 38.0934C848.922 38.4443 848.9 38.7612 848.854 39.0442H841.707C841.763 39.7912 842.041 40.3911 842.539 40.8438C843.037 41.2966 843.648 41.5229 844.372 41.5229C845.413 41.5229 846.149 41.0872 846.579 40.2156H848.668C848.385 41.0759 847.87 41.7833 847.123 42.3379C846.387 42.8812 845.47 43.1528 844.372 43.1528C843.478 43.1528 842.674 42.9547 841.961 42.5586C841.26 42.1511 840.705 41.5852 840.297 40.8608C839.901 40.1251 839.703 39.2762 839.703 38.3141C839.703 37.3521 839.896 36.5088 840.28 35.7844C840.677 35.0487 841.226 34.4828 841.927 34.0867C842.64 33.6905 843.455 33.4924 844.372 33.4924C845.255 33.4924 846.042 33.6849 846.732 34.0697C847.422 34.4545 847.96 34.9978 848.345 35.6996C848.73 36.39 848.922 37.1879 848.922 38.0934ZM846.902 37.4822C846.891 36.7692 846.636 36.1976 846.138 35.7675C845.64 35.3374 845.023 35.1223 844.287 35.1223C843.619 35.1223 843.048 35.3374 842.572 35.7675C842.097 36.1863 841.814 36.7578 841.724 37.4822H846.902ZM854.222 43.1528C853.487 43.1528 852.825 43.0226 852.236 42.7623C851.659 42.4907 851.2 42.1285 850.861 41.6757C850.521 41.2117 850.34 40.6967 850.318 40.1308H852.321C852.355 40.5269 852.542 40.8608 852.881 41.1324C853.232 41.3928 853.668 41.5229 854.188 41.5229C854.732 41.5229 855.151 41.4211 855.445 41.2173C855.75 41.0023 855.903 40.7306 855.903 40.4024C855.903 40.0515 855.733 39.7912 855.394 39.6214C855.066 39.4516 854.539 39.2649 853.815 39.0612C853.113 38.8687 852.542 38.682 852.1 38.5009C851.659 38.3198 851.274 38.0425 850.946 37.669C850.629 37.2955 850.47 36.8031 850.47 36.1919C850.47 35.6939 850.617 35.2412 850.912 34.8337C851.206 34.4149 851.625 34.0867 852.168 33.849C852.723 33.6113 853.357 33.4924 854.07 33.4924C855.134 33.4924 855.988 33.7641 856.633 34.3074C857.29 34.8393 857.641 35.5694 857.686 36.4975H855.75C855.716 36.0787 855.547 35.7448 855.241 35.4958C854.935 35.2468 854.522 35.1223 854.002 35.1223C853.492 35.1223 853.102 35.2185 852.83 35.4109C852.559 35.6033 852.423 35.858 852.423 36.1749C852.423 36.4239 852.513 36.6333 852.694 36.8031C852.876 36.9729 853.096 37.1087 853.357 37.2106C853.617 37.3011 854.002 37.42 854.511 37.5671C855.19 37.7482 855.745 37.935 856.175 38.1274C856.616 38.3085 856.995 38.5801 857.312 38.9423C857.629 39.3045 857.793 39.7855 857.805 40.3854C857.805 40.9174 857.658 41.3928 857.363 41.8116C857.069 42.2303 856.65 42.5586 856.107 42.7963C855.575 43.034 854.947 43.1528 854.222 43.1528Z" fill="white"/>
<path d="M740.093 30.0545V31.6843H742.402V34.5094H739.93C739.641 36.1212 738.934 37.3527 737.811 38.2038C736.689 39.0368 735.05 39.4534 732.895 39.4534V40.5399C732.895 41.2462 733.031 41.7986 733.302 42.197C733.574 42.5773 734.045 42.7674 734.715 42.7674C735.349 42.7674 735.801 42.5773 736.073 42.197C736.345 41.8167 736.48 41.2462 736.48 40.4856H740.772C740.7 42.3147 740.157 43.7363 739.143 44.7504C738.146 45.7646 736.707 46.2716 734.823 46.2716C732.795 46.2716 731.238 45.7465 730.151 44.6961C729.083 43.6276 728.548 42.034 728.548 39.9152V36.411C730.432 36.411 731.817 36.3747 732.705 36.3023C733.61 36.2117 734.28 36.0397 734.715 35.7862C735.167 35.5145 735.466 35.0889 735.611 34.5094H728.032V31.6843H735.747V30.0545H728.032V26.9306H742.402V30.0545H740.093ZM744.566 42.4686V38.7199L753.15 26.4416H758.338V38.4483H760.566V42.4686H758.338V46H753.693V42.4686H744.566ZM754.019 31.5485L749.456 38.4483H754.019V31.5485ZM762.95 42.4686V38.7199L771.534 26.4416H776.722V38.4483H778.95V42.4686H776.722V46H772.077V42.4686H762.95ZM772.403 31.5485L767.839 38.4483H772.403V31.5485ZM781.225 35.8133C781.225 32.6985 781.823 30.2446 783.018 28.4518C784.231 26.6589 786.178 25.7625 788.858 25.7625C791.538 25.7625 793.476 26.6589 794.671 28.4518C795.885 30.2446 796.491 32.6985 796.491 35.8133C796.491 38.9644 795.885 41.4364 794.671 43.2292C793.476 45.0221 791.538 45.9185 788.858 45.9185C786.178 45.9185 784.231 45.0221 783.018 43.2292C781.823 41.4364 781.225 38.9644 781.225 35.8133ZM791.928 35.8133C791.928 33.9843 791.728 32.5808 791.33 31.6028C790.932 30.6068 790.108 30.1088 788.858 30.1088C787.609 30.1088 786.785 30.6068 786.386 31.6028C785.988 32.5808 785.789 33.9843 785.789 35.8133C785.789 37.0448 785.861 38.068 786.006 38.8829C786.151 39.6797 786.44 40.3317 786.875 40.8388C787.328 41.3277 787.989 41.5722 788.858 41.5722C789.727 41.5722 790.379 41.3277 790.814 40.8388C791.267 40.3317 791.565 39.6797 791.71 38.8829C791.855 38.068 791.928 37.0448 791.928 35.8133Z" fill="white"/>
<rect x="1112" y="21" width="118" height="34" rx="4.24444" fill="url(#paint1_linear_590_6)"/>
<path d="M1132.44 46.1426C1131.39 46.1426 1130.45 45.9728 1129.63 45.6333C1128.8 45.2937 1128.13 44.7912 1127.63 44.1257C1127.14 43.4601 1126.88 42.6588 1126.86 41.7216H1130.56C1130.62 42.2513 1130.8 42.6588 1131.11 42.944C1131.43 43.2156 1131.83 43.3515 1132.34 43.3515C1132.85 43.3515 1133.26 43.236 1133.56 43.0051C1133.86 42.7606 1134.01 42.4279 1134.01 42.0068C1134.01 41.6537 1133.88 41.3617 1133.64 41.1308C1133.41 40.8999 1133.12 40.7097 1132.76 40.5603C1132.42 40.4109 1131.94 40.2411 1131.3 40.051C1130.37 39.7658 1129.62 39.4805 1129.04 39.1953C1128.45 38.9101 1127.95 38.489 1127.53 37.9322C1127.11 37.3753 1126.9 36.6486 1126.9 35.7522C1126.9 34.4212 1127.38 33.3821 1128.34 32.6351C1129.31 31.8745 1130.56 31.4942 1132.11 31.4942C1133.69 31.4942 1134.96 31.8745 1135.92 32.6351C1136.89 33.3821 1137.4 34.4279 1137.47 35.7726H1133.7C1133.67 35.3108 1133.5 34.9509 1133.19 34.6928C1132.88 34.4212 1132.48 34.2853 1131.99 34.2853C1131.57 34.2853 1131.23 34.4008 1130.97 34.6317C1130.71 34.849 1130.58 35.1682 1130.58 35.5892C1130.58 36.051 1130.8 36.411 1131.24 36.669C1131.67 36.9271 1132.35 37.2055 1133.27 37.5043C1134.2 37.8167 1134.94 38.1155 1135.51 38.4007C1136.1 38.686 1136.6 39.1002 1137.02 39.6435C1137.44 40.1868 1137.65 40.8863 1137.65 41.742C1137.65 42.5569 1137.44 43.2971 1137.02 43.9627C1136.61 44.6282 1136.02 45.1579 1135.23 45.5518C1134.44 45.9457 1133.51 46.1426 1132.44 46.1426ZM1143.28 34.4891V37.3821H1147.95V40.0714H1143.28V43.2089H1148.56V46H1139.8V31.6979H1148.56V34.4891H1143.28ZM1161.72 36.3023C1161.72 37.1308 1161.53 37.8914 1161.15 38.5841C1160.77 39.2632 1160.18 39.8133 1159.4 40.2343C1158.61 40.6554 1157.63 40.8659 1156.46 40.8659H1154.3V46H1150.82V31.6979H1156.46C1157.6 31.6979 1158.57 31.8949 1159.36 32.2887C1160.14 32.6826 1160.73 33.2259 1161.13 33.9186C1161.52 34.6113 1161.72 35.4059 1161.72 36.3023ZM1156.2 38.0951C1156.86 38.0951 1157.36 37.939 1157.69 37.6266C1158.01 37.3142 1158.17 36.8727 1158.17 36.3023C1158.17 35.7318 1158.01 35.2904 1157.69 34.978C1157.36 34.6656 1156.86 34.5094 1156.2 34.5094H1154.3V38.0951H1156.2ZM1173.82 31.6979V34.4891H1170.03V46H1166.55V34.4891H1162.76V31.6979H1173.82ZM1175.31 43.3515V40.5399L1181.74 31.3312H1185.63V40.3362H1187.31V43.3515H1185.63V46H1182.15V43.3515H1175.31ZM1182.4 35.1614L1178.97 40.3362H1182.4V35.1614ZM1189.09 43.3515V40.5399L1195.53 31.3312H1199.42V40.3362H1201.09V43.3515H1199.42V46H1195.94V43.3515H1189.09ZM1196.18 35.1614L1192.76 40.3362H1196.18V35.1614ZM1202.8 38.36C1202.8 36.0239 1203.25 34.1835 1204.14 32.8388C1205.05 31.4942 1206.51 30.8219 1208.52 30.8219C1210.53 30.8219 1211.99 31.4942 1212.88 32.8388C1213.79 34.1835 1214.25 36.0239 1214.25 38.36C1214.25 40.7233 1213.79 42.5773 1212.88 43.9219C1211.99 45.2666 1210.53 45.9389 1208.52 45.9389C1206.51 45.9389 1205.05 45.2666 1204.14 43.9219C1203.25 42.5773 1202.8 40.7233 1202.8 38.36ZM1210.83 38.36C1210.83 36.9882 1210.68 35.9356 1210.38 35.2021C1210.08 34.4551 1209.46 34.0816 1208.52 34.0816C1207.59 34.0816 1206.97 34.4551 1206.67 35.2021C1206.37 35.9356 1206.22 36.9882 1206.22 38.36C1206.22 39.2836 1206.28 40.051 1206.39 40.6622C1206.49 41.2598 1206.71 41.7488 1207.04 42.1291C1207.38 42.4958 1207.87 42.6791 1208.52 42.6791C1209.18 42.6791 1209.67 42.4958 1209.99 42.1291C1210.33 41.7488 1210.55 41.2598 1210.66 40.6622C1210.77 40.051 1210.83 39.2836 1210.83 38.36Z" fill="white"/>
<rect x="869" y="24" width="85.6232" height="28" rx="3.59936" fill="url(#paint2_linear_590_6)"/>
<path d="M878.422 37.131C877.339 36.5551 876.798 35.6509 876.798 34.4185C876.798 33.7965 876.959 33.2322 877.282 32.7254C877.604 32.2071 878.094 31.7982 878.75 31.4987C879.407 31.1877 880.213 31.0322 881.169 31.0322C882.125 31.0322 882.926 31.1877 883.571 31.4987C884.227 31.7982 884.717 32.2071 885.039 32.7254C885.362 33.2322 885.523 33.7965 885.523 34.4185C885.523 35.0405 885.373 35.5818 885.074 36.0426C884.786 36.5033 884.394 36.8661 883.899 37.131C884.521 37.4305 884.999 37.8451 885.333 38.3749C885.667 38.8932 885.834 39.5037 885.834 40.2063C885.834 41.0241 885.627 41.7324 885.212 42.3314C884.797 42.9188 884.233 43.368 883.519 43.679C882.816 43.9899 882.033 44.1454 881.169 44.1454C880.305 44.1454 879.516 43.9899 878.802 43.679C878.1 43.368 877.541 42.9188 877.126 42.3314C876.712 41.7324 876.504 41.0241 876.504 40.2063C876.504 39.4922 876.671 38.876 877.005 38.3577C877.339 37.8278 877.812 37.419 878.422 37.131ZM882.655 34.8677C882.655 34.3955 882.517 34.0327 882.24 33.7793C881.975 33.5144 881.618 33.3819 881.169 33.3819C880.72 33.3819 880.357 33.5144 880.081 33.7793C879.816 34.0442 879.683 34.4128 879.683 34.885C879.683 35.3342 879.822 35.6913 880.098 35.9562C880.374 36.2096 880.731 36.3363 881.169 36.3363C881.607 36.3363 881.964 36.2038 882.24 35.9389C882.517 35.674 882.655 35.3169 882.655 34.8677ZM881.169 38.4095C880.628 38.4095 880.19 38.5592 879.856 38.8587C879.522 39.1466 879.355 39.5498 879.355 40.0681C879.355 40.5518 879.516 40.9492 879.839 41.2602C880.173 41.5712 880.616 41.7267 881.169 41.7267C881.722 41.7267 882.154 41.5712 882.465 41.2602C882.787 40.9492 882.949 40.5518 882.949 40.0681C882.949 39.5613 882.782 39.1582 882.448 38.8587C882.125 38.5592 881.699 38.4095 881.169 38.4095ZM889.28 37.131C888.197 36.5551 887.656 35.6509 887.656 34.4185C887.656 33.7965 887.817 33.2322 888.139 32.7254C888.462 32.2071 888.951 31.7982 889.608 31.4987C890.264 31.1877 891.071 31.0322 892.027 31.0322C892.983 31.0322 893.783 31.1877 894.428 31.4987C895.085 31.7982 895.574 32.2071 895.897 32.7254C896.219 33.2322 896.38 33.7965 896.38 34.4185C896.38 35.0405 896.231 35.5818 895.931 36.0426C895.643 36.5033 895.252 36.8661 894.756 37.131C895.378 37.4305 895.856 37.8451 896.19 38.3749C896.524 38.8932 896.691 39.5037 896.691 40.2063C896.691 41.0241 896.484 41.7324 896.069 42.3314C895.655 42.9188 895.09 43.368 894.376 43.679C893.674 43.9899 892.89 44.1454 892.027 44.1454C891.163 44.1454 890.374 43.9899 889.66 43.679C888.957 43.368 888.398 42.9188 887.984 42.3314C887.569 41.7324 887.362 41.0241 887.362 40.2063C887.362 39.4922 887.529 38.876 887.863 38.3577C888.197 37.8278 888.669 37.419 889.28 37.131ZM893.512 34.8677C893.512 34.3955 893.374 34.0327 893.098 33.7793C892.833 33.5144 892.476 33.3819 892.027 33.3819C891.577 33.3819 891.215 33.5144 890.938 33.7793C890.673 34.0442 890.541 34.4128 890.541 34.885C890.541 35.3342 890.679 35.6913 890.955 35.9562C891.232 36.2096 891.589 36.3363 892.027 36.3363C892.464 36.3363 892.821 36.2038 893.098 35.9389C893.374 35.674 893.512 35.3169 893.512 34.8677ZM892.027 38.4095C891.485 38.4095 891.048 38.5592 890.714 38.8587C890.38 39.1466 890.213 39.5498 890.213 40.0681C890.213 40.5518 890.374 40.9492 890.696 41.2602C891.03 41.5712 891.474 41.7267 892.027 41.7267C892.579 41.7267 893.011 41.5712 893.322 41.2602C893.645 40.9492 893.806 40.5518 893.806 40.0681C893.806 39.5613 893.639 39.1582 893.305 38.8587C892.983 38.5592 892.556 38.4095 892.027 38.4095ZM897.822 34.4704C897.822 33.5374 898.087 32.8175 898.617 32.3107C899.158 31.8039 899.855 31.5505 900.707 31.5505C901.56 31.5505 902.251 31.8039 902.78 32.3107C903.31 32.8175 903.575 33.5374 903.575 34.4704C903.575 35.4033 903.31 36.1232 902.78 36.63C902.251 37.1368 901.56 37.3902 900.707 37.3902C899.855 37.3902 899.158 37.1368 898.617 36.63C898.087 36.1232 897.822 35.4033 897.822 34.4704ZM909.553 31.7406L902.901 43.9036H900.051L906.702 31.7406H909.553ZM900.69 33.2782C900.137 33.2782 899.861 33.6756 899.861 34.4704C899.861 35.2536 900.137 35.6452 900.69 35.6452C900.955 35.6452 901.162 35.5473 901.312 35.3515C901.462 35.1557 901.536 34.862 901.536 34.4704C901.536 33.6756 901.254 33.2782 900.69 33.2782ZM906.046 41.1738C906.046 40.2409 906.311 39.521 906.841 39.0142C907.37 38.5074 908.061 38.254 908.914 38.254C909.766 38.254 910.457 38.5074 910.987 39.0142C911.517 39.521 911.782 40.2409 911.782 41.1738C911.782 42.1068 911.517 42.8266 910.987 43.3334C910.457 43.8402 909.766 44.0936 908.914 44.0936C908.061 44.0936 907.37 43.8402 906.841 43.3334C906.311 42.8266 906.046 42.1068 906.046 41.1738ZM908.896 39.9817C908.632 39.9817 908.424 40.0796 908.275 40.2754C908.136 40.4712 908.067 40.7707 908.067 41.1738C908.067 41.957 908.344 42.3486 908.896 42.3486C909.161 42.3486 909.369 42.2507 909.518 42.0549C909.668 41.8591 909.743 41.5654 909.743 41.1738C909.743 40.7822 909.668 40.4885 909.518 40.2927C909.369 40.0854 909.161 39.9817 908.896 39.9817ZM922.097 44.0245C920.956 44.0245 919.908 43.7596 918.952 43.2298C918.008 42.6999 917.253 41.9628 916.689 41.0183C916.136 40.0623 915.86 38.9912 915.86 37.8048C915.86 36.6185 916.136 35.553 916.689 34.6086C917.253 33.6641 918.008 32.9269 918.952 32.3971C919.908 31.8673 920.956 31.6024 922.097 31.6024C923.237 31.6024 924.279 31.8673 925.224 32.3971C926.18 32.9269 926.928 33.6641 927.47 34.6086C928.023 35.553 928.299 36.6185 928.299 37.8048C928.299 38.9912 928.023 40.0623 927.47 41.0183C926.917 41.9628 926.168 42.6999 925.224 43.2298C924.279 43.7596 923.237 44.0245 922.097 44.0245ZM922.097 41.3293C923.064 41.3293 923.836 41.0068 924.412 40.3618C924.999 39.7168 925.293 38.8645 925.293 37.8048C925.293 36.7336 924.999 35.8813 924.412 35.2478C923.836 34.6028 923.064 34.2803 922.097 34.2803C921.118 34.2803 920.334 34.597 919.747 35.2305C919.171 35.864 918.883 36.7221 918.883 37.8048C918.883 38.876 919.171 39.7341 919.747 40.3791C920.334 41.0126 921.118 41.3293 922.097 41.3293ZM937.493 31.7751V34.1421H932.551V36.6991H936.249V38.9969H932.551V43.9036H929.597V31.7751H937.493ZM946.595 31.7751V34.1421H941.654V36.6991H945.352V38.9969H941.654V43.9036H938.7V31.7751H946.595Z" fill="white"/>
<path d="M1021.51 31.1495V38.4839C1021.51 39.2875 1021.72 39.9044 1022.14 40.3345C1022.56 40.7533 1023.15 40.9627 1023.91 40.9627C1024.68 40.9627 1025.27 40.7533 1025.69 40.3345C1026.11 39.9044 1026.32 39.2875 1026.32 38.4839V31.1495H1028.71V38.4669C1028.71 39.4743 1028.49 40.3288 1028.05 41.0306C1027.62 41.721 1027.04 42.2417 1026.3 42.5925C1025.58 42.9434 1024.77 43.1188 1023.87 43.1188C1022.99 43.1188 1022.19 42.9434 1021.46 42.5925C1020.75 42.2417 1020.18 41.721 1019.77 41.0306C1019.35 40.3288 1019.14 39.4743 1019.14 38.4669V31.1495H1021.51ZM1034.61 43.1528C1033.84 43.1528 1033.15 43.017 1032.54 42.7453C1031.93 42.4624 1031.44 42.0832 1031.08 41.6078C1030.73 41.1324 1030.53 40.6061 1030.5 40.0289H1032.89C1032.94 40.3911 1033.11 40.691 1033.42 40.9287C1033.74 41.1664 1034.13 41.2852 1034.59 41.2852C1035.04 41.2852 1035.4 41.1947 1035.64 41.0136C1035.9 40.8325 1036.03 40.6005 1036.03 40.3175C1036.03 40.0119 1035.88 39.7855 1035.56 39.6384C1035.25 39.4799 1034.76 39.3102 1034.08 39.1291C1033.38 38.9593 1032.8 38.7839 1032.35 38.6028C1031.91 38.4217 1031.52 38.1444 1031.2 37.7708C1030.88 37.3973 1030.72 36.8937 1030.72 36.2598C1030.72 35.7392 1030.87 35.2638 1031.16 34.8337C1031.47 34.4036 1031.9 34.064 1032.45 33.815C1033.02 33.566 1033.68 33.4415 1034.44 33.4415C1035.56 33.4415 1036.45 33.7245 1037.12 34.2904C1037.79 34.845 1038.16 35.5977 1038.23 36.5484H1035.95C1035.92 36.1749 1035.76 35.8807 1035.47 35.6656C1035.2 35.4392 1034.84 35.326 1034.37 35.326C1033.94 35.326 1033.61 35.4053 1033.37 35.5637C1033.14 35.7222 1033.03 35.9429 1033.03 36.2259C1033.03 36.5428 1033.19 36.7861 1033.51 36.9559C1033.82 37.1144 1034.31 37.2785 1034.98 37.4483C1035.66 37.618 1036.22 37.7935 1036.66 37.9746C1037.1 38.1557 1037.48 38.4386 1037.8 38.8235C1038.13 39.197 1038.3 39.695 1038.31 40.3175C1038.31 40.8608 1038.16 41.3475 1037.85 41.7776C1037.56 42.2077 1037.13 42.5473 1036.56 42.7963C1036.01 43.034 1035.36 43.1528 1034.61 43.1528ZM1049 38.0934C1049 38.433 1048.98 38.7386 1048.94 39.0102H1042.06C1042.12 39.6893 1042.35 40.2213 1042.77 40.6061C1043.19 40.991 1043.71 41.1834 1044.32 41.1834C1045.2 41.1834 1045.83 40.8042 1046.2 40.0459H1048.77C1048.5 40.9513 1047.97 41.6984 1047.2 42.2869C1046.44 42.8642 1045.49 43.1528 1044.37 43.1528C1043.46 43.1528 1042.65 42.9547 1041.92 42.5586C1041.21 42.1511 1040.65 41.5795 1040.24 40.8438C1039.85 40.1081 1039.65 39.2592 1039.65 38.2972C1039.65 37.3238 1039.85 36.4692 1040.24 35.7335C1040.64 34.9978 1041.19 34.4319 1041.91 34.0357C1042.62 33.6396 1043.44 33.4415 1044.37 33.4415C1045.26 33.4415 1046.06 33.6339 1046.76 34.0188C1047.48 34.4036 1048.03 34.9525 1048.41 35.6656C1048.81 36.3673 1049 37.1766 1049 38.0934ZM1046.54 37.4143C1046.53 36.8031 1046.31 36.3164 1045.88 35.9542C1045.45 35.5807 1044.92 35.394 1044.3 35.394C1043.71 35.394 1043.22 35.5751 1042.81 35.9372C1042.41 36.2881 1042.17 36.7805 1042.08 37.4143H1046.54ZM1054.21 37.0578C1054.21 35.892 1054.47 34.8507 1054.99 33.9339C1055.52 33.0057 1056.24 32.287 1057.14 31.7777C1058.06 31.257 1059.09 30.9967 1060.22 30.9967C1061.54 30.9967 1062.7 31.3363 1063.7 32.0154C1064.69 32.6945 1065.39 33.6339 1065.79 34.8337H1063.05C1062.78 34.2678 1062.4 33.8433 1061.9 33.5604C1061.41 33.2774 1060.85 33.1359 1060.2 33.1359C1059.51 33.1359 1058.89 33.3 1058.35 33.6283C1057.82 33.9452 1057.4 34.3979 1057.09 34.9865C1056.8 35.5751 1056.65 36.2655 1056.65 37.0578C1056.65 37.8388 1056.8 38.5292 1057.09 39.1291C1057.4 39.7176 1057.82 40.176 1058.35 40.5043C1058.89 40.8212 1059.51 40.9796 1060.2 40.9796C1060.85 40.9796 1061.41 40.8382 1061.9 40.5552C1062.4 40.2609 1062.78 39.8308 1063.05 39.2649H1065.79C1065.39 40.476 1064.69 41.4211 1063.7 42.1002C1062.71 42.768 1061.55 43.1019 1060.22 43.1019C1059.09 43.1019 1058.06 42.8472 1057.14 42.3379C1056.24 41.8172 1055.52 41.0985 1054.99 40.1817C1054.47 39.2649 1054.21 38.2236 1054.21 37.0578ZM1071.99 43.1528C1071.09 43.1528 1070.27 42.9547 1069.55 42.5586C1068.82 42.1511 1068.25 41.5795 1067.83 40.8438C1067.43 40.1081 1067.22 39.2592 1067.22 38.2972C1067.22 37.3351 1067.43 36.4862 1067.85 35.7505C1068.28 35.0148 1068.86 34.4489 1069.6 34.0527C1070.34 33.6452 1071.16 33.4415 1072.06 33.4415C1072.97 33.4415 1073.79 33.6452 1074.52 34.0527C1075.26 34.4489 1075.84 35.0148 1076.25 35.7505C1076.68 36.4862 1076.9 37.3351 1076.9 38.2972C1076.9 39.2592 1076.68 40.1081 1076.24 40.8438C1075.81 41.5795 1075.22 42.1511 1074.47 42.5586C1073.74 42.9547 1072.91 43.1528 1071.99 43.1528ZM1071.99 41.0815C1072.42 41.0815 1072.83 40.9796 1073.2 40.7759C1073.58 40.5609 1073.89 40.2439 1074.12 39.8252C1074.34 39.4064 1074.46 38.897 1074.46 38.2972C1074.46 37.403 1074.22 36.7182 1073.74 36.2428C1073.28 35.7561 1072.71 35.5128 1072.03 35.5128C1071.35 35.5128 1070.78 35.7561 1070.31 36.2428C1069.86 36.7182 1069.63 37.403 1069.63 38.2972C1069.63 39.1913 1069.85 39.8817 1070.3 40.3684C1070.75 40.8438 1071.31 41.0815 1071.99 41.0815ZM1078.03 38.2632C1078.03 37.3124 1078.22 36.4692 1078.59 35.7335C1078.98 34.9978 1079.5 34.4319 1080.15 34.0357C1080.81 33.6396 1081.54 33.4415 1082.34 33.4415C1082.96 33.4415 1083.54 33.5773 1084.09 33.849C1084.65 34.1093 1085.09 34.4602 1085.42 34.9016V30.4364H1087.83V43H1085.42V41.6078C1085.12 42.0719 1084.71 42.4454 1084.18 42.7284C1083.65 43.0113 1083.03 43.1528 1082.33 43.1528C1081.54 43.1528 1080.81 42.9491 1080.15 42.5416C1079.5 42.1341 1078.98 41.5625 1078.59 40.8268C1078.22 40.0798 1078.03 39.2253 1078.03 38.2632ZM1085.43 38.2972C1085.43 37.7199 1085.32 37.2276 1085.09 36.8201C1084.87 36.4013 1084.56 36.0844 1084.18 35.8693C1083.79 35.643 1083.38 35.5298 1082.94 35.5298C1082.5 35.5298 1082.09 35.6373 1081.72 35.8524C1081.34 36.0674 1081.04 36.3843 1080.8 36.8031C1080.57 37.2106 1080.46 37.6973 1080.46 38.2632C1080.46 38.8291 1080.57 39.3271 1080.8 39.7572C1081.04 40.176 1081.34 40.4986 1081.72 40.725C1082.1 40.9513 1082.51 41.0645 1082.94 41.0645C1083.38 41.0645 1083.79 40.957 1084.18 40.742C1084.56 40.5156 1084.87 40.1987 1085.09 39.7912C1085.32 39.3724 1085.43 38.8744 1085.43 38.2972ZM1098.89 38.0934C1098.89 38.433 1098.87 38.7386 1098.83 39.0102H1091.95C1092.01 39.6893 1092.24 40.2213 1092.66 40.6061C1093.08 40.991 1093.6 41.1834 1094.21 41.1834C1095.09 41.1834 1095.72 40.8042 1096.09 40.0459H1098.66C1098.38 40.9513 1097.86 41.6984 1097.09 42.2869C1096.32 42.8642 1095.38 43.1528 1094.26 43.1528C1093.35 43.1528 1092.54 42.9547 1091.81 42.5586C1091.1 42.1511 1090.54 41.5795 1090.13 40.8438C1089.74 40.1081 1089.54 39.2592 1089.54 38.2972C1089.54 37.3238 1089.74 36.4692 1090.13 35.7335C1090.53 34.9978 1091.08 34.4319 1091.8 34.0357C1092.51 33.6396 1093.33 33.4415 1094.26 33.4415C1095.15 33.4415 1095.95 33.6339 1096.65 34.0188C1097.37 34.4036 1097.91 34.9525 1098.3 35.6656C1098.7 36.3673 1098.89 37.1766 1098.89 38.0934ZM1096.43 37.4143C1096.42 36.8031 1096.2 36.3164 1095.77 35.9542C1095.34 35.5807 1094.81 35.394 1094.19 35.394C1093.6 35.394 1093.1 35.5751 1092.7 35.9372C1092.3 36.2881 1092.06 36.7805 1091.97 37.4143H1096.43Z" fill="white"/>
<defs>
<linearGradient id="paint0_linear_590_6" x1="699.967" y1="36.4597" x2="700.11" y2="83.7872" gradientUnits="userSpaceOnUse">
<stop stop-color="#5948EA"/>
<stop offset="1" stop-color="#9349EB"/>
</linearGradient>
<linearGradient id="paint1_linear_590_6" x1="1171" y1="37.9812" x2="1171.36" y2="60.0183" gradientUnits="userSpaceOnUse">
<stop stop-color="#F55A47"/>
<stop offset="1" stop-color="#F77B26"/>
</linearGradient>
<linearGradient id="paint2_linear_590_6" x1="911.81" y1="37.9845" x2="912.152" y2="56.1313" gradientUnits="userSpaceOnUse">
<stop stop-color="#F55A47"/>
<stop offset="1" stop-color="#F77B26"/>
</linearGradient>
</defs>
</svg>
