<svg width="768" height="635" viewBox="0 0 768 635" fill="none" xmlns="http://www.w3.org/2000/svg">
<g clip-path="url(#clip0_16_621)">
<rect width="768" height="635" fill="white"/>
<path d="M281.477 383.321C288.708 383.321 294.071 378.963 294.071 370.775V347.887H287.558V371.158C287.558 374.606 284.829 377.287 281.429 377.287C277.982 377.287 275.396 374.606 275.396 371.158V347.887H268.884V370.775C268.884 378.963 274.199 383.321 281.477 383.321ZM309.843 383.321C317.504 383.321 321.91 377.958 321.91 372.451C321.91 365.747 316.547 363.641 311.806 362.108C307.976 360.816 304.672 360.001 304.672 357.176C304.672 354.926 306.348 353.202 309.556 353.202C312.285 353.202 314.392 354.303 315.876 356.554L321.239 352.484C318.414 349.563 315.11 347.408 309.508 347.408C302.804 347.408 297.92 351.813 297.92 357.416C297.92 364.072 303.092 365.843 307.832 367.375C311.519 368.525 315.11 369.482 315.11 372.403C315.11 374.845 313.243 377.096 309.795 377.096C306.587 377.096 303.906 375.42 302.134 372.355L296.197 377.048C299.405 380.639 303.571 383.321 309.843 383.321ZM325.045 382.842H345.778V376.617H331.557V368.381H345.778V362.156H331.557V354.112H345.778V347.887H325.045V382.842ZM378.143 383.321C385.038 383.321 390.928 379.298 393.992 373.361L388.055 370.248C386.187 374.079 382.835 376.808 377.999 376.808C371.487 376.808 366.651 371.733 366.651 365.364C366.651 358.852 371.487 353.825 378.143 353.825C382.692 353.825 385.708 356.075 387.767 359.714L393.465 356.075C390.401 350.856 384.703 347.408 378.143 347.408C368.039 347.408 360.187 354.926 360.187 365.364C360.187 375.324 367.369 383.321 378.143 383.321ZM413.398 383.321C423.358 383.321 431.307 375.324 431.307 365.364C431.307 355.453 423.358 347.408 413.398 347.408C403.439 347.408 395.538 355.453 395.538 365.364C395.538 375.324 403.439 383.321 413.398 383.321ZM413.398 376.904C407.03 376.904 402.002 371.733 402.002 365.364C402.002 358.996 407.03 353.825 413.398 353.825C419.767 353.825 424.842 358.996 424.842 365.364C424.842 371.733 419.767 376.904 413.398 376.904ZM434.325 382.842H444.141C454.771 382.842 462.337 375.324 462.337 365.364C462.337 355.453 455.633 347.887 443.854 347.887H434.325V382.842ZM443.088 353.92C451.755 353.92 455.825 358.661 455.825 365.364C455.825 371.877 451.036 376.808 443.375 376.808H440.837V353.92H443.088ZM465.374 382.842H486.108V376.617H471.886V368.381H486.108V362.156H471.886V354.112H486.108V347.887H465.374V382.842Z" fill="white"/>
<rect x="75" y="336.206" width="618.747" height="264.585" rx="41.471" fill="white"/>
<rect x="72.9265" y="334.133" width="622.894" height="268.732" rx="43.5445" stroke="url(#paint0_linear_16_621)" stroke-opacity="0.99" stroke-width="4.1471"/>
<rect x="255.813" y="294.735" width="257.12" height="82.9419" fill="white"/>
<rect x="255.813" y="531.949" width="257.12" height="82.9419" fill="white"/>
<g filter="url(#filter0_d_16_621)">
<path d="M162.436 413.883H189.972C199.372 413.883 206.229 416.094 210.542 420.518C214.855 424.831 217.011 431.522 217.011 440.59V445.235C217.011 451.206 216.016 456.072 214.026 459.832C212.145 463.592 209.215 466.302 205.234 467.961V468.292C214.302 471.389 218.836 479.462 218.836 492.511V502.465C218.836 511.422 216.458 518.279 211.703 523.034C207.058 527.679 200.202 530.001 191.134 530.001H162.436V413.883ZM187.816 461.159C191.465 461.159 194.175 460.219 195.944 458.339C197.824 456.459 198.764 453.308 198.764 448.884V442.415C198.764 438.212 197.99 435.171 196.442 433.291C195.004 431.411 192.682 430.471 189.475 430.471H180.683V461.159H187.816ZM191.134 513.413C194.341 513.413 196.718 512.583 198.267 510.925C199.815 509.155 200.589 506.169 200.589 501.967V491.848C200.589 486.54 199.649 482.89 197.769 480.9C195.999 478.798 193.014 477.748 188.811 477.748H180.683V513.413H191.134ZM229.502 413.883H257.37C266.439 413.883 273.24 416.316 277.774 421.181C282.308 426.047 284.575 433.18 284.575 442.58V501.303C284.575 510.703 282.308 517.836 277.774 522.702C273.24 527.568 266.439 530.001 257.37 530.001H229.502V413.883ZM257.039 513.413C260.025 513.413 262.292 512.528 263.84 510.759C265.499 508.989 266.328 506.114 266.328 502.133V441.751C266.328 437.77 265.499 434.895 263.84 433.125C262.292 431.356 260.025 430.471 257.039 430.471H247.749V513.413H257.039ZM310.668 413.883H335.385L354.296 530.001H336.049L332.731 506.943V507.275H311.995L308.678 530.001H291.758L310.668 413.883ZM330.574 491.516L322.446 434.12H322.114L314.152 491.516H330.574ZM372.289 480.568L350.226 413.883H369.635L382.076 456.515H382.408L394.849 413.883H412.599L390.536 480.568V530.001H372.289V480.568ZM446.697 531.66C437.739 531.66 430.938 529.172 426.293 524.195C421.759 519.219 419.492 512.086 419.492 502.796V493.341H436.744V503.626C436.744 511.256 439.896 515.072 446.199 515.072C449.296 515.072 451.618 514.132 453.166 512.252C454.825 510.261 455.655 506.833 455.655 501.967V492.511C455.655 487.203 454.715 483.443 452.835 481.231C450.955 478.909 447.913 477.748 443.711 477.748H437.573V461.159H444.209C447.858 461.159 450.568 460.219 452.337 458.339C454.217 456.459 455.157 453.308 455.157 448.884V440.424C455.157 436.443 454.328 433.512 452.669 431.632C451.01 429.752 448.798 428.812 446.033 428.812C440.172 428.812 437.242 432.406 437.242 439.595V447.225H419.99V441.087C419.99 431.798 422.257 424.665 426.791 419.688C431.436 414.712 438.071 412.224 446.697 412.224C455.434 412.224 462.069 414.712 466.603 419.688C471.137 424.554 473.404 431.632 473.404 440.922V445.069C473.404 451.372 472.354 456.459 470.252 460.33C468.151 464.09 464.889 466.799 460.465 468.458V468.79C465.221 470.56 468.649 473.435 470.75 477.416C472.851 481.397 473.902 486.484 473.902 492.677V502.962C473.902 512.252 471.58 519.385 466.935 524.361C462.401 529.227 455.655 531.66 446.697 531.66ZM514.111 531.66C505.153 531.66 498.296 529.117 493.541 524.029C488.786 518.942 486.408 511.754 486.408 502.465V442.415C486.408 422.287 495.697 412.224 514.276 412.224C523.124 412.224 529.87 414.767 534.514 419.854C539.159 424.831 541.481 432.019 541.481 441.419V443.576H524.23V440.258C524.23 432.627 521.078 428.812 514.774 428.812C511.346 428.812 508.802 429.863 507.143 431.964C505.485 434.065 504.655 437.77 504.655 443.078V465.307H504.987C508.194 458.561 513.724 455.188 521.575 455.188C528.211 455.188 533.243 457.455 536.671 461.989C540.099 466.523 541.813 473.103 541.813 481.729V502.465C541.813 511.754 539.436 518.942 534.68 524.029C529.925 529.117 523.068 531.66 514.111 531.66ZM514.111 515.072C520.414 515.072 523.566 511.312 523.566 503.792V483.222C523.566 475.591 520.414 471.776 514.111 471.776C507.807 471.776 504.655 475.591 504.655 483.222V503.792C504.655 511.312 507.807 515.072 514.111 515.072ZM580.031 531.66C571.074 531.66 564.217 529.117 559.462 524.029C554.706 518.942 552.329 511.754 552.329 502.465V441.419C552.329 432.13 554.706 424.941 559.462 419.854C564.217 414.767 571.074 412.224 580.031 412.224C588.989 412.224 595.846 414.767 600.601 419.854C605.356 424.941 607.734 432.13 607.734 441.419V502.465C607.734 511.754 605.356 518.942 600.601 524.029C595.846 529.117 588.989 531.66 580.031 531.66ZM580.031 515.072C586.335 515.072 589.487 511.256 589.487 503.626V440.258C589.487 432.627 586.335 428.812 580.031 428.812C573.728 428.812 570.576 432.627 570.576 440.258V503.626C570.576 511.256 573.728 515.072 580.031 515.072Z" fill="url(#paint1_linear_16_621)"/>
</g>
<path d="M294.935 361.73C291.043 361.73 288.074 360.635 286.031 358.445C283.987 356.207 282.965 353.02 282.965 348.884V309.908H290.994V349.468C290.994 351.219 291.335 352.485 292.016 353.263C292.746 354.042 293.768 354.431 295.081 354.431C296.395 354.431 297.393 354.042 298.074 353.263C298.804 352.485 299.169 351.219 299.169 349.468V309.908H306.906V348.884C306.906 353.02 305.884 356.207 303.84 358.445C301.796 360.635 298.828 361.73 294.935 361.73ZM323.061 361.73C319.168 361.73 316.225 360.635 314.23 358.445C312.235 356.207 311.237 353.02 311.237 348.884V345.964H318.828V349.468C318.828 352.777 320.215 354.431 322.988 354.431C324.351 354.431 325.373 354.042 326.054 353.263C326.784 352.436 327.149 351.122 327.149 349.322C327.149 347.181 326.662 345.307 325.689 343.702C324.716 342.047 322.915 340.077 320.288 337.79C316.979 334.87 314.668 332.242 313.354 329.907C312.04 327.522 311.383 324.846 311.383 321.878C311.383 317.839 312.405 314.725 314.449 312.535C316.492 310.297 319.46 309.178 323.353 309.178C327.197 309.178 330.092 310.297 332.039 312.535C334.034 314.725 335.031 317.888 335.031 322.024V324.141H327.441V321.513C327.441 319.761 327.1 318.496 326.419 317.718C325.737 316.89 324.74 316.477 323.426 316.477C320.75 316.477 319.412 318.107 319.412 321.367C319.412 323.216 319.898 324.943 320.872 326.549C321.893 328.155 323.718 330.101 326.346 332.388C329.703 335.308 332.015 337.96 333.28 340.344C334.545 342.728 335.177 345.526 335.177 348.738C335.177 352.923 334.131 356.134 332.039 358.372C329.995 360.611 327.003 361.73 323.061 361.73ZM339.781 309.908H361.677V317.207H347.81V330.71H358.831V338.009H347.81V353.701H361.677V361H339.781V309.908ZM389.299 361.73C385.455 361.73 382.511 360.635 380.468 358.445C378.473 356.256 377.475 353.166 377.475 349.176V321.732C377.475 317.742 378.473 314.652 380.468 312.462C382.511 310.273 385.455 309.178 389.299 309.178C393.143 309.178 396.063 310.273 398.058 312.462C400.102 314.652 401.123 317.742 401.123 321.732V327.133H393.533V321.221C393.533 318.058 392.194 316.477 389.518 316.477C386.842 316.477 385.504 318.058 385.504 321.221V349.76C385.504 352.874 386.842 354.431 389.518 354.431C392.194 354.431 393.533 352.874 393.533 349.76V341.95H401.123V349.176C401.123 353.166 400.102 356.256 398.058 358.445C396.063 360.635 393.143 361.73 389.299 361.73ZM417.675 361.73C413.733 361.73 410.716 360.611 408.624 358.372C406.532 356.134 405.486 352.971 405.486 348.884V322.024C405.486 317.937 406.532 314.774 408.624 312.535C410.716 310.297 413.733 309.178 417.675 309.178C421.616 309.178 424.633 310.297 426.725 312.535C428.818 314.774 429.864 317.937 429.864 322.024V348.884C429.864 352.971 428.818 356.134 426.725 358.372C424.633 360.611 421.616 361.73 417.675 361.73ZM417.675 354.431C420.448 354.431 421.835 352.752 421.835 349.395V321.513C421.835 318.156 420.448 316.477 417.675 316.477C414.901 316.477 413.514 318.156 413.514 321.513V349.395C413.514 352.752 414.901 354.431 417.675 354.431ZM435.294 309.908H447.556C451.546 309.908 454.538 310.978 456.533 313.119C458.528 315.26 459.526 318.399 459.526 322.535V348.373C459.526 352.509 458.528 355.647 456.533 357.788C454.538 359.929 451.546 361 447.556 361H435.294V309.908ZM447.41 353.701C448.724 353.701 449.721 353.312 450.402 352.533C451.132 351.755 451.497 350.49 451.497 348.738V322.17C451.497 320.418 451.132 319.153 450.402 318.374C449.721 317.596 448.724 317.207 447.41 317.207H443.322V353.701H447.41ZM464.945 309.908H486.842V317.207H472.974V330.71H483.995V338.009H472.974V353.701H486.842V361H464.945V309.908Z" fill="url(#paint2_linear_16_621)" fill-opacity="0.99"/>
<path d="M294.302 629.21C290.055 629.21 286.817 628.016 284.588 625.627C282.358 623.185 281.243 619.708 281.243 615.196V614.161H289.524V615.754C289.524 619.417 291.037 621.248 294.063 621.248C295.708 621.248 296.929 620.744 297.726 619.735C298.522 618.726 298.92 616.948 298.92 614.4V603.731H298.761C297.221 606.969 294.567 608.588 290.798 608.588C287.613 608.588 285.198 607.499 283.552 605.323C281.907 603.147 281.084 599.988 281.084 595.848V585.895C281.084 581.436 282.225 577.985 284.508 575.544C286.791 573.102 290.082 571.881 294.381 571.881C298.681 571.881 301.972 573.102 304.255 575.544C306.537 577.985 307.679 581.436 307.679 585.895V614.719C307.679 624.38 303.22 629.21 294.302 629.21ZM294.381 600.625C297.407 600.625 298.92 598.794 298.92 595.131V585.258C298.92 581.648 297.407 579.843 294.381 579.843C291.356 579.843 289.843 581.648 289.843 585.258V595.131C289.843 598.794 291.356 600.625 294.381 600.625ZM326.501 629.21C322.201 629.21 318.91 627.989 316.628 625.548C314.345 623.106 313.204 619.655 313.204 615.196V585.895C313.204 581.436 314.345 577.985 316.628 575.544C318.91 573.102 322.201 571.881 326.501 571.881C330.801 571.881 334.092 573.102 336.374 575.544C338.657 577.985 339.798 581.436 339.798 585.895V615.196C339.798 619.655 338.657 623.106 336.374 625.548C334.092 627.989 330.801 629.21 326.501 629.21ZM326.501 621.248C329.527 621.248 331.04 619.417 331.04 615.754V585.337C331.04 581.675 329.527 579.843 326.501 579.843C323.475 579.843 321.962 581.675 321.962 585.337V615.754C321.962 619.417 323.475 621.248 326.501 621.248ZM353.684 603.651C350.924 603.651 348.827 602.881 347.394 601.342C345.96 599.802 345.244 597.599 345.244 594.733V580.799C345.244 577.932 345.96 575.729 347.394 574.19C348.827 572.651 350.924 571.881 353.684 571.881C356.444 571.881 358.541 572.651 359.974 574.19C361.408 575.729 362.124 577.932 362.124 580.799V594.733C362.124 597.599 361.408 599.802 359.974 601.342C358.541 602.881 356.444 603.651 353.684 603.651ZM373.909 572.677H379.482L357.904 628.414H352.33L373.909 572.677ZM353.684 598.635C355.595 598.635 356.55 597.467 356.55 595.131V580.401C356.55 578.065 355.595 576.897 353.684 576.897C351.773 576.897 350.818 578.065 350.818 580.401V595.131C350.818 597.467 351.773 598.635 353.684 598.635ZM378.129 629.21C375.368 629.21 373.272 628.441 371.838 626.901C370.405 625.362 369.688 623.159 369.688 620.292V606.358C369.688 603.492 370.405 601.289 371.838 599.749C373.272 598.21 375.368 597.44 378.129 597.44C380.889 597.44 382.986 598.21 384.419 599.749C385.852 601.289 386.569 603.492 386.569 606.358V620.292C386.569 623.159 385.852 625.362 384.419 626.901C382.986 628.441 380.889 629.21 378.129 629.21ZM378.129 624.194C380.04 624.194 380.995 623.026 380.995 620.691V605.96C380.995 603.624 380.04 602.457 378.129 602.457C376.218 602.457 375.262 603.624 375.262 605.96V620.691C375.262 623.026 376.218 624.194 378.129 624.194ZM418.022 629.21C413.723 629.21 410.431 627.989 408.149 625.548C405.866 623.106 404.725 619.655 404.725 615.196V585.895C404.725 581.436 405.866 577.985 408.149 575.544C410.431 573.102 413.723 571.881 418.022 571.881C422.322 571.881 425.613 573.102 427.896 575.544C430.178 577.985 431.32 581.436 431.32 585.895V615.196C431.32 619.655 430.178 623.106 427.896 625.548C425.613 627.989 422.322 629.21 418.022 629.21ZM418.022 621.248C421.048 621.248 422.561 619.417 422.561 615.754V585.337C422.561 581.675 421.048 579.843 418.022 579.843C414.997 579.843 413.484 581.675 413.484 585.337V615.754C413.484 619.417 414.997 621.248 418.022 621.248ZM437.243 572.677H460.413V580.64H446.001V596.166H457.308V604.129H446.001V628.414H437.243V572.677ZM464.614 572.677H487.784V580.64H473.372V596.166H484.679V604.129H473.372V628.414H464.614V572.677Z" fill="url(#paint3_linear_16_621)" fill-opacity="0.99"/>
<path d="M258.034 23.3849C268.52 23.3849 275.128 15.2927 275.128 5.85968V3.27399H256.981V9.4988H268.137C266.844 14.0956 263.349 17.0643 258.034 17.0643C251.235 17.0643 246.35 11.893 246.35 5.42873C246.35 -0.891837 251.282 -6.20686 257.795 -6.20686C262.343 -6.20686 265.695 -4.19577 267.898 -0.125709L273.644 -3.57329C270.675 -8.84043 264.977 -12.5274 257.747 -12.5274C247.404 -12.5274 239.886 -4.53095 239.886 5.42873C239.886 15.149 247.117 23.3849 258.034 23.3849ZM292.416 23.4807C298.736 23.4807 303.046 20.464 305.488 15.9151L300.173 12.8506C298.832 15.8673 296.055 17.7826 292.416 17.7826C287.819 17.7826 284.707 15.149 283.797 11.1747H306.589V8.73267C306.589 0.44889 300.508 -5.68015 292.176 -5.68015C283.988 -5.68015 277.62 0.784071 277.62 8.97208C277.62 17.0643 283.605 23.4807 292.416 23.4807ZM292.176 0.0179414C296.199 0.0179414 299.072 1.98115 300.029 5.76391H284.132C285.281 2.31633 288.298 0.0179414 292.176 0.0179414ZM307.264 0.688305H312.052V11.2226C312.052 20.1288 314.686 22.9061 323.353 22.9061H324.263V16.8249C319.283 16.8249 318.565 16.0588 318.565 11.1747V0.688305H324.263V-5.10555H318.565V-13.8203L312.052 -9.36715V-5.10555H307.264V0.688305ZM352.012 23.4807C355.699 23.4807 359.051 21.9005 361.11 19.267V22.9061H367.574V-5.10555H361.11V-1.75373C359.051 -4.19577 355.795 -5.68015 352.108 -5.68015C345.021 -5.68015 338.222 -0.365124 338.222 8.9242C338.222 18.1178 345.261 23.4807 352.012 23.4807ZM353.066 17.5432C348.278 17.5432 344.591 13.7125 344.591 8.82843C344.591 3.99224 348.278 0.209473 353.066 0.209473C357.902 0.209473 361.445 4.04012 361.445 8.82843C361.445 13.6646 357.902 17.5432 353.066 17.5432ZM371.257 22.9061H377.769V-12.5274H371.257V22.9061ZM381.731 22.9061H388.243V-12.5274H381.731V22.9061ZM417.307 23.4807C425.352 23.4807 431.816 16.9686 431.816 8.9242C431.816 0.736187 425.352 -5.68015 417.307 -5.68015C409.215 -5.68015 402.799 0.736187 402.799 8.9242C402.799 16.9686 409.215 23.4807 417.307 23.4807ZM417.307 17.3995C412.663 17.3995 409.167 13.5689 409.167 8.9242C409.167 4.18377 412.663 0.401006 417.307 0.401006C421.904 0.401006 425.447 4.18377 425.447 8.9242C425.447 13.5689 421.904 17.3995 417.307 17.3995ZM432.676 0.688305H437.416V22.9061H443.976V0.688305H449.722V-5.10555H443.976C443.976 -9.17562 444.551 -10.3727 449.722 -10.3727V-16.3581H449.147C440.624 -16.3581 437.416 -13.1978 437.416 -5.15343V-5.10555H432.676V0.688305ZM468.193 35.8345H474.753L491.464 -5.10555H484.664L477.29 13.7604L469.485 -5.10555H462.59L474.082 21.5175L468.193 35.8345ZM504.984 23.4807C513.028 23.4807 519.493 16.9686 519.493 8.9242C519.493 0.736187 513.028 -5.68015 504.984 -5.68015C496.892 -5.68015 490.475 0.736187 490.475 8.9242C490.475 16.9686 496.892 23.4807 504.984 23.4807ZM504.984 17.3995C500.339 17.3995 496.844 13.5689 496.844 8.9242C496.844 4.18377 500.339 0.401006 504.984 0.401006C509.581 0.401006 513.124 4.18377 513.124 8.9242C513.124 13.5689 509.581 17.3995 504.984 17.3995ZM547.575 -5.10555H541.111V10.2649C541.111 15.1969 538.477 17.8783 534.886 17.8783C530.816 17.8783 528.901 15.1969 528.901 10.8395V-5.10555H522.341V11.5099C522.341 19.1233 526.411 23.4807 533.115 23.4807C536.706 23.4807 539.387 22.0442 541.159 19.6979V22.9061H547.575V-5.10555ZM551.566 22.9061H558.031V7.96654C558.031 3.13034 559.994 1.11925 563.777 1.11925C565.644 1.11925 566.697 1.59808 567.655 2.22056L570.097 -3.90847C568.804 -4.62672 567.224 -5.10555 565.165 -5.10555C561.67 -5.10555 559.276 -3.71694 557.983 -0.939721V-5.10555H551.566V22.9061ZM155.992 48.6883H160.732V70.9061H167.292V48.6883H173.038V42.8944H167.292C167.292 38.8244 167.867 37.6273 173.038 37.6273V31.6419H172.463C163.94 31.6419 160.732 34.8022 160.732 42.8466V42.8944H155.992V48.6883ZM187.18 71.4807C190.867 71.4807 194.219 69.9005 196.278 67.267V70.9061H202.742V42.8944H196.278V46.2463C194.219 43.8042 190.963 42.3199 187.276 42.3199C180.189 42.3199 173.39 47.6349 173.39 56.9242C173.39 66.1178 180.429 71.4807 187.18 71.4807ZM188.234 65.5432C183.446 65.5432 179.759 61.7125 179.759 56.8284C179.759 51.9922 183.446 48.2095 188.234 48.2095C193.07 48.2095 196.613 52.0401 196.613 56.8284C196.613 61.6646 193.07 65.5432 188.234 65.5432ZM215.666 70.9061H222.178L232.712 42.8944H226.057L218.97 62.6223L211.74 42.8944H204.988L215.666 70.9061ZM246.537 71.4807C254.581 71.4807 261.045 64.9686 261.045 56.9242C261.045 48.7362 254.581 42.3199 246.537 42.3199C238.445 42.3199 232.028 48.7362 232.028 56.9242C232.028 64.9686 238.445 71.4807 246.537 71.4807ZM246.537 65.3995C241.892 65.3995 238.397 61.5689 238.397 56.9242C238.397 52.1838 241.892 48.401 246.537 48.401C251.134 48.401 254.677 52.1838 254.677 56.9242C254.677 61.5689 251.134 65.3995 246.537 65.3995ZM289.128 42.8944H282.664V58.2649C282.664 63.1969 280.03 65.8783 276.439 65.8783C272.369 65.8783 270.454 63.1969 270.454 58.8395V42.8944H263.894V59.5099C263.894 67.1233 267.964 71.4807 274.667 71.4807C278.259 71.4807 280.94 70.0442 282.712 67.6979V70.9061H289.128V42.8944ZM293.119 70.9061H299.583V55.9665C299.583 51.1303 301.547 49.1193 305.329 49.1193C307.197 49.1193 308.25 49.5981 309.208 50.2206L311.65 44.0915C310.357 43.3733 308.777 42.8944 306.718 42.8944C303.223 42.8944 300.828 44.2831 299.536 47.0603V42.8944H293.119V70.9061ZM313.741 70.9061H320.253V42.8944H313.741V70.9061ZM312.927 36.0472C312.927 38.4892 314.363 40.0693 316.997 40.0693C319.535 40.0693 321.067 38.4892 321.067 36.0472C321.067 33.6051 319.535 31.9771 316.997 31.9771C314.507 31.9771 312.927 33.6051 312.927 36.0472ZM322.976 48.6883H327.764V59.2226C327.764 68.1288 330.398 70.9061 339.064 70.9061H339.974V64.8249C334.994 64.8249 334.276 64.0588 334.276 59.1747V48.6883H339.974V42.8944H334.276V34.1797L327.764 38.6329V42.8944H322.976V48.6883ZM356.057 71.4807C362.378 71.4807 366.687 68.464 369.129 63.9151L363.814 60.8506C362.474 63.8673 359.697 65.7826 356.057 65.7826C351.461 65.7826 348.348 63.149 347.438 59.1747H370.231V56.7327C370.231 48.4489 364.15 42.3199 355.818 42.3199C347.63 42.3199 341.262 48.7841 341.262 56.9721C341.262 65.0643 347.247 71.4807 356.057 71.4807ZM355.818 48.0179C359.84 48.0179 362.713 49.9811 363.671 53.7639H347.774C348.923 50.3163 351.939 48.0179 355.818 48.0179ZM398.511 71.4807C405.023 71.4807 409.763 67.8415 411.966 62.6702L406.172 60.1803C404.879 63.2448 402.246 65.3995 398.606 65.3995C393.818 65.3995 390.275 61.5689 390.275 56.9242C390.275 52.1838 393.818 48.401 398.559 48.401C402.006 48.401 404.783 50.3642 406.076 53.4287L411.87 50.9867C409.715 45.9111 404.783 42.3199 398.511 42.3199C390.323 42.3199 383.954 48.7362 383.954 56.9242C383.954 64.9686 390.323 71.4807 398.511 71.4807ZM427.782 71.4807C435.826 71.4807 442.29 64.9686 442.29 56.9242C442.29 48.7362 435.826 42.3199 427.782 42.3199C419.69 42.3199 413.273 48.7362 413.273 56.9242C413.273 64.9686 419.69 71.4807 427.782 71.4807ZM427.782 65.3995C423.137 65.3995 419.642 61.5689 419.642 56.9242C419.642 52.1838 423.137 48.401 427.782 48.401C432.379 48.401 435.922 52.1838 435.922 56.9242C435.922 61.5689 432.379 65.3995 427.782 65.3995ZM470.373 42.8944H463.909V58.2649C463.909 63.1969 461.275 65.8783 457.684 65.8783C453.614 65.8783 451.699 63.1969 451.699 58.8395V42.8944H445.139V59.5099C445.139 67.1233 449.209 71.4807 455.912 71.4807C459.504 71.4807 462.185 70.0442 463.957 67.6979V70.9061H470.373V42.8944ZM474.364 70.9061H480.828V55.9665C480.828 51.1303 482.792 49.1193 486.574 49.1193C488.442 49.1193 489.495 49.5981 490.453 50.2206L492.895 44.0915C491.602 43.3733 490.022 42.8944 487.963 42.8944C484.468 42.8944 482.073 44.2831 480.781 47.0603V42.8944H474.364V70.9061ZM505.286 71.4807C513.283 71.4807 516.778 66.2614 516.778 62.335C516.778 56.4454 511.511 54.8173 506.914 53.9076C502.7 52.9978 500.498 52.519 500.498 50.6515C500.498 49.0714 501.934 47.6349 504.999 47.6349C507.68 47.6349 509.787 48.8798 510.936 50.843L516.443 48.0658C514.288 44.4746 510.697 42.272 504.999 42.272C498.343 42.272 493.986 46.342 493.986 50.843C493.986 56.7327 499.013 58.2649 503.802 59.2705C507.249 60.0366 510.362 60.4197 510.362 62.4786C510.362 64.3461 508.782 65.8783 505.573 65.8783C502.509 65.8783 500.163 64.4418 498.822 61.8083L492.837 64.6813C495.087 69.0865 499.013 71.4807 505.286 71.4807ZM533.421 71.4807C539.742 71.4807 544.051 68.464 546.493 63.9151L541.178 60.8506C539.838 63.8673 537.06 65.7826 533.421 65.7826C528.824 65.7826 525.712 63.149 524.802 59.1747H547.595V56.7327C547.595 48.4489 541.514 42.3199 533.182 42.3199C524.994 42.3199 518.625 48.7841 518.625 56.9721C518.625 65.0643 524.611 71.4807 533.421 71.4807ZM533.182 48.0179C537.204 48.0179 540.077 49.9811 541.035 53.7639H525.137C526.287 50.3163 529.303 48.0179 533.182 48.0179ZM561.025 71.4807C569.022 71.4807 572.517 66.2614 572.517 62.335C572.517 56.4454 567.25 54.8173 562.653 53.9076C558.439 52.9978 556.237 52.519 556.237 50.6515C556.237 49.0714 557.673 47.6349 560.738 47.6349C563.419 47.6349 565.526 48.8798 566.675 50.843L572.182 48.0658C570.027 44.4746 566.436 42.272 560.738 42.272C554.082 42.272 549.725 46.342 549.725 50.843C549.725 56.7327 554.752 58.2649 559.541 59.2705C562.988 60.0366 566.101 60.4197 566.101 62.4786C566.101 64.3461 564.521 65.8783 561.312 65.8783C558.248 65.8783 555.902 64.4418 554.561 61.8083L548.576 64.6813C550.826 69.0865 554.752 71.4807 561.025 71.4807ZM585.958 48.6883H590.698V70.9061H597.258V48.6883H603.004V42.8944H597.258C597.258 38.8244 597.833 37.6273 603.004 37.6273V31.6419H602.429C593.906 31.6419 590.698 34.8022 590.698 42.8466V42.8944H585.958V48.6883ZM617.865 71.4807C625.909 71.4807 632.373 64.9686 632.373 56.9242C632.373 48.7362 625.909 42.3199 617.865 42.3199C609.772 42.3199 603.356 48.7362 603.356 56.9242C603.356 64.9686 609.772 71.4807 617.865 71.4807ZM617.865 65.3995C613.22 65.3995 609.724 61.5689 609.724 56.9242C609.724 52.1838 613.22 48.401 617.865 48.401C622.461 48.401 626.005 52.1838 626.005 56.9242C626.005 61.5689 622.461 65.3995 617.865 65.3995ZM635.222 70.9061H641.686V55.9665C641.686 51.1303 643.649 49.1193 647.432 49.1193C649.299 49.1193 650.353 49.5981 651.31 50.2206L653.752 44.0915C652.459 43.3733 650.879 42.8944 648.82 42.8944C645.325 42.8944 642.931 44.2831 641.638 47.0603V42.8944H635.222V70.9061Z" fill="white"/>
<path d="M61.8369 46.5972C58.6519 46.5972 56.2234 45.7014 54.5513 43.9099C52.8792 42.0785 52.0431 39.4708 52.0431 36.0868V14.1105C52.0431 10.7265 52.8792 8.13868 54.5513 6.34713C56.2234 4.51578 58.6519 3.6001 61.8369 3.6001C65.0219 3.6001 67.4504 4.51578 69.1225 6.34713C70.7946 8.13868 71.6307 10.7265 71.6307 14.1105V17.6936H65.42V13.6925C65.42 10.9454 64.2853 9.57192 62.0161 9.57192C59.7468 9.57192 58.6121 10.9454 58.6121 13.6925V36.5645C58.6121 39.2718 59.7468 40.6254 62.0161 40.6254C64.2853 40.6254 65.42 39.2718 65.42 36.5645V28.3831H62.1355V22.4113H71.6307V36.0868C71.6307 39.4708 70.7946 42.0785 69.1225 43.9099C67.4504 45.7014 65.0219 46.5972 61.8369 46.5972ZM75.8483 4.19728H93.7637V10.1691H82.4173V21.217H91.4347V27.1888H82.4173V40.0282H93.7637V46H75.8483V4.19728ZM102.679 10.1691H95.8109V4.19728H116.115V10.1691H109.248V46H102.679V10.1691ZM133.936 4.19728H142.834L149.642 46H143.073L141.878 37.6992V37.8186H134.414L133.219 46H127.128L133.936 4.19728ZM141.102 32.1454L138.176 11.4829H138.056L135.19 32.1454H141.102ZM152.829 4.19728H159.398V40.0282H170.207V46H152.829V4.19728ZM173.357 4.19728H179.926V40.0282H190.735V46H173.357V4.19728ZM209.481 28.204L201.538 4.19728H208.525L213.004 19.5448H213.124L217.602 4.19728H223.992L216.05 28.204V46H209.481V28.204ZM235.397 46.5972C232.172 46.5972 229.704 45.6815 227.992 43.8501C226.28 42.0188 225.424 39.431 225.424 36.0868V14.1105C225.424 10.7663 226.28 8.17849 227.992 6.34713C229.704 4.51578 232.172 3.6001 235.397 3.6001C238.622 3.6001 241.09 4.51578 242.802 6.34713C244.514 8.17849 245.37 10.7663 245.37 14.1105V36.0868C245.37 39.431 244.514 42.0188 242.802 43.8501C241.09 45.6815 238.622 46.5972 235.397 46.5972ZM235.397 40.6254C237.666 40.6254 238.801 39.2518 238.801 36.5048V13.6925C238.801 10.9454 237.666 9.57192 235.397 9.57192C233.128 9.57192 231.993 10.9454 231.993 13.6925V36.5048C231.993 39.2518 233.128 40.6254 235.397 40.6254ZM259.367 46.5972C256.182 46.5972 253.754 45.7014 252.082 43.9099C250.41 42.0785 249.574 39.4708 249.574 36.0868V4.19728H256.143V36.5645C256.143 37.9978 256.421 39.0329 256.979 39.6699C257.576 40.3069 258.412 40.6254 259.487 40.6254C260.562 40.6254 261.378 40.3069 261.935 39.6699C262.532 39.0329 262.831 37.9978 262.831 36.5645V4.19728H269.161V36.0868C269.161 39.4708 268.325 42.0785 266.653 43.9099C264.981 45.7014 262.552 46.5972 259.367 46.5972ZM273.84 4.19728H283.574C286.958 4.19728 289.426 4.99352 290.979 6.58601C292.531 8.13868 293.308 10.5473 293.308 13.8119V16.3798C293.308 20.7193 291.875 23.4663 289.008 24.6209V24.7403C290.601 25.2181 291.715 26.1935 292.352 27.6665C293.029 29.1396 293.368 31.1103 293.368 33.5786V40.924C293.368 42.1183 293.407 43.0937 293.487 43.8501C293.567 44.5668 293.766 45.2834 294.084 46H287.396C287.157 45.3232 286.998 44.6862 286.918 44.089C286.838 43.4918 286.799 42.4169 286.799 40.8642V33.2203C286.799 31.3093 286.48 29.9756 285.843 29.2192C285.246 28.4628 284.191 28.0845 282.678 28.0845H280.409V46H273.84V4.19728ZM282.797 22.1127C284.111 22.1127 285.087 21.7743 285.724 21.0975C286.4 20.4207 286.739 19.2861 286.739 17.6936V14.4688C286.739 12.9559 286.46 11.8611 285.903 11.1843C285.385 10.5075 284.549 10.1691 283.395 10.1691H280.409V22.1127H282.797ZM307.489 4.19728H324.867V10.1691H314.058V21.8141H322.538V27.786H314.058V46H307.489V4.19728ZM331.169 4.19728H340.067L346.875 46H340.306L339.112 37.6992V37.8186H331.647L330.452 46H324.361L331.169 4.19728ZM338.335 32.1454L335.409 11.4829H335.29L332.423 32.1454H338.335ZM346.639 4.19728H353.268L357.567 36.6242H357.687L361.986 4.19728H368.018L361.688 46H352.969L346.639 4.19728ZM380.552 46.5972C377.327 46.5972 374.859 45.6815 373.147 43.8501C371.435 42.0188 370.579 39.431 370.579 36.0868V14.1105C370.579 10.7663 371.435 8.17849 373.147 6.34713C374.859 4.51578 377.327 3.6001 380.552 3.6001C383.777 3.6001 386.245 4.51578 387.957 6.34713C389.669 8.17849 390.525 10.7663 390.525 14.1105V36.0868C390.525 39.431 389.669 42.0188 387.957 43.8501C386.245 45.6815 383.777 46.5972 380.552 46.5972ZM380.552 40.6254C382.821 40.6254 383.956 39.2518 383.956 36.5048V13.6925C383.956 10.9454 382.821 9.57192 380.552 9.57192C378.283 9.57192 377.148 10.9454 377.148 13.6925V36.5048C377.148 39.2518 378.283 40.6254 380.552 40.6254ZM404.522 46.5972C401.337 46.5972 398.909 45.7014 397.237 43.9099C395.564 42.0785 394.728 39.4708 394.728 36.0868V4.19728H401.297V36.5645C401.297 37.9978 401.576 39.0329 402.133 39.6699C402.731 40.3069 403.567 40.6254 404.642 40.6254C405.717 40.6254 406.533 40.3069 407.09 39.6699C407.687 39.0329 407.986 37.9978 407.986 36.5645V4.19728H414.316V36.0868C414.316 39.4708 413.48 42.0785 411.808 43.9099C410.136 45.7014 407.707 46.5972 404.522 46.5972ZM418.994 4.19728H428.729C432.113 4.19728 434.581 4.99352 436.134 6.58601C437.686 8.13868 438.463 10.5473 438.463 13.8119V16.3798C438.463 20.7193 437.029 23.4663 434.163 24.6209V24.7403C435.755 25.2181 436.87 26.1935 437.507 27.6665C438.184 29.1396 438.522 31.1103 438.522 33.5786V40.924C438.522 42.1183 438.562 43.0937 438.642 43.8501C438.721 44.5668 438.92 45.2834 439.239 46H432.551C432.312 45.3232 432.152 44.6862 432.073 44.089C431.993 43.4918 431.953 42.4169 431.953 40.8642V33.2203C431.953 31.3093 431.635 29.9756 430.998 29.2192C430.401 28.4628 429.346 28.0845 427.833 28.0845H425.563V46H418.994V4.19728ZM427.952 22.1127C429.266 22.1127 430.241 21.7743 430.878 21.0975C431.555 20.4207 431.894 19.2861 431.894 17.6936V14.4688C431.894 12.9559 431.615 11.8611 431.058 11.1843C430.54 10.5075 429.704 10.1691 428.549 10.1691H425.563V22.1127H427.952ZM443.08 4.19728H449.649V46H443.08V4.19728ZM459.705 10.1691H452.837V4.19728H473.141V10.1691H466.274V46H459.705V10.1691ZM476.322 4.19728H494.237V10.1691H482.891V21.217H491.908V27.1888H482.891V40.0282H494.237V46H476.322V4.19728ZM516.837 46.5972C513.691 46.5972 511.283 45.7014 509.611 43.9099C507.978 42.1183 507.162 39.5902 507.162 36.3257V13.8716C507.162 10.607 507.978 8.07896 509.611 6.28742C511.283 4.49587 513.691 3.6001 516.837 3.6001C519.982 3.6001 522.371 4.49587 524.003 6.28742C525.675 8.07896 526.511 10.607 526.511 13.8716V18.2908H520.3V13.4536C520.3 10.8658 519.205 9.57192 517.016 9.57192C514.826 9.57192 513.731 10.8658 513.731 13.4536V36.8034C513.731 39.3514 514.826 40.6254 517.016 40.6254C519.205 40.6254 520.3 39.3514 520.3 36.8034V30.4136H526.511V36.3257C526.511 39.5902 525.675 42.1183 524.003 43.9099C522.371 45.7014 519.982 46.5972 516.837 46.5972ZM540.053 46.5972C536.828 46.5972 534.36 45.6815 532.648 43.8501C530.936 42.0188 530.08 39.431 530.08 36.0868V14.1105C530.08 10.7663 530.936 8.17849 532.648 6.34713C534.36 4.51578 536.828 3.6001 540.053 3.6001C543.278 3.6001 545.746 4.51578 547.458 6.34713C549.17 8.17849 550.026 10.7663 550.026 14.1105V36.0868C550.026 39.431 549.17 42.0188 547.458 43.8501C545.746 45.6815 543.278 46.5972 540.053 46.5972ZM540.053 40.6254C542.322 40.6254 543.457 39.2518 543.457 36.5048V13.6925C543.457 10.9454 542.322 9.57192 540.053 9.57192C537.784 9.57192 536.649 10.9454 536.649 13.6925V36.5048C536.649 39.2518 537.784 40.6254 540.053 40.6254ZM564.023 46.5972C560.838 46.5972 558.41 45.7014 556.738 43.9099C555.066 42.0785 554.23 39.4708 554.23 36.0868V4.19728H560.799V36.5645C560.799 37.9978 561.077 39.0329 561.635 39.6699C562.232 40.3069 563.068 40.6254 564.143 40.6254C565.218 40.6254 566.034 40.3069 566.591 39.6699C567.188 39.0329 567.487 37.9978 567.487 36.5645V4.19728H573.817V36.0868C573.817 39.4708 572.981 42.0785 571.309 43.9099C569.637 45.7014 567.208 46.5972 564.023 46.5972ZM578.496 4.19728H588.23C591.614 4.19728 594.082 4.99352 595.635 6.58601C597.187 8.13868 597.964 10.5473 597.964 13.8119V16.3798C597.964 20.7193 596.531 23.4663 593.664 24.6209V24.7403C595.257 25.2181 596.371 26.1935 597.008 27.6665C597.685 29.1396 598.024 31.1103 598.024 33.5786V40.924C598.024 42.1183 598.063 43.0937 598.143 43.8501C598.223 44.5668 598.422 45.2834 598.74 46H592.052C591.813 45.3232 591.654 44.6862 591.574 44.089C591.494 43.4918 591.455 42.4169 591.455 40.8642V33.2203C591.455 31.3093 591.136 29.9756 590.499 29.2192C589.902 28.4628 588.847 28.0845 587.334 28.0845H585.065V46H578.496V4.19728ZM587.453 22.1127C588.767 22.1127 589.743 21.7743 590.38 21.0975C591.056 20.4207 591.395 19.2861 591.395 17.6936V14.4688C591.395 12.9559 591.116 11.8611 590.559 11.1843C590.041 10.5075 589.205 10.1691 588.051 10.1691H585.065V22.1127H587.453ZM611.121 46.5972C607.936 46.5972 605.527 45.7014 603.895 43.9099C602.263 42.0785 601.447 39.4708 601.447 36.0868V33.6981H607.657V36.5645C607.657 39.2718 608.792 40.6254 611.061 40.6254C612.176 40.6254 613.012 40.3069 613.569 39.6699C614.167 38.9931 614.465 37.9181 614.465 36.4451C614.465 34.6934 614.067 33.1606 613.271 31.8468C612.475 30.4932 611.002 28.8808 608.852 27.0096C606.144 24.6209 604.253 22.471 603.178 20.5601C602.104 18.6093 601.566 16.4196 601.566 13.9911C601.566 10.6867 602.402 8.13868 604.074 6.34713C605.746 4.51578 608.175 3.6001 611.36 3.6001C614.505 3.6001 616.874 4.51578 618.466 6.34713C620.099 8.13868 620.915 10.7265 620.915 14.1105V15.8423H614.704V13.6925C614.704 12.2592 614.425 11.2241 613.868 10.5871C613.311 9.91032 612.494 9.57192 611.42 9.57192C609.23 9.57192 608.135 10.9056 608.135 13.573C608.135 15.0859 608.533 16.4992 609.329 17.813C610.165 19.1268 611.658 20.7193 613.808 22.5905C616.555 24.9792 618.446 27.149 619.481 29.0998C620.517 31.0506 621.034 33.3397 621.034 35.9673C621.034 39.3912 620.178 42.0188 618.466 43.8501C616.794 45.6815 614.346 46.5972 611.121 46.5972ZM624.801 4.19728H642.716V10.1691H631.37V21.217H640.387V27.1888H631.37V40.0282H642.716V46H624.801V4.19728ZM655.151 46.5972C651.966 46.5972 649.558 45.7014 647.925 43.9099C646.293 42.0785 645.477 39.4708 645.477 36.0868V33.6981H651.688V36.5645C651.688 39.2718 652.822 40.6254 655.092 40.6254C656.206 40.6254 657.042 40.3069 657.6 39.6699C658.197 38.9931 658.496 37.9181 658.496 36.4451C658.496 34.6934 658.097 33.1606 657.301 31.8468C656.505 30.4932 655.032 28.8808 652.882 27.0096C650.175 24.6209 648.284 22.471 647.209 20.5601C646.134 18.6093 645.596 16.4196 645.596 13.9911C645.596 10.6867 646.432 8.13868 648.105 6.34713C649.777 4.51578 652.205 3.6001 655.39 3.6001C658.535 3.6001 660.904 4.51578 662.497 6.34713C664.129 8.13868 664.945 10.7265 664.945 14.1105V15.8423H658.734V13.6925C658.734 12.2592 658.456 11.2241 657.898 10.5871C657.341 9.91032 656.525 9.57192 655.45 9.57192C653.26 9.57192 652.165 10.9056 652.165 13.573C652.165 15.0859 652.564 16.4992 653.36 17.813C654.196 19.1268 655.689 20.7193 657.839 22.5905C660.586 24.9792 662.477 27.149 663.512 29.0998C664.547 31.0506 665.065 33.3397 665.065 35.9673C665.065 39.3912 664.209 42.0188 662.497 43.8501C660.825 45.6815 658.376 46.5972 655.151 46.5972ZM683.471 4.19728H692.369L699.177 46H692.608L691.414 37.6992V37.8186H683.949L682.755 46H676.663L683.471 4.19728ZM690.637 32.1454L687.711 11.4829H687.592L684.725 32.1454H690.637ZM704.759 10.1691H697.891V4.19728H718.196V10.1691H711.328V46H704.759V10.1691Z" fill="#2C4155"/>
<path d="M93.4297 169.145V151.943H112.049C117.85 151.943 122.1 150.931 124.798 148.907C127.632 146.884 129.048 143.443 129.048 138.586H93.4297V121.384H129.048C129.048 116.527 127.632 113.086 124.798 111.063C122.1 109.039 117.85 108.027 112.049 108.027H93.4297V90.8247H163.048V108.027H146.048C148.612 111.805 150.298 116.257 151.108 121.384H163.048V138.586H151.108C150.568 144.792 148.679 150.256 145.441 154.979C142.338 159.566 138.493 163.074 133.905 165.502C129.318 167.931 124.731 169.145 120.144 169.145L164.262 232.49H137.346L93.4297 169.145ZM208.662 234.513C197.734 234.513 189.436 231.478 183.769 225.406C178.238 219.335 175.472 210.633 175.472 199.299V187.764H196.519V200.311C196.519 209.621 200.365 214.275 208.055 214.275C211.833 214.275 214.666 213.129 216.555 210.835C218.579 208.406 219.59 204.224 219.59 198.288V186.752C219.59 180.276 218.444 175.689 216.15 172.99C213.856 170.157 210.146 168.74 205.019 168.74H197.531V148.503H205.626C210.079 148.503 213.384 147.356 215.543 145.062C217.836 142.768 218.983 138.923 218.983 133.527V123.205C218.983 118.348 217.971 114.773 215.948 112.479C213.924 110.186 211.225 109.039 207.853 109.039C200.702 109.039 197.126 113.424 197.126 122.193V131.503H176.079V124.015C176.079 112.682 178.845 103.979 184.377 97.908C190.043 91.8366 198.138 88.8009 208.662 88.8009C219.321 88.8009 227.416 91.8366 232.947 97.908C238.479 103.844 241.245 112.479 241.245 123.812V128.872C241.245 136.562 239.963 142.768 237.4 147.491C234.836 152.078 230.856 155.383 225.459 157.407V157.812C231.261 159.971 235.443 163.479 238.007 168.336C240.57 173.193 241.852 179.399 241.852 186.954V199.502C241.852 210.835 239.019 219.537 233.352 225.609C227.82 231.545 219.59 234.513 208.662 234.513ZM290.907 234.513C279.978 234.513 271.613 231.41 265.812 225.204C260.01 218.998 257.109 210.228 257.109 198.895V125.634C257.109 101.079 268.443 88.8009 291.109 88.8009C301.903 88.8009 310.133 91.9041 315.799 98.1103C321.466 104.182 324.299 112.951 324.299 124.42V127.05H303.252V123.003C303.252 113.693 299.407 109.039 291.716 109.039C287.534 109.039 284.431 110.321 282.407 112.884C280.383 115.447 279.371 119.967 279.371 126.443V153.562H279.776C283.688 145.332 290.434 141.217 300.014 141.217C308.109 141.217 314.248 143.983 318.43 149.514C322.613 155.046 324.704 163.074 324.704 173.597V198.895C324.704 210.228 321.803 218.998 316.002 225.204C310.2 231.41 301.835 234.513 290.907 234.513ZM290.907 214.275C298.597 214.275 302.442 209.688 302.442 200.514V175.419C302.442 166.109 298.597 161.455 290.907 161.455C283.216 161.455 279.371 166.109 279.371 175.419V200.514C279.371 209.688 283.216 214.275 290.907 214.275ZM371.33 234.513C360.401 234.513 352.036 231.41 346.235 225.204C340.433 218.998 337.533 210.228 337.533 198.895V124.42C337.533 113.086 340.433 104.317 346.235 98.1103C352.036 91.9041 360.401 88.8009 371.33 88.8009C382.258 88.8009 390.623 91.9041 396.425 98.1103C402.226 104.317 405.127 113.086 405.127 124.42V198.895C405.127 210.228 402.226 218.998 396.425 225.204C390.623 231.41 382.258 234.513 371.33 234.513ZM371.33 214.275C379.02 214.275 382.865 209.621 382.865 200.311V123.003C382.865 113.693 379.02 109.039 371.33 109.039C363.639 109.039 359.794 113.693 359.794 123.003V200.311C359.794 209.621 363.639 214.275 371.33 214.275Z" fill="url(#paint4_linear_16_621)"/>
<path d="M444.448 170.106V159.954H455.436C458.86 159.954 461.368 159.357 462.96 158.162C464.632 156.968 465.468 154.938 465.468 152.071H444.448V141.919H465.468C465.468 139.052 464.632 137.022 462.96 135.828C461.368 134.633 458.86 134.036 455.436 134.036H444.448V123.884H485.534V134.036H475.501C477.014 136.266 478.009 138.893 478.487 141.919H485.534V152.071H478.487C478.168 155.734 477.054 158.959 475.143 161.745C473.311 164.453 471.042 166.523 468.335 167.956C465.628 169.389 462.92 170.106 460.213 170.106L486.25 207.49H470.365L444.448 170.106ZM512.454 208.684C506.004 208.684 501.107 206.892 497.763 203.309C494.498 199.726 492.866 194.59 492.866 187.902V181.094H505.287V188.499C505.287 193.993 507.557 196.74 512.095 196.74C514.325 196.74 515.997 196.063 517.112 194.71C518.306 193.277 518.903 190.808 518.903 187.305V180.497C518.903 176.675 518.226 173.968 516.873 172.375C515.519 170.703 513.329 169.867 510.304 169.867H505.885V157.923H510.662C513.29 157.923 515.24 157.247 516.514 155.893C517.868 154.539 518.545 152.27 518.545 149.085V142.994C518.545 140.127 517.948 138.017 516.753 136.664C515.559 135.31 513.966 134.633 511.976 134.633C507.756 134.633 505.646 137.221 505.646 142.397V147.891H493.224V143.472C493.224 136.783 494.857 131.647 498.121 128.064C501.465 124.481 506.243 122.69 512.454 122.69C518.744 122.69 523.521 124.481 526.786 128.064C530.05 131.568 531.683 136.664 531.683 143.352V146.338C531.683 150.877 530.926 154.539 529.414 157.326C527.901 160.033 525.552 161.984 522.367 163.179V163.417C525.791 164.691 528.259 166.762 529.772 169.628C531.285 172.495 532.041 176.157 532.041 180.616V188.021C532.041 194.71 530.369 199.846 527.025 203.429C523.76 206.932 518.903 208.684 512.454 208.684ZM563.619 192.321H538.537V180.377L562.425 123.884H576.757V180.377H582.968V192.321H576.757V207.49H563.619V192.321ZM563.619 180.377V147.771H563.38L550.481 180.377H563.619ZM607.976 208.684C601.607 208.684 596.749 206.892 593.405 203.309C590.061 199.647 588.389 194.431 588.389 187.663V186.11H600.81V188.499C600.81 193.993 603.08 196.74 607.618 196.74C610.087 196.74 611.918 195.984 613.112 194.471C614.307 192.958 614.904 190.291 614.904 186.469V170.464H614.665C612.356 175.321 608.375 177.75 602.721 177.75C597.944 177.75 594.321 176.118 591.853 172.853C589.384 169.588 588.15 164.851 588.15 158.64V143.71C588.15 137.022 589.862 131.846 593.286 128.184C596.71 124.521 601.646 122.69 608.096 122.69C614.545 122.69 619.482 124.521 622.906 128.184C626.33 131.846 628.042 137.022 628.042 143.71V186.946C628.042 201.438 621.353 208.684 607.976 208.684ZM608.096 165.806C612.634 165.806 614.904 163.059 614.904 157.565V142.755C614.904 137.341 612.634 134.633 608.096 134.633C603.557 134.633 601.288 137.341 601.288 142.755V157.565C601.288 163.059 603.557 165.806 608.096 165.806ZM655.798 208.684C649.428 208.684 644.571 206.892 641.226 203.309C637.882 199.647 636.21 194.431 636.21 187.663V186.11H648.631V188.499C648.631 193.993 650.901 196.74 655.439 196.74C657.908 196.74 659.739 195.984 660.933 194.471C662.128 192.958 662.725 190.291 662.725 186.469V170.464H662.486C660.177 175.321 656.196 177.75 650.542 177.75C645.765 177.75 642.142 176.118 639.674 172.853C637.205 169.588 635.971 164.851 635.971 158.64V143.71C635.971 137.022 637.683 131.846 641.107 128.184C644.531 124.521 649.468 122.69 655.917 122.69C662.367 122.69 667.303 124.521 670.727 128.184C674.151 131.846 675.863 137.022 675.863 143.71V186.946C675.863 201.438 669.175 208.684 655.798 208.684ZM655.917 165.806C660.456 165.806 662.725 163.059 662.725 157.565V142.755C662.725 137.341 660.456 134.633 655.917 134.633C651.379 134.633 649.109 137.341 649.109 142.755V157.565C649.109 163.059 651.379 165.806 655.917 165.806Z" fill="url(#paint5_linear_16_621)"/>
<line x1="442.315" y1="167.867" x2="678.7" y2="167.867" stroke="url(#paint6_linear_16_621)" stroke-width="8.29419" stroke-linecap="round"/>
<path d="M93.4297 169.145V151.943H112.049C117.85 151.943 122.1 150.931 124.798 148.907C127.632 146.884 129.048 143.443 129.048 138.586H93.4297V121.384H129.048C129.048 116.527 127.632 113.086 124.798 111.063C122.1 109.039 117.85 108.027 112.049 108.027H93.4297V90.8247H163.048V108.027H146.048C148.612 111.805 150.298 116.257 151.108 121.384H163.048V138.586H151.108C150.568 144.792 148.679 150.256 145.441 154.979C142.338 159.566 138.493 163.074 133.905 165.502C129.318 167.931 124.731 169.145 120.144 169.145L164.262 232.49H137.346L93.4297 169.145ZM208.662 234.513C197.734 234.513 189.436 231.478 183.769 225.406C178.238 219.335 175.472 210.633 175.472 199.299V187.764H196.519V200.311C196.519 209.621 200.365 214.275 208.055 214.275C211.833 214.275 214.666 213.129 216.555 210.835C218.579 208.406 219.59 204.224 219.59 198.288V186.752C219.59 180.276 218.444 175.689 216.15 172.99C213.856 170.157 210.146 168.74 205.019 168.74H197.531V148.503H205.626C210.079 148.503 213.384 147.356 215.543 145.062C217.836 142.768 218.983 138.923 218.983 133.527V123.205C218.983 118.348 217.971 114.773 215.948 112.479C213.924 110.186 211.225 109.039 207.853 109.039C200.702 109.039 197.126 113.424 197.126 122.193V131.503H176.079V124.015C176.079 112.682 178.845 103.979 184.377 97.908C190.043 91.8366 198.138 88.8009 208.662 88.8009C219.321 88.8009 227.416 91.8366 232.947 97.908C238.479 103.844 241.245 112.479 241.245 123.812V128.872C241.245 136.562 239.963 142.768 237.4 147.491C234.836 152.078 230.856 155.383 225.459 157.407V157.812C231.261 159.971 235.443 163.479 238.007 168.336C240.57 173.193 241.852 179.399 241.852 186.954V199.502C241.852 210.835 239.019 219.537 233.352 225.609C227.82 231.545 219.59 234.513 208.662 234.513ZM290.907 234.513C279.978 234.513 271.613 231.41 265.812 225.204C260.01 218.998 257.109 210.228 257.109 198.895V125.634C257.109 101.079 268.443 88.8009 291.109 88.8009C301.903 88.8009 310.133 91.9041 315.799 98.1103C321.466 104.182 324.299 112.951 324.299 124.42V127.05H303.252V123.003C303.252 113.693 299.407 109.039 291.716 109.039C287.534 109.039 284.431 110.321 282.407 112.884C280.383 115.447 279.371 119.967 279.371 126.443V153.562H279.776C283.688 145.332 290.434 141.217 300.014 141.217C308.109 141.217 314.248 143.983 318.43 149.514C322.613 155.046 324.704 163.074 324.704 173.597V198.895C324.704 210.228 321.803 218.998 316.002 225.204C310.2 231.41 301.835 234.513 290.907 234.513ZM290.907 214.275C298.597 214.275 302.442 209.688 302.442 200.514V175.419C302.442 166.109 298.597 161.455 290.907 161.455C283.216 161.455 279.371 166.109 279.371 175.419V200.514C279.371 209.688 283.216 214.275 290.907 214.275ZM371.33 234.513C360.401 234.513 352.036 231.41 346.235 225.204C340.433 218.998 337.533 210.228 337.533 198.895V124.42C337.533 113.086 340.433 104.317 346.235 98.1103C352.036 91.9041 360.401 88.8009 371.33 88.8009C382.258 88.8009 390.623 91.9041 396.425 98.1103C402.226 104.317 405.127 113.086 405.127 124.42V198.895C405.127 210.228 402.226 218.998 396.425 225.204C390.623 231.41 382.258 234.513 371.33 234.513ZM371.33 214.275C379.02 214.275 382.865 209.621 382.865 200.311V123.003C382.865 113.693 379.02 109.039 371.33 109.039C363.639 109.039 359.794 113.693 359.794 123.003V200.311C359.794 209.621 363.639 214.275 371.33 214.275Z" fill="url(#paint7_linear_16_621)"/>
<rect x="75" y="336.206" width="618.747" height="264.585" rx="41.471" fill="white"/>
<rect x="72.9265" y="334.133" width="622.894" height="268.732" rx="43.5445" stroke="url(#paint8_linear_16_621)" stroke-opacity="0.99" stroke-width="4.1471"/>
<rect x="255.813" y="294.735" width="257.12" height="82.9419" fill="white"/>
<rect x="255.813" y="531.949" width="257.12" height="82.9419" fill="white"/>
<g filter="url(#filter1_d_16_621)">
<path d="M162.436 404.883H189.972C199.372 404.883 206.229 407.094 210.542 411.518C214.855 415.831 217.011 422.522 217.011 431.59V436.235C217.011 442.206 216.016 447.072 214.026 450.832C212.145 454.592 209.215 457.302 205.234 458.961V459.292C214.302 462.389 218.836 470.462 218.836 483.511V493.465C218.836 502.422 216.458 509.279 211.703 514.034C207.058 518.679 200.202 521.001 191.134 521.001H162.436V404.883ZM187.816 452.159C191.465 452.159 194.175 451.219 195.944 449.339C197.824 447.459 198.764 444.308 198.764 439.884V433.415C198.764 429.212 197.99 426.171 196.442 424.291C195.004 422.411 192.682 421.471 189.475 421.471H180.683V452.159H187.816ZM191.134 504.413C194.341 504.413 196.718 503.583 198.267 501.925C199.815 500.155 200.589 497.169 200.589 492.967V482.848C200.589 477.54 199.649 473.89 197.769 471.9C195.999 469.798 193.014 468.748 188.811 468.748H180.683V504.413H191.134ZM229.502 404.883H257.37C266.439 404.883 273.24 407.316 277.774 412.181C282.308 417.047 284.575 424.18 284.575 433.58V492.303C284.575 501.703 282.308 508.836 277.774 513.702C273.24 518.568 266.439 521.001 257.37 521.001H229.502V404.883ZM257.039 504.413C260.025 504.413 262.292 503.528 263.84 501.759C265.499 499.989 266.328 497.114 266.328 493.133V432.751C266.328 428.77 265.499 425.895 263.84 424.125C262.292 422.356 260.025 421.471 257.039 421.471H247.749V504.413H257.039ZM310.668 404.883H335.385L354.296 521.001H336.049L332.731 497.943V498.275H311.995L308.678 521.001H291.758L310.668 404.883ZM330.574 482.516L322.446 425.12H322.114L314.152 482.516H330.574ZM372.289 471.568L350.226 404.883H369.635L382.076 447.515H382.408L394.849 404.883H412.599L390.536 471.568V521.001H372.289V471.568ZM446.697 522.66C437.739 522.66 430.938 520.172 426.293 515.195C421.759 510.219 419.492 503.086 419.492 493.796V484.341H436.744V494.626C436.744 502.256 439.896 506.072 446.199 506.072C449.296 506.072 451.618 505.132 453.166 503.252C454.825 501.261 455.655 497.833 455.655 492.967V483.511C455.655 478.203 454.715 474.443 452.835 472.231C450.955 469.909 447.913 468.748 443.711 468.748H437.573V452.159H444.209C447.858 452.159 450.568 451.219 452.337 449.339C454.217 447.459 455.157 444.308 455.157 439.884V431.424C455.157 427.443 454.328 424.512 452.669 422.632C451.01 420.752 448.798 419.812 446.033 419.812C440.172 419.812 437.242 423.406 437.242 430.595V438.225H419.99V432.087C419.99 422.798 422.257 415.665 426.791 410.688C431.436 405.712 438.071 403.224 446.697 403.224C455.434 403.224 462.069 405.712 466.603 410.688C471.137 415.554 473.404 422.632 473.404 431.922V436.069C473.404 442.372 472.354 447.459 470.252 451.33C468.151 455.09 464.889 457.799 460.465 459.458V459.79C465.221 461.56 468.649 464.435 470.75 468.416C472.851 472.397 473.902 477.484 473.902 483.677V493.962C473.902 503.252 471.58 510.385 466.935 515.361C462.401 520.227 455.655 522.66 446.697 522.66ZM514.111 522.66C505.153 522.66 498.296 520.117 493.541 515.029C488.786 509.942 486.408 502.754 486.408 493.465V433.415C486.408 413.287 495.697 403.224 514.276 403.224C523.124 403.224 529.87 405.767 534.514 410.854C539.159 415.831 541.481 423.019 541.481 432.419V434.576H524.23V431.258C524.23 423.627 521.078 419.812 514.774 419.812C511.346 419.812 508.802 420.863 507.143 422.964C505.485 425.065 504.655 428.77 504.655 434.078V456.307H504.987C508.194 449.561 513.724 446.188 521.575 446.188C528.211 446.188 533.243 448.455 536.671 452.989C540.099 457.523 541.813 464.103 541.813 472.729V493.465C541.813 502.754 539.436 509.942 534.68 515.029C529.925 520.117 523.068 522.66 514.111 522.66ZM514.111 506.072C520.414 506.072 523.566 502.312 523.566 494.792V474.222C523.566 466.591 520.414 462.776 514.111 462.776C507.807 462.776 504.655 466.591 504.655 474.222V494.792C504.655 502.312 507.807 506.072 514.111 506.072ZM580.031 522.66C571.074 522.66 564.217 520.117 559.462 515.029C554.706 509.942 552.329 502.754 552.329 493.465V432.419C552.329 423.13 554.706 415.941 559.462 410.854C564.217 405.767 571.074 403.224 580.031 403.224C588.989 403.224 595.846 405.767 600.601 410.854C605.356 415.941 607.734 423.13 607.734 432.419V493.465C607.734 502.754 605.356 509.942 600.601 515.029C595.846 520.117 588.989 522.66 580.031 522.66ZM580.031 506.072C586.335 506.072 589.487 502.256 589.487 494.626V431.258C589.487 423.627 586.335 419.812 580.031 419.812C573.728 419.812 570.576 423.627 570.576 431.258V494.626C570.576 502.256 573.728 506.072 580.031 506.072Z" fill="url(#paint9_linear_16_621)"/>
</g>
<path d="M294.935 361.73C291.043 361.73 288.074 360.635 286.031 358.445C283.987 356.207 282.965 353.02 282.965 348.884V309.908H290.994V349.468C290.994 351.219 291.335 352.485 292.016 353.263C292.746 354.042 293.768 354.431 295.081 354.431C296.395 354.431 297.393 354.042 298.074 353.263C298.804 352.485 299.169 351.219 299.169 349.468V309.908H306.906V348.884C306.906 353.02 305.884 356.207 303.84 358.445C301.796 360.635 298.828 361.73 294.935 361.73ZM323.061 361.73C319.168 361.73 316.225 360.635 314.23 358.445C312.235 356.207 311.237 353.02 311.237 348.884V345.964H318.828V349.468C318.828 352.777 320.215 354.431 322.988 354.431C324.351 354.431 325.373 354.042 326.054 353.263C326.784 352.436 327.149 351.122 327.149 349.322C327.149 347.181 326.662 345.307 325.689 343.702C324.716 342.047 322.915 340.077 320.288 337.79C316.979 334.87 314.668 332.242 313.354 329.907C312.04 327.522 311.383 324.846 311.383 321.878C311.383 317.839 312.405 314.725 314.449 312.535C316.492 310.297 319.46 309.178 323.353 309.178C327.197 309.178 330.092 310.297 332.039 312.535C334.034 314.725 335.031 317.888 335.031 322.024V324.141H327.441V321.513C327.441 319.761 327.1 318.496 326.419 317.718C325.737 316.89 324.74 316.477 323.426 316.477C320.75 316.477 319.412 318.107 319.412 321.367C319.412 323.216 319.898 324.943 320.872 326.549C321.893 328.155 323.718 330.101 326.346 332.388C329.703 335.308 332.015 337.96 333.28 340.344C334.545 342.728 335.177 345.526 335.177 348.738C335.177 352.923 334.131 356.134 332.039 358.372C329.995 360.611 327.003 361.73 323.061 361.73ZM339.781 309.908H361.677V317.207H347.81V330.71H358.831V338.009H347.81V353.701H361.677V361H339.781V309.908ZM389.299 361.73C385.455 361.73 382.511 360.635 380.468 358.445C378.473 356.256 377.475 353.166 377.475 349.176V321.732C377.475 317.742 378.473 314.652 380.468 312.462C382.511 310.273 385.455 309.178 389.299 309.178C393.143 309.178 396.063 310.273 398.058 312.462C400.102 314.652 401.123 317.742 401.123 321.732V327.133H393.533V321.221C393.533 318.058 392.194 316.477 389.518 316.477C386.842 316.477 385.504 318.058 385.504 321.221V349.76C385.504 352.874 386.842 354.431 389.518 354.431C392.194 354.431 393.533 352.874 393.533 349.76V341.95H401.123V349.176C401.123 353.166 400.102 356.256 398.058 358.445C396.063 360.635 393.143 361.73 389.299 361.73ZM417.675 361.73C413.733 361.73 410.716 360.611 408.624 358.372C406.532 356.134 405.486 352.971 405.486 348.884V322.024C405.486 317.937 406.532 314.774 408.624 312.535C410.716 310.297 413.733 309.178 417.675 309.178C421.616 309.178 424.633 310.297 426.725 312.535C428.818 314.774 429.864 317.937 429.864 322.024V348.884C429.864 352.971 428.818 356.134 426.725 358.372C424.633 360.611 421.616 361.73 417.675 361.73ZM417.675 354.431C420.448 354.431 421.835 352.752 421.835 349.395V321.513C421.835 318.156 420.448 316.477 417.675 316.477C414.901 316.477 413.514 318.156 413.514 321.513V349.395C413.514 352.752 414.901 354.431 417.675 354.431ZM435.294 309.908H447.556C451.546 309.908 454.538 310.978 456.533 313.119C458.528 315.26 459.526 318.399 459.526 322.535V348.373C459.526 352.509 458.528 355.647 456.533 357.788C454.538 359.929 451.546 361 447.556 361H435.294V309.908ZM447.41 353.701C448.724 353.701 449.721 353.312 450.402 352.533C451.132 351.755 451.497 350.49 451.497 348.738V322.17C451.497 320.418 451.132 319.153 450.402 318.374C449.721 317.596 448.724 317.207 447.41 317.207H443.322V353.701H447.41ZM464.945 309.908H486.842V317.207H472.974V330.71H483.995V338.009H472.974V353.701H486.842V361H464.945V309.908Z" fill="url(#paint10_linear_16_621)" fill-opacity="0.99"/>
<path d="M294.302 629.21C290.055 629.21 286.817 628.016 284.588 625.627C282.358 623.185 281.243 619.708 281.243 615.196V614.161H289.524V615.754C289.524 619.417 291.037 621.248 294.063 621.248C295.708 621.248 296.929 620.744 297.726 619.735C298.522 618.726 298.92 616.948 298.92 614.4V603.731H298.761C297.221 606.969 294.567 608.588 290.798 608.588C287.613 608.588 285.198 607.499 283.552 605.323C281.907 603.147 281.084 599.988 281.084 595.848V585.895C281.084 581.436 282.225 577.985 284.508 575.544C286.791 573.102 290.082 571.881 294.381 571.881C298.681 571.881 301.972 573.102 304.255 575.544C306.537 577.985 307.679 581.436 307.679 585.895V614.719C307.679 624.38 303.22 629.21 294.302 629.21ZM294.381 600.625C297.407 600.625 298.92 598.794 298.92 595.131V585.258C298.92 581.648 297.407 579.843 294.381 579.843C291.356 579.843 289.843 581.648 289.843 585.258V595.131C289.843 598.794 291.356 600.625 294.381 600.625ZM326.501 629.21C322.201 629.21 318.91 627.989 316.628 625.548C314.345 623.106 313.204 619.655 313.204 615.196V585.895C313.204 581.436 314.345 577.985 316.628 575.544C318.91 573.102 322.201 571.881 326.501 571.881C330.801 571.881 334.092 573.102 336.374 575.544C338.657 577.985 339.798 581.436 339.798 585.895V615.196C339.798 619.655 338.657 623.106 336.374 625.548C334.092 627.989 330.801 629.21 326.501 629.21ZM326.501 621.248C329.527 621.248 331.04 619.417 331.04 615.754V585.337C331.04 581.675 329.527 579.843 326.501 579.843C323.475 579.843 321.962 581.675 321.962 585.337V615.754C321.962 619.417 323.475 621.248 326.501 621.248ZM353.684 603.651C350.924 603.651 348.827 602.881 347.394 601.342C345.96 599.802 345.244 597.599 345.244 594.733V580.799C345.244 577.932 345.96 575.729 347.394 574.19C348.827 572.651 350.924 571.881 353.684 571.881C356.444 571.881 358.541 572.651 359.974 574.19C361.408 575.729 362.124 577.932 362.124 580.799V594.733C362.124 597.599 361.408 599.802 359.974 601.342C358.541 602.881 356.444 603.651 353.684 603.651ZM373.909 572.677H379.482L357.904 628.414H352.33L373.909 572.677ZM353.684 598.635C355.595 598.635 356.55 597.467 356.55 595.131V580.401C356.55 578.065 355.595 576.897 353.684 576.897C351.773 576.897 350.818 578.065 350.818 580.401V595.131C350.818 597.467 351.773 598.635 353.684 598.635ZM378.129 629.21C375.368 629.21 373.272 628.441 371.838 626.901C370.405 625.362 369.688 623.159 369.688 620.292V606.358C369.688 603.492 370.405 601.289 371.838 599.749C373.272 598.21 375.368 597.44 378.129 597.44C380.889 597.44 382.986 598.21 384.419 599.749C385.852 601.289 386.569 603.492 386.569 606.358V620.292C386.569 623.159 385.852 625.362 384.419 626.901C382.986 628.441 380.889 629.21 378.129 629.21ZM378.129 624.194C380.04 624.194 380.995 623.026 380.995 620.691V605.96C380.995 603.624 380.04 602.457 378.129 602.457C376.218 602.457 375.262 603.624 375.262 605.96V620.691C375.262 623.026 376.218 624.194 378.129 624.194ZM418.022 629.21C413.723 629.21 410.431 627.989 408.149 625.548C405.866 623.106 404.725 619.655 404.725 615.196V585.895C404.725 581.436 405.866 577.985 408.149 575.544C410.431 573.102 413.723 571.881 418.022 571.881C422.322 571.881 425.613 573.102 427.896 575.544C430.178 577.985 431.32 581.436 431.32 585.895V615.196C431.32 619.655 430.178 623.106 427.896 625.548C425.613 627.989 422.322 629.21 418.022 629.21ZM418.022 621.248C421.048 621.248 422.561 619.417 422.561 615.754V585.337C422.561 581.675 421.048 579.843 418.022 579.843C414.997 579.843 413.484 581.675 413.484 585.337V615.754C413.484 619.417 414.997 621.248 418.022 621.248ZM437.243 572.677H460.413V580.64H446.001V596.166H457.308V604.129H446.001V628.414H437.243V572.677ZM464.614 572.677H487.784V580.64H473.372V596.166H484.679V604.129H473.372V628.414H464.614V572.677Z" fill="url(#paint11_linear_16_621)" fill-opacity="0.99"/>
</g>
<defs>
<filter id="filter0_d_16_621" x="162.436" y="412.224" width="451.104" height="125.242" filterUnits="userSpaceOnUse" color-interpolation-filters="sRGB">
<feFlood flood-opacity="0" result="BackgroundImageFix"/>
<feColorMatrix in="SourceAlpha" type="matrix" values="0 0 0 0 0 0 0 0 0 0 0 0 0 0 0 0 0 0 127 0" result="hardAlpha"/>
<feOffset dx="5.80593" dy="5.80593"/>
<feComposite in2="hardAlpha" operator="out"/>
<feColorMatrix type="matrix" values="0 0 0 0 0.558333 0 0 0 0 0.118993 0 0 0 0 0.0651389 0 0 0 1 0"/>
<feBlend mode="normal" in2="BackgroundImageFix" result="effect1_dropShadow_16_621"/>
<feBlend mode="normal" in="SourceGraphic" in2="effect1_dropShadow_16_621" result="shape"/>
</filter>
<filter id="filter1_d_16_621" x="162.436" y="403.224" width="451.104" height="125.242" filterUnits="userSpaceOnUse" color-interpolation-filters="sRGB">
<feFlood flood-opacity="0" result="BackgroundImageFix"/>
<feColorMatrix in="SourceAlpha" type="matrix" values="0 0 0 0 0 0 0 0 0 0 0 0 0 0 0 0 0 0 127 0" result="hardAlpha"/>
<feOffset dx="5.80593" dy="5.80593"/>
<feComposite in2="hardAlpha" operator="out"/>
<feColorMatrix type="matrix" values="0 0 0 0 0.558333 0 0 0 0 0.118993 0 0 0 0 0.0651389 0 0 0 1 0"/>
<feBlend mode="normal" in2="BackgroundImageFix" result="effect1_dropShadow_16_621"/>
<feBlend mode="normal" in="SourceGraphic" in2="effect1_dropShadow_16_621" result="shape"/>
</filter>
<linearGradient id="paint0_linear_16_621" x1="384.359" y1="468.353" x2="388.584" y2="639.786" gradientUnits="userSpaceOnUse">
<stop stop-color="#5948EA"/>
<stop offset="1" stop-color="#9349EB"/>
</linearGradient>
<linearGradient id="paint1_linear_16_621" x1="384.443" y1="480.429" x2="385.843" y2="565.337" gradientUnits="userSpaceOnUse">
<stop stop-color="#F55A47"/>
<stop offset="1" stop-color="#F77B26"/>
</linearGradient>
<linearGradient id="paint2_linear_16_621" x1="384.362" y1="339.428" x2="387.426" y2="424.248" gradientUnits="userSpaceOnUse">
<stop stop-color="#5948EA"/>
<stop offset="1" stop-color="#9349EB"/>
</linearGradient>
<linearGradient id="paint3_linear_16_621" x1="383.703" y1="604.842" x2="386.738" y2="689.664" gradientUnits="userSpaceOnUse">
<stop stop-color="#5948EA"/>
<stop offset="1" stop-color="#9349EB"/>
</linearGradient>
<linearGradient id="paint4_linear_16_621" x1="249.816" y1="171.917" x2="251.788" y2="256.802" gradientUnits="userSpaceOnUse">
<stop stop-color="#F55A47"/>
<stop offset="1" stop-color="#F77B26"/>
</linearGradient>
<linearGradient id="paint5_linear_16_621" x1="560.651" y1="171.917" x2="563.32" y2="256.764" gradientUnits="userSpaceOnUse">
<stop stop-color="#F55A47"/>
<stop offset="1" stop-color="#F77B26"/>
</linearGradient>
<linearGradient id="paint6_linear_16_621" x1="560.502" y1="172.513" x2="560.502" y2="173.161" gradientUnits="userSpaceOnUse">
<stop stop-color="#F55A47"/>
<stop offset="1" stop-color="#F77B26"/>
</linearGradient>
<linearGradient id="paint7_linear_16_621" x1="249.816" y1="171.917" x2="251.788" y2="256.802" gradientUnits="userSpaceOnUse">
<stop stop-color="#F55A47"/>
<stop offset="1" stop-color="#F77B26"/>
</linearGradient>
<linearGradient id="paint8_linear_16_621" x1="384.359" y1="468.353" x2="388.584" y2="639.786" gradientUnits="userSpaceOnUse">
<stop stop-color="#5948EA"/>
<stop offset="1" stop-color="#9349EB"/>
</linearGradient>
<linearGradient id="paint9_linear_16_621" x1="384.443" y1="471.429" x2="385.843" y2="556.337" gradientUnits="userSpaceOnUse">
<stop stop-color="#F55A47"/>
<stop offset="1" stop-color="#F77B26"/>
</linearGradient>
<linearGradient id="paint10_linear_16_621" x1="384.362" y1="339.428" x2="387.426" y2="424.248" gradientUnits="userSpaceOnUse">
<stop stop-color="#5948EA"/>
<stop offset="1" stop-color="#9349EB"/>
</linearGradient>
<linearGradient id="paint11_linear_16_621" x1="383.703" y1="604.842" x2="386.738" y2="689.664" gradientUnits="userSpaceOnUse">
<stop stop-color="#5948EA"/>
<stop offset="1" stop-color="#9349EB"/>
</linearGradient>
<clipPath id="clip0_16_621">
<rect width="768" height="635" fill="white"/>
</clipPath>
</defs>
</svg>
