<svg width="358" height="32" viewBox="0 0 358 32" fill="none" xmlns="http://www.w3.org/2000/svg">
<path d="M22.9874 23.6437C21.0543 25.6149 18.1547 26.6862 15.5912 26.6862C8.32103 26.6862 5.50542 21.5011 5.46339 16.5303C5.42137 11.5167 8.48913 6.11736 15.5912 6.11736C18.1547 6.11736 20.7602 7.01724 22.6933 8.94557L26.3914 5.30317C23.3657 2.26071 19.5835 0.718047 15.5912 0.718047C4.95911 0.718047 -0.0417615 8.68846 0.000262608 16.5303C0.0422867 24.3293 4.66494 31.9998 15.5912 31.9998C19.8356 31.9998 23.7439 30.5857 26.7696 27.5432L22.9874 23.6437Z" fill="white"/>
<path d="M82.2371 1.31797C78.6231 1.31797 74.2946 1.31797 70.6805 1.31797V31.3141C74.2946 31.3141 78.6231 31.3141 82.2371 31.3141C92.533 31.3141 97.0716 23.6437 96.9456 16.0589C96.8195 8.6456 92.3229 1.31797 82.2371 1.31797ZM76.1857 6.67443H82.2371C88.6248 6.67443 91.3143 11.3453 91.4404 16.0161C91.5665 20.9012 88.919 25.872 82.2371 25.872H76.1857V6.67443Z" fill="white"/>
<path d="M106.606 31.3141V1.31797H101.1V31.3141H106.606Z" fill="white"/>
<path d="M131.142 19.9156L116.727 1.31797H112.231V31.3141H117.778V11.0882L133.243 31.357V31.3141H136.689V1.27512H131.142V19.9156Z" fill="white"/>
<path d="M167.068 5.04607C164.042 2.0036 160.092 0.460938 156.141 0.460938C145.761 0.460938 140.592 8.25994 140.592 16.7017C140.592 24.5864 145.089 31.9998 156.141 31.9998C161.31 31.9998 164.966 29.9857 167.866 26.6005V13.9592H155.259V19.0157H162.781V24.3293C160.47 26.2148 158.453 26.729 156.141 26.729C148.829 26.729 146.014 21.6297 146.014 16.7017C146.014 10.5311 149.838 5.64599 156.141 5.64599C158.705 5.64599 161.647 6.71728 163.622 8.6456L167.068 5.04607Z" fill="white"/>
<path d="M208.175 31.3148H210.402V1.31865H207.628L196.492 18.8021L185.23 1.31865C184.137 1.31865 183.633 1.31865 182.54 1.31865V31.3148H184.809V4.66108L196.156 22.2303H196.912L208.175 4.66108V31.3148Z" fill="white"/>
<path d="M219.158 31.3148V1.31865H216.931V31.3148H219.158Z" fill="white"/>
<path d="M225.672 1.31865V31.3148H227.941V6.54656L247.777 31.3148H248.659V1.31865H246.432V26.1298L226.639 1.31865H225.672Z" fill="white"/>
<path d="M275.517 1.31865V19.9591C275.517 32.8146 257.447 32.8575 257.447 19.9591V1.31865H255.219V19.9591C255.219 35.6857 277.744 35.6428 277.744 19.9591V1.31865H275.517Z" fill="white"/>
<path d="M292.269 31.3148H294.538V3.41839H305.17V1.3615H281.636V3.41839H292.269V31.3148Z" fill="white"/>
<path d="M311.7 3.50409H329.771V1.31865H309.473V31.3148H330.275V29.0865H311.7V17.2595H328.93V15.1597H311.7V3.50409Z" fill="white"/>
<path d="M357.118 5.98949C354.218 1.57576 350.562 0.890137 346.359 0.890137C341.527 0.890137 335.055 2.86131 335.181 9.20336C335.181 14.7312 340.686 15.8454 346.065 16.9167C350.898 17.8594 355.773 18.845 355.731 23.3444C355.731 28.658 349.974 29.6865 346.359 29.6865C342.745 29.6865 338.123 27.8867 336.316 24.2443L334.299 25.2727C336.568 29.8579 341.779 31.7862 346.359 31.7862C351.276 31.7862 357.958 30.1578 358 23.3873C358 16.9167 352.117 15.8882 346.443 14.7741C341.485 13.8313 337.45 12.9315 337.45 9.11766C337.45 4.31827 342.913 3.03272 346.359 3.03272C349.679 3.07557 353.125 3.58979 355.269 7.10363L357.118 5.98949Z" fill="white"/>
<path d="M61.8178 15.6573C61.8178 24.3046 54.9432 31.3147 46.4629 31.3147C37.9826 31.3147 31.1079 24.3046 31.1079 15.6573C31.1079 7.01003 37.9826 0 46.4629 0C54.9432 0 61.8178 7.01003 61.8178 15.6573Z" fill="#80BA4F"/>
<path fill-rule="evenodd" clip-rule="evenodd" d="M54.3294 10.9777C54.6326 11.3117 54.6128 11.8331 54.2853 12.1422L44.2844 21.5816C43.9745 21.874 43.4962 21.874 43.1864 21.5816L38.6405 17.291C38.313 16.9818 38.2932 16.4604 38.5964 16.1264C38.8996 15.7924 39.4109 15.7723 39.7385 16.0814L43.7354 19.8539L53.1873 10.9327C53.5149 10.6235 54.0262 10.6437 54.3294 10.9777Z" fill="white"/>
</svg>
