<svg width="358" height="32" viewBox="0 0 358 32" fill="none" xmlns="http://www.w3.org/2000/svg">
<path d="M22.9874 23.6438C21.0543 25.615 18.1547 26.6863 15.5912 26.6863C8.32103 26.6863 5.50542 21.5012 5.46339 16.5304C5.42137 11.5168 8.48913 6.11748 15.5912 6.11748C18.1547 6.11748 20.7602 7.01736 22.6933 8.94569L26.3914 5.3033C23.3657 2.26083 19.5835 0.718169 15.5912 0.718169C4.95911 0.718169 -0.0417615 8.68858 0.000262608 16.5304C0.0422867 24.3294 4.66494 31.9999 15.5912 31.9999C19.8356 31.9999 23.7439 30.5858 26.7696 27.5433L22.9874 23.6438Z" fill="#151518"/>
<path d="M82.2371 1.31809C78.6231 1.31809 74.2946 1.31809 70.6805 1.31809V31.3143C74.2946 31.3143 78.6231 31.3143 82.2371 31.3143C92.533 31.3143 97.0716 23.6438 96.9456 16.0591C96.8195 8.64573 92.3229 1.31809 82.2371 1.31809ZM76.1857 6.67455H82.2371C88.6248 6.67455 91.3143 11.3454 91.4404 16.0162C91.5665 20.9013 88.919 25.8721 82.2371 25.8721H76.1857V6.67455Z" fill="#151518"/>
<path d="M106.606 31.3143V1.31809H101.1V31.3143H106.606Z" fill="#151518"/>
<path d="M131.142 19.9157L116.727 1.31809H112.231V31.3143H117.778V11.0883L133.243 31.3571V31.3143H136.689V1.27524H131.142V19.9157Z" fill="#151518"/>
<path d="M167.068 5.04619C164.042 2.00372 160.092 0.46106 156.141 0.46106C145.761 0.46106 140.592 8.26006 140.592 16.7018C140.592 24.5865 145.089 31.9999 156.141 31.9999C161.31 31.9999 164.966 29.9859 167.866 26.6006V13.9593H155.259V19.0158H162.781V24.3294C160.47 26.2149 158.453 26.7291 156.141 26.7291C148.829 26.7291 146.014 21.6298 146.014 16.7018C146.014 10.5312 149.838 5.64611 156.141 5.64611C158.705 5.64611 161.647 6.7174 163.622 8.64573L167.068 5.04619Z" fill="#151518"/>
<path d="M208.175 31.3149H210.402V1.31878H207.628L196.492 18.8023L185.229 1.31878C184.137 1.31878 183.633 1.31878 182.54 1.31878V31.3149H184.809V4.66121L196.156 22.2304H196.912L208.175 4.66121V31.3149Z" fill="#151518"/>
<path d="M219.158 31.3149V1.31878H216.931V31.3149H219.158Z" fill="#151518"/>
<path d="M225.672 1.31878V31.3149H227.941V6.54668L247.777 31.3149H248.659V1.31878H246.432V26.1299L226.639 1.31878H225.672Z" fill="#151518"/>
<path d="M275.517 1.31878V19.9592C275.517 32.8147 257.447 32.8576 257.447 19.9592V1.31878H255.219V19.9592C255.219 35.6858 277.744 35.643 277.744 19.9592V1.31878H275.517Z" fill="#151518"/>
<path d="M292.268 31.3149H294.538V3.41851H305.17V1.36163H281.636V3.41851H292.268V31.3149Z" fill="#151518"/>
<path d="M311.7 3.50421H329.771V1.31878H309.473V31.3149H330.275V29.0867H311.7V17.2596H328.93V15.1599H311.7V3.50421Z" fill="#151518"/>
<path d="M357.117 5.98961C354.218 1.57589 350.562 0.890259 346.359 0.890259C341.527 0.890259 335.055 2.86144 335.181 9.20348C335.181 14.7313 340.686 15.8455 346.065 16.9168C350.898 17.8595 355.773 18.8451 355.731 23.3445C355.731 28.6581 349.973 29.6866 346.359 29.6866C342.745 29.6866 338.123 27.8868 336.316 24.2444L334.298 25.2729C336.568 29.858 341.779 31.7863 346.359 31.7863C351.276 31.7863 357.958 30.1579 358 23.3874C358 16.9168 352.117 15.8883 346.443 14.7742C341.485 13.8315 337.45 12.9316 337.45 9.11778C337.45 4.31839 342.913 3.03284 346.359 3.03284C349.679 3.07569 353.125 3.58991 355.268 7.10375L357.117 5.98961Z" fill="#151518"/>
<path d="M61.8177 15.6573C61.8177 24.3046 54.943 31.3147 46.4627 31.3147C37.9824 31.3147 31.1078 24.3046 31.1078 15.6573C31.1078 7.01003 37.9824 0 46.4627 0C54.943 0 61.8177 7.01003 61.8177 15.6573Z" fill="#80BA4F"/>
<path fill-rule="evenodd" clip-rule="evenodd" d="M54.3292 10.9774C54.6324 11.3114 54.6126 11.8328 54.2851 12.142L44.2842 21.5813C43.9744 21.8737 43.496 21.8737 43.1862 21.5813L38.6404 17.2907C38.3128 16.9816 38.2931 16.4602 38.5962 16.1262C38.8994 15.7922 39.4107 15.772 39.7383 16.0812L43.7352 19.8537L53.1872 10.9324C53.5147 10.6233 54.026 10.6434 54.3292 10.9774Z" fill="white"/>
</svg>
